<?xml version="1.0" standalone="no"?>
<!DOCTYPE svg PUBLIC "-//W3C//DTD SVG 1.1//EN" "http://www.w3.org/Graphics/SVG/1.1/DTD/svg11.dtd" >
<svg>
<metadata>
Created by FontForge 20090914 at Tue Jul 16 09:30:41 2019
 By www-data
(c) 1999-2009 Ray Larabie. See attached license agreement for more information. If EULA is missing, visit www.larabiefonts.com for an updated version of this font.
</metadata>
<defs>
<font id="SofachromeRg-Italic" horiz-adv-x="1421" >
  <font-face 
    font-family="Sofachrome Rg"
    font-weight="400"
    font-style="italic"
    font-stretch="normal"
    units-per-em="1000"
    panose-1="2 1 5 7 2 0 0 9 0 4"
    ascent="800"
    descent="-200"
    x-height="681.999"
    cap-height="682"
    bbox="-306.001 -216.001 2320 984.001"
    underline-thickness="20"
    underline-position="-123"
    slope="-24"
    unicode-range="U+0017-U+F8FF"
  />
<missing-glyph horiz-adv-x="453" 
d="M140 0c-28 0 -49.5 6.16895 -64.5 18.502s-22.5 31.166 -22.5 56.499v532c0 25.333 7.5 44.166 22.5 56.499s36.5 18.5 64.5 18.5h172c58 0 87 -25 87 -75v-532c0 -50 -29 -75 -87 -75h-172zM353 607.002c0 22.667 -13.667 34 -41 34h-172c-27.333 0 -41 -11.333 -41 -34
v-532c0 -23.333 13.667 -35 41 -35h172c27.333 0 41 11.667 41 35v532z" />
    <glyph glyph-name="copyright" unicode="&#x28;C&#x29;" horiz-adv-x="831" 
d="M877 340c0 42.667 -8.16699 82.834 -24.5 120.501s-38.5 70.667 -66.5 99s-60.833 50.666 -98.5 66.999s-77.834 24.5 -120.501 24.5s-82.834 -8.16699 -120.501 -24.5s-70.5 -38.666 -98.5 -66.999s-50.167 -61.333 -66.5 -99s-24.5 -77.834 -24.5 -120.501
s8.16699 -82.834 24.5 -120.501s38.5 -70.5 66.5 -98.5s60.833 -50.167 98.5 -66.5s77.834 -24.5 120.501 -24.5s82.834 8.16699 120.501 24.5s70.5 38.5 98.5 66.5s50.167 60.833 66.5 98.5s24.5 77.834 24.5 120.501zM929 340c0 -50 -9.5 -96.833 -28.5 -140.5
s-45 -81.834 -78 -114.501s-71.333 -58.5 -115 -77.5s-90.5 -28.5 -140.5 -28.5s-97 9.5 -141 28.5s-82.333 44.833 -115 77.5s-58.5 70.834 -77.5 114.501s-28.5 90.5 -28.5 140.5s9.5 97 28.5 141s44.833 82.5 77.5 115.5s71 59 115 78s91 28.5 141 28.5
s96.833 -9.5 140.5 -28.5s82 -45 115 -78s59 -71.5 78 -115.5s28.5 -91 28.5 -141zM527 197c-20 0 -37.167 4.16699 -51.5 12.5s-26 19.166 -35 32.499s-15.5 28.833 -19.5 46.5s-6 35.5 -6 53.5s2 35.667 6 53s10.5 32.833 19.5 46.5s20.667 24.667 35 33
s31.5 12.5 51.5 12.5h149c12 0 18 -6 18 -18v-25c0 -12 -6 -18 -18 -18h-97c-16 0 -27.333 -4 -34 -12s-10 -23.667 -10 -47v-40c0 -25.333 3.5 -43.166 10.5 -53.499s18.167 -15.5 33.5 -15.5h98c12 0 18 -5.66699 18 -17v-26c0 -12 -6 -18 -18 -18h-150z" />
    <glyph glyph-name="registered" unicode="&#x28;R&#x29;" horiz-adv-x="571" 
d="M683 469c0 26 -5 50.5 -15 73.5s-23.5 43 -40.5 60s-37 30.5 -60 40.5s-47.5 15 -73.5 15c-26.667 0 -51.5 -5 -74.5 -15s-43 -23.5 -60 -40.5s-30.5 -37 -40.5 -60s-15 -47.5 -15 -73.5c0 -26.667 5 -51.5 15 -74.5s23.5 -43 40.5 -60s37 -30.5 60 -40.5
s47.833 -15 74.5 -15c26 0 50.5 5 73.5 15s43 23.5 60 40.5s30.5 37 40.5 60s15 47.833 15 74.5zM494 236c-32 0 -62.167 6.16699 -90.5 18.5s-53 29 -74 50s-37.667 45.667 -50 74s-18.5 58.5 -18.5 90.5s6.16699 62 18.5 90s29 52.5 50 73.5s45.667 37.5 74 49.5
s58.5 18 90.5 18s62 -6 90 -18s52.5 -28.5 73.5 -49.5s37.5 -45.5 49.5 -73.5s18 -58 18 -90s-6 -62.167 -18 -90.5s-28.5 -53 -49.5 -74s-45.5 -37.667 -73.5 -50s-58 -18.5 -90 -18.5zM566 381c-7.33301 0 -13.333 1.33203 -18 3.99902s-8.66699 6.33398 -12 11.001
l-47 73c-4.66699 7.33301 -7 13 -7 17v4c0 7.33301 6 11 18 11h12c12.667 0 19 6 19 18c0 12.667 -6.33301 19 -19 19h-59v-139c0 -12 -6 -18 -18 -18h-13c-12 0 -18 6 -18 18v154c0 12 6 18 18 18h109c16.667 0 29.5 -5 38.5 -15s13.5 -22.333 13.5 -37
c0 -12 -3.66699 -22.5 -11 -31.5s-17.333 -14.5 -30 -16.5l43 -67c4 -7.33301 6 -12.333 6 -15c0 -5.33301 -3.66699 -8 -11 -8h-14z" />
    <glyph glyph-name="uni2117" unicode="&#x28;P&#x29;" horiz-adv-x="831" 
d="M879 340c0 42.667 -8.16699 82.834 -24.5 120.501s-38.666 70.667 -66.999 99s-61.333 50.666 -99 66.999s-77.834 24.5 -120.501 24.5s-82.834 -8.16699 -120.501 -24.5s-70.5 -38.666 -98.5 -66.999s-50.167 -61.333 -66.5 -99s-24.5 -77.834 -24.5 -120.501
s8.16699 -82.834 24.5 -120.501s38.5 -70.5 66.5 -98.5s60.833 -50.167 98.5 -66.5s77.834 -24.5 120.501 -24.5s82.834 8.16699 120.501 24.5s70.667 38.5 99 66.5s50.666 60.833 66.999 98.5s24.5 77.834 24.5 120.501zM931 340c0 -50 -9.5 -96.833 -28.5 -140.5
s-45 -81.834 -78 -114.501s-71.5 -58.5 -115.5 -77.5s-91 -28.5 -141 -28.5s-96.833 9.5 -140.5 28.5s-81.834 44.833 -114.501 77.5s-58.5 70.834 -77.5 114.501s-28.5 90.5 -28.5 140.5s9.5 97 28.5 141s44.833 82.5 77.5 115.5s70.834 59 114.501 78
s90.5 28.5 140.5 28.5s97 -9.5 141 -28.5s82.5 -45 115.5 -78s59 -71.5 78 -115.5s28.5 -91 28.5 -141zM595 280c-12 0 -17.998 6 -17.998 18v24c0 12 6 18 18 18h23c15.333 0 26 5.5 32 16.5s9 23.167 9 36.5s-3 25.333 -9 36s-16.667 16 -32 16h-83v-271
c0 -12 -6 -18 -18 -18h-34c-12 0 -18 6 -18 18v314c0 12 6 18 18 18h172c13.333 0 24.833 -3.16699 34.5 -9.5s17.667 -14.666 24 -24.999s11 -22 14 -35s4.5 -26.5 4.5 -40.5c0 -14.667 -1.66699 -28.834 -5 -42.501s-8.33301 -26 -15 -37s-15.334 -19.833 -26.001 -26.5
s-23.334 -10 -38.001 -10h-53z" />
    <glyph glyph-name=".notdef" horiz-adv-x="453" 
d="M140 0c-28 0 -49.5 6.16895 -64.5 18.502s-22.5 31.166 -22.5 56.499v532c0 25.333 7.5 44.166 22.5 56.499s36.5 18.5 64.5 18.5h172c58 0 87 -25 87 -75v-532c0 -50 -29 -75 -87 -75h-172zM353 607.002c0 22.667 -13.667 34 -41 34h-172c-27.333 0 -41 -11.333 -41 -34
v-532c0 -23.333 13.667 -35 41 -35h172c27.333 0 41 11.667 41 35v532z" />
    <glyph glyph-name="uni0017" horiz-adv-x="353" 
 />
    <glyph glyph-name="space" unicode=" " horiz-adv-x="353" 
 />
    <glyph glyph-name="exclam" unicode="!" horiz-adv-x="412" 
d="M126 0c-20.667 0 -31.001 7.00098 -31.001 21.001c0 6.66699 2 14.667 6 24l64 144c13.333 29.333 35 44 65 44h159c20.667 0 31 -7 31 -21c0 -6.66699 -2.33301 -14.334 -7 -23.001l-64 -144c-13.333 -30 -34.666 -45 -63.999 -45h-159zM256.999 286.001
c-14 0 -21.001 5.33301 -21.001 16c0 2 0.166992 3.66699 0.5 5l1.5 6l103 331c6.66699 25.333 21.667 38 45 38h249c12.667 0 19 -5 19 -15c0 -6.66699 -1.33301 -11.5 -4 -14.5s-4.66699 -5.83301 -6 -8.5l-192 -331c-11.333 -18 -25.666 -27 -42.999 -27h-152z" />
    <glyph glyph-name="quotedbl" unicode="&#x22;" horiz-adv-x="600" 
d="M316 408c-27.333 0 -41 11.002 -41 33.002c0 6 0.333008 10 1 12l24 142c2 11.333 4.83301 22.166 8.5 32.499l13.5 36.5l17 36c5.33301 11.333 12 20.166 20 26.499s18.333 9.5 31 9.5h177c16.667 0 25 -5.66699 25 -17c0 -6 -1.66699 -12.333 -5 -19l-16 -36
c-6.66699 -14.667 -13 -27 -19 -37s-13 -20.667 -21 -32l-102 -142c-10 -14 -21.833 -25 -35.5 -33s-28.5 -12 -44.5 -12h-33zM615 408.002c-27.333 0 -40.998 11 -40.998 33c0 6 0.333008 10 1 12l24 142c2 11.333 4.5 22.166 7.5 32.499s7.83301 22.5 14.5 36.5l16 36
c10.667 24 28 36 52 36h177c16.667 0 25 -5.66699 25 -17c0 -4 -1.66699 -10.333 -5 -19l-17 -36c-6.66699 -14 -12.834 -26.167 -18.501 -36.5s-12.834 -21.166 -21.501 -32.499l-102 -142c-10 -14 -21.667 -25 -35 -33s-28 -12 -44 -12h-33z" />
    <glyph glyph-name="numbersign" unicode="#" horiz-adv-x="537" 
d="M334 0c-7.33301 0 -11.001 3.33301 -11.001 10c0 -0.666992 0.666992 1.66602 2 6.99902l98 191h-134l-99 -193c-7.33301 -10 -14.666 -15 -21.999 -15h-43c-8 0 -12 3.66699 -12 11c0.666992 0 1 0.333008 1 1c0 2 0.333008 3.66699 1 5l98 191h-52
c-6.66699 0 -10 2.66699 -10 8c0 3.33301 0.333008 5.33301 1 6l22 49c2 4.66699 5.16699 8.33398 9.5 11.001s8.5 4 12.5 4h57l62 122h-54c-6.66699 0 -10 3 -10 9c0 1.33301 0.166992 2.5 0.5 3.5s0.833008 2.16699 1.5 3.5l21 48c2 4 5.33301 7.5 10 10.5s9 4.5 13 4.5
h59l92 179c2.66699 4.66699 6.16699 8.5 10.5 11.5s8.16602 4.5 11.499 4.5h44c8 0 12 -3 12 -9l-2 -8l-92 -178h135l91 179c2.66699 4.66699 6.16699 8.5 10.5 11.5s8.83301 4.5 13.5 4.5h43c7.33301 0 11 -3 11 -9l-2 -8l-91 -178h43c6.66699 0 10 -3 10 -9l-2 -6l-21 -48
c-2.66699 -4.66699 -6 -8.5 -10 -11.5s-8.33301 -4.5 -13 -4.5h-49l-62 -122h45c7.33301 0 11 -3 11 -9l-2 -6l-21 -49c-2 -3.33301 -5 -6.5 -9 -9.5s-8.33301 -4.5 -13 -4.5h-51l-99 -193c-5.33301 -10 -12.666 -15 -21.999 -15h-44zM525.999 408h-135l-62 -122h135z" />
    <glyph glyph-name="dollar" unicode="$" horiz-adv-x="750" 
d="M486 118l-40.998 -90.998c-8 -18 -21 -27 -39 -27h-59c-12 0 -18 4 -18 12c0 4 1 9 3 15l41 91h-237c-12 0 -18 4 -18 12c0 2.66699 0.166992 5 0.5 7s1.16602 4.33301 2.49902 7l11 24c8 17.333 20.667 26 38 26h367l-252 145c-17.333 10 -29.666 21.167 -36.999 33.5
s-11 25.166 -11 38.499c0 18 6 36.167 18 54.5s27.5 34.833 46.5 49.5s40 26.667 63 36s45.5 14 67.5 14h140l41 91c8 17.333 20.333 26 37 26h60c12.667 0 19 -4.33301 19 -13c0 -4 -1.33301 -8.33301 -4 -13l-41 -91h222c12.667 0 19 -4.66699 19 -14
c0 -4 -1.33301 -8.33301 -4 -13l-11 -24c-8 -18 -20.667 -27 -38 -27h-355l252 -144c16.667 -9.33301 28.5 -20 35.5 -32s10.5 -24.667 10.5 -38c0 -18 -5.83301 -36.333 -17.5 -55s-26.834 -35.334 -45.501 -50.001s-39.334 -26.667 -62.001 -36s-45 -14 -67 -14h-137z" />
    <glyph glyph-name="percent" unicode="%" horiz-adv-x="1186" 
d="M362 365c-36 0 -63 8.66602 -81 25.999s-27 40.333 -27 69c0 32.667 8.16699 63.834 24.5 93.501s37.166 55.834 62.499 78.501s53.333 40.667 84 54s60.334 20 89.001 20h196c36 0 62.833 -8.33301 80.5 -25s26.5 -39.334 26.5 -68.001c0 -32 -8 -62.833 -24 -92.5
s-36.5 -56 -61.5 -79s-52.833 -41.5 -83.5 -55.5s-60.667 -21 -90 -21h-196zM623 568.999c5.33301 11.333 9.33008 21.332 11.9971 29.999s4 16.334 4 23.001c0 9.33301 -3.5 15.833 -10.5 19.5s-16.833 5.5 -29.5 5.5h-38c-19.333 0 -35.666 -5.33301 -48.999 -16
s-26.666 -31.334 -39.999 -62.001l-24 -54c-13.333 -29.333 -20 -50.666 -20 -63.999c0 -10 2.83301 -17 8.5 -21s13.834 -6 24.501 -6h38c20 0 37.833 6.66699 53.5 20s31.167 37 46.5 71zM267.997 -20.002c-10 -7.33301 -17.833 -11.833 -23.5 -13.5
s-12.834 -2.5 -21.501 -2.5h-48c-8.66699 0 -13 4 -13 12c0 4 1.66699 7.83301 5 11.5s7 7.16699 11 10.5l1036 704c9.33301 6.66699 16.833 11 22.5 13s12.834 3 21.501 3h48c8.66699 0 13 -4 13 -12c0 -4 -1.5 -7.83301 -4.5 -11.5s-6.83301 -7.16699 -11.5 -10.5z
M784.997 -9.00195c-36 0 -63 8.66602 -81 25.999s-27 40.333 -27 69c0 32.667 8.16699 63.834 24.5 93.501s37.166 55.834 62.499 78.501s53.333 40.667 84 54s60.334 20 89.001 20h196c36 0 62.833 -8.33301 80.5 -25s26.5 -39.334 26.5 -68.001
c0 -32 -8 -62.833 -24 -92.5s-36.5 -56 -61.5 -79s-52.833 -41.5 -83.5 -55.5s-60.667 -21 -90 -21h-196zM1046 194.997c5.33301 11.333 9.33008 21.332 11.9971 29.999s4 16.334 4 23.001c0 9.33301 -3.5 15.833 -10.5 19.5s-16.833 5.5 -29.5 5.5h-38
c-19.333 0 -35.666 -5.33301 -48.999 -16s-26.666 -31.334 -39.999 -62.001l-24 -54c-13.333 -29.333 -20 -50.666 -20 -63.999c0 -10 2.83301 -17 8.5 -21s13.834 -6 24.501 -6h38c20 0 37.833 6.66699 53.5 20s31.167 37 46.5 71z" />
    <glyph glyph-name="ampersand" unicode="&#x26;" horiz-adv-x="785" 
d="M554 0c-8 0 -13.999 1.50293 -17.999 4.50293s-7 6.5 -9 10.5l-33 74l-82 -42c-34.667 -17.333 -66 -30 -94 -38s-53 -12 -75 -12c-20.667 0 -38.834 3.5 -54.501 10.5s-28.834 16.333 -39.501 28s-18.667 25 -24 40s-8 30.5 -8 46.5
c0 33.333 14.833 68.166 44.5 104.499s79.5 70.833 149.5 103.5l62 29l-21 49c-4.66699 10 -8 22 -10 36s-3 25.667 -3 35c0 30.667 7 58.5 21 83.5s32.667 46.333 56 64s50.166 31.334 80.499 41.001s61.833 14.5 94.5 14.5h106c32 0 55.333 -7.33301 70 -22
s22 -32.667 22 -54c0 -19.333 -4.66699 -37.833 -14 -55.5s-21.666 -34.334 -36.999 -50.001s-32.5 -29.834 -51.5 -42.501s-38.167 -23.334 -57.5 -32.001l-52 -23l72 -157l77 38c8.66699 4 16 7 22 9s12.667 3 20 3h101c8 0 12 -2.33301 12 -7c0 -6 -5 -11.333 -15 -16
l-186 -92l69 -144c1.33301 -4 2 -7 2 -9c0 -8 -3.16699 -14.667 -9.5 -20s-13.166 -8 -20.499 -8h-167zM404.001 290.003l-65.001 -30.001c-30 -14 -53 -29.667 -69 -47s-24 -36 -24 -56c0 -19.333 5.83301 -34.666 17.5 -45.999s25.834 -17 42.501 -17
c23.333 0 50.333 7.66699 81 23l77 38zM596 488.002c6.66699 2.66699 14.1689 6.16699 22.502 10.5s16.166 10 23.499 17s13.666 15 18.999 24s8 19.5 8 31.5c0 14.667 -11.333 22 -34 22h-68c-15.333 0 -28.5 -4.33301 -39.5 -13s-16.5 -17.667 -16.5 -27
c0 -8.66699 3 -19 9 -31l27 -56z" />
    <glyph glyph-name="quotesingle" unicode="'" horiz-adv-x="302" 
d="M316 408c-27.333 0 -41 11.002 -41 33.002c0 6 0.333008 10 1 12l24 142c2 11.333 4.83301 22.166 8.5 32.499l13.5 36.5l17 36c5.33301 11.333 12 20.166 20 26.499s18.333 9.5 31 9.5h177c16.667 0 25 -5.66699 25 -17c0 -6 -1.66699 -12.333 -5 -19l-16 -36
c-6.66699 -14.667 -13 -27 -19 -37s-13 -20.667 -21 -32l-102 -142c-10 -14 -21.833 -25 -35.5 -33s-28.5 -12 -44.5 -12h-33z" />
    <glyph glyph-name="parenleft" unicode="(" horiz-adv-x="390" 
d="M176 -109c-8.66699 0 -14.666 2.66504 -17.999 7.99805l-38 66c-1.33301 2.66699 -2 5.66699 -2 9s0.666992 7 2 11l318 713c4 8 9.33301 14.333 16 19l97 66c9.33301 5.33301 17.666 8 24.999 8h99c6 0 9 -2 9 -6l-2 -8l-12 -28c-4 -8.66699 -10.333 -13 -19 -13h-86
c-6 0 -10.333 -1.33301 -13 -4l-52 -36c-4.66699 -2.66699 -8 -6.66699 -10 -12l-306 -686c0 -1.33301 -0.166992 -2.66602 -0.5 -3.99902s-0.5 -2.66602 -0.5 -3.99902s0.333008 -2.33301 1 -3l20 -37c0.666992 -2 3.66699 -3 9 -3h86c6.66699 0 10 -2.66699 10 -8
c-0.666992 -0.666992 -1 -1.33398 -1 -2.00098s-0.166992 -1.16699 -0.5 -1.5s-0.5 -1.16602 -0.5 -2.49902l-12 -27c-5.33301 -10 -12 -15 -20 -15h-99z" />
    <glyph glyph-name="parenright" unicode=")" horiz-adv-x="390" 
d="M143 -101c-9.33301 -5.33301 -17.666 -8.00098 -24.999 -8.00098h-99c-6.66699 0 -10 2.33301 -10 7c0 1.33301 1 4 3 8l12 27c4 9.33301 10.333 14 19 14h86c5.33301 0 9.66602 1 12.999 3l52 37c2.66699 1.33301 4.66699 3 6 5l4 6l306 686
c0 1.33301 0.166992 2.66602 0.5 3.99902s0.5 2.33301 0.5 3c0 1.33301 -0.166992 2.33301 -0.5 3s-0.5 1.33398 -0.5 2.00098l-20 36c-2 2.66699 -5 4 -9 4h-86c-6.66699 0 -10 2.33301 -10 7l2 6l12 28c5.33301 9.33301 12 14 20 14h99c8.66699 0 14.667 -2.66699 18 -8
l38 -66c1.33301 -5.33301 2 -8.33301 2 -9c0 -1.33301 -0.666992 -4.66602 -2 -9.99902l-318 -713c-4.66699 -8 -10 -14.667 -16 -20z" />
    <glyph glyph-name="asterisk" unicode="*" horiz-adv-x="535" 
d="M668 336c-7.33301 -9.33301 -16.333 -14.0029 -27 -14.0029c-9.33301 0 -17.333 3.33301 -24 10l-80 77l-19 -110c-3.33301 -19.333 -14.666 -29 -33.999 -29c-2 0 -3.83301 0.166992 -5.5 0.5s-3.5 0.833008 -5.5 1.5l-63 21c-16 5.33301 -24 16 -24 32
c0 5.33301 1 10.666 3 15.999l48 101l-110 -15c-10.667 0 -19.834 2.66699 -27.501 8s-11.5 14 -11.5 26v65c0 12 3.83301 20.667 11.5 26s17.167 8 28.5 8l109 -15l-47 101c-2 4.66699 -3 9.66699 -3 15c0 16.667 8.33301 27.667 25 33l61 20
c6.66699 1.33301 10.667 2 12 2c6.66699 0 13.334 -2.5 20.001 -7.5s11 -11.833 13 -20.5l19 -110l80 77c6.66699 6.66699 14.667 10 24 10c11.333 0 20.666 -4.66699 27.999 -14l39 -52c3.33301 -3.33301 5.33301 -7 6 -11s1 -8 1 -12
c0 -5.33301 -1.5 -10.666 -4.5 -15.999s-7.16699 -9.66602 -12.5 -12.999l-99 -53l99 -54c5.33301 -3.33301 9.5 -7.66602 12.5 -12.999s4.5 -10.666 4.5 -15.999c0 -4 -0.333008 -7.83301 -1 -11.5s-2.66699 -7.5 -6 -11.5z" />
    <glyph glyph-name="plus" unicode="+" horiz-adv-x="747" 
d="M548 301l-112 -253.002c-8 -18 -21 -27 -39 -27h-28c-12.667 0 -19 4.33301 -19 13c0 4.66699 1.33301 9.33398 4 14.001l112 253h-252c-12 0 -18 4.33301 -18 13c0 4.66699 1.33301 9.33398 4 14.001l12 28c8 18 20.667 27 38 27h252l113 252c8 18 21 27 39 27h28
c12 0 18 -4.33301 18 -13c0 -3.33301 -1 -8 -3 -14l-113 -252h253c12.667 0 19 -4.33301 19 -13c0 -3.33301 -1 -8 -3 -14l-13 -28c-8 -18 -21 -27 -39 -27h-253z" />
    <glyph glyph-name="comma" unicode="," horiz-adv-x="342" 
d="M185 -50c-28.667 -29.333 -58 -43.999 -88 -43.999h-41c-20.667 0 -31 7 -31 21c0 6 2 13.667 6 23l106 239c6.66699 14.667 15.667 25.667 27 33s24 11 38 11h160c20 0 30 -7 30 -21c0 -6.66699 -2 -14.334 -6 -23.001l-12 -28c-6 -14 -12.5 -25.667 -19.5 -35
s-17.167 -20.333 -30.5 -33z" />
    <glyph glyph-name="hyphen" unicode="-" horiz-adv-x="338" 
d="M175 277c-11.333 0 -17 4.33301 -17 13c0 3.33301 1 8 3 14l29 64c8 18 20.667 27 38 27h231c12.667 0 19 -4.66699 19 -14c0 -4 -1.33301 -8.33301 -4 -13l-29 -64c-8 -18 -21 -27 -39 -27h-231z" />
    <glyph glyph-name="period" unicode="." horiz-adv-x="355" 
d="M98 0c-20 0 -30 7.00098 -30 21.001c0 8 1.66699 16 5 24l64 144c6.66699 14.667 15.667 25.667 27 33s24 11 38 11h160c20 0 30 -7 30 -21c0 -6.66699 -2 -14.334 -6 -23.001l-64 -144c-14 -30 -35.667 -45 -65 -45h-159z" />
    <glyph glyph-name="slash" unicode="/" horiz-adv-x="639" 
d="M95 -20c-8 -6.66699 -14.5 -11 -19.5 -13s-11.833 -3 -20.5 -3h-52c-10.667 0 -16 3.66699 -16 11c0 2.66699 1.66699 6.33398 5 11.001s7 8.66699 11 12l842 704c8 6.66699 14.667 11 20 13s12.333 3 21 3h52c10.667 0 16 -3.66699 16 -11
c0 -2.66699 -1.66699 -6.33398 -5 -11.001s-7 -8.66699 -11 -12z" />
    <glyph glyph-name="zero" unicode="0" horiz-adv-x="1122" 
d="M365 0c-34.667 0 -65.3311 5.50391 -91.998 16.5039s-49 26.167 -67 45.5s-31.667 42.166 -41 68.499s-14 54.833 -14 85.5c0 39.333 6.66699 78 20 116s31.833 74.333 55.5 109s51.667 66.667 84 96s67.666 54.666 105.999 75.999s78.833 38.166 121.5 50.499
s86.334 18.5 131.001 18.5h392c35.333 0 66.5 -5.33301 93.5 -16s49.5 -25.5 67.5 -44.5s31.667 -41.5 41 -67.5s14 -54.333 14 -85c0 -39.333 -6.83301 -78.166 -20.5 -116.499s-32.5 -74.833 -56.5 -109.5s-52.333 -66.834 -85 -96.501s-68.334 -55.334 -107.001 -77.001
s-79.334 -38.667 -122.001 -51s-85.667 -18.5 -129 -18.5h-392zM887.003 409.004c10 22.667 18 42.668 24 60.001s8.66699 32.333 8 45c0 19.333 -6.66699 32.666 -20 39.999s-33.333 11 -60 11h-74c-19.333 0 -37 -2.5 -53 -7.5s-31.167 -13.5 -45.5 -25.5s-28 -28 -41 -48
s-26.167 -45 -39.5 -75l-48 -109c-25.333 -58 -38 -100.667 -38 -128c0 -19.333 5.66699 -33.166 17 -41.499s28 -12.5 50 -12.5h74c20 0 38.833 3 56.5 9s34.5 16.167 50.5 30.5s31.333 33.166 46 56.499s29.667 52 45 86z" />
    <glyph glyph-name="one" unicode="1" horiz-adv-x="556" 
d="M152 0c-10 0 -15 2.33398 -15 7.00098l2 6l245 552h-76c-12 0 -18 4 -18 12c0 5.33301 1.33301 10.333 4 15l28 64c9.33301 17.333 22.333 26 39 26h298c76.667 0 115 -23.333 115 -70c0 -14.667 -3.66699 -30.334 -11 -47.001l-245 -552
c-4.66699 -8.66699 -13 -13 -25 -13h-341z" />
    <glyph glyph-name="two" unicode="2" horiz-adv-x="1084" 
d="M80 0c-12.667 0 -19 4.00098 -19 12.001c0 5.33301 1.33301 10.333 4 15l60 132c22.667 50.667 46.834 92 72.501 124s58.167 57 97.5 75s88.666 30.167 147.999 36.5s134 9.5 224 9.5h103c20 0 38 3.33301 54 10s29.667 15.5 41 26.5s20 23.167 26 36.5s9 27 9 41
c0 31.333 -19.667 47 -59 47h-483c-12 0 -18 4 -18 12c0 5.33301 1.33301 10.333 4 15l28 64c7.33301 17.333 20.333 26 39 26h686c28 0 51.833 -3.66699 71.5 -11s35.834 -17.166 48.501 -29.499s22 -26.666 28 -42.999s9 -33.166 9 -50.499
c0 -28.667 -7.66699 -58.334 -23 -89.001s-37.333 -58.834 -66 -84.501s-63.667 -46.834 -105 -63.501s-88.333 -25 -141 -25h-237c-26.667 0 -48.834 -1.83301 -66.501 -5.5s-32.667 -9.66699 -45 -18s-22.833 -19 -31.5 -32s-17 -28.5 -25 -46.5l-29 -66h572
c11.333 0 17 -4.33301 17 -13c0 -4.66699 -1 -9.33398 -3 -14.001l-29 -64c-8 -18 -20.667 -27 -38 -27h-924z" />
    <glyph glyph-name="three" unicode="3" horiz-adv-x="1034" 
d="M62 0c-12 0 -18.001 4.00098 -18.001 12.001c0 4 1 9 3 15l29 64c8 18 21 27 39 27h435c34.667 0 62.834 5.66699 84.501 17s38.334 24.666 50.001 39.999s19.5 30.666 23.5 45.999s6 27.333 6 36c0 37.333 -26 56 -78 56h-234c-12 0 -18 4 -18 12
c0 4.66699 1.33301 9.33398 4 14.001l28 65c7.33301 17.333 20 26 38 26h252c16.667 0 32.5 3 47.5 9s28.167 13.667 39.5 23s20.5 19.5 27.5 30.5s10.5 21.5 10.5 31.5c0 12 -5 21.833 -15 29.5s-27 11.5 -51 11.5h-443c-12 0 -18 4 -18 12c0 4 1 9 3 15l29 64
c8 17.333 20.667 26 38 26h701c48 0 83.667 -9.33301 107 -28s35 -45 35 -79c0 -31.333 -5.83301 -58 -17.5 -80s-25.667 -40.5 -42 -55.5s-33.333 -27 -51 -36s-32.5 -16.167 -44.5 -21.5c12 -5.33301 23.167 -17.333 33.5 -36s15.5 -42 15.5 -70
c0 -30 -8.33301 -61.333 -25 -94s-40.5 -62.5 -71.5 -89.5s-68.333 -49.167 -112 -66.5s-92.834 -26 -147.501 -26h-693z" />
    <glyph glyph-name="four" unicode="4" horiz-adv-x="1138" 
d="M1092 148l-53.999 -121c-8 -18 -20.667 -27 -38 -27h-325c-12 0 -18 4 -18 12c0 2.66699 0.166992 5 0.5 7s1.16602 4.66699 2.49902 8l54 121h-596c-12.667 0 -19 4 -19 12c0 4 1 9 3 15l21 46c7.33301 15.333 20 28 38 38l698 398c28.667 16.667 55.667 25 81 25h363
c12.667 0 19 -4.33301 19 -13c0 -4 -1.33301 -8.33301 -4 -13l-178 -399h73c12.667 0 19 -4.66699 19 -14c0 -4 -1.33301 -8.33301 -4 -13l-24 -55c-8 -18 -21 -27 -39 -27h-73zM894.001 553l-511 -296h380z" />
    <glyph glyph-name="five" unicode="5" horiz-adv-x="1071" 
d="M80 0c-12.667 0 -19.001 3.99805 -19.001 11.998c0 5.33301 1.33301 10.333 4 15l29 64c8 18 21 27 39 27h529c20.667 0 39.334 4.33301 56.001 13s31 19.334 43 32.001s21.167 26.5 27.5 41.5s9.5 28.833 9.5 41.5c0 14 -4.16699 26.667 -12.5 38s-22.5 17 -42.5 17
h-527c-12 0 -18 4.33301 -18 13c0 3.33301 1 8 3 14l146 328c8 17.333 21 26 39 26h878c12.667 0 19 -4.33301 19 -13c0 -4 -1.33301 -8.33301 -4 -13l-28 -64c-8 -18 -21 -27 -39 -27h-571l-71 -159h422c26 0 48.167 -3.66699 66.5 -11s33.5 -17 45.5 -29
s20.667 -26 26 -42s8 -32.333 8 -49c0 -29.333 -8 -60.166 -24 -92.499s-38.333 -62 -67 -89s-63 -49.333 -103 -67s-84 -26.5 -132 -26.5h-732z" />
    <glyph glyph-name="six" unicode="6" horiz-adv-x="1098" 
d="M298 0c-25.333 0 -48.667 2.66797 -70 8.00098s-39.833 13.666 -55.5 24.999s-28 25.833 -37 43.5s-13.5 38.5 -13.5 62.5c0 34.667 10.667 77 32 127l82 185c18 40 40.833 74.5 68.5 103.5s58 53 91 72s67.167 33 102.5 42s69.333 13.5 102 13.5h699
c12.667 0 19 -4.33301 19 -13c0 -4 -1.33301 -8.33301 -4 -13l-28 -64c-4 -9.33301 -9.66699 -16.166 -17 -20.499s-15 -6.5 -23 -6.5h-499c-36.667 0 -66 -6.33301 -88 -19s-38.667 -31.667 -50 -57l-118 -267c-8 -18 -12 -34 -12 -48c0 -18 6 -31.833 18 -41.5
s29 -14.5 51 -14.5h125c20 0 39.667 3.83301 59 11.5s36.5 18 51.5 31s27.167 28 36.5 45s14 35.167 14 54.5s-5.83301 34.666 -17.5 45.999s-27.5 17 -47.5 17h-135c-12 0 -18 4.33301 -18 13c0 2 0.166992 4.16699 0.5 6.5s1.16602 4.83301 2.49902 7.5l24 54
c8 17.333 21 26 39 26h331c30 0 55.833 -4 77.5 -12s39.167 -18.667 52.5 -32s23.166 -28.666 29.499 -45.999s9.5 -35.333 9.5 -54c0 -30.667 -8.16699 -62.834 -24.5 -96.501s-39.666 -64.5 -69.999 -92.5s-66.666 -51.167 -108.999 -69.5s-89.5 -27.5 -141.5 -27.5h-539z
" />
    <glyph glyph-name="seven" unicode="7" horiz-adv-x="931" 
d="M549 19c-8 -7.33301 -15.167 -12.499 -21.5 -15.499s-14.833 -4.16699 -25.5 -3.5h-314c-12 0 -18 4 -18 12c0 2.66699 1.5 6.16699 4.5 10.5s6.16699 8.16602 9.5 11.499l563 531h-456c-12 0 -18 4 -18 12c0 5.33301 1.33301 10.333 4 15l29 64
c8 17.333 20.667 26 38 26h844c12.667 0 19 -4.33301 19 -13c0 -4 -1 -8.33301 -3 -13l-15 -32c-6.66699 -14 -17.667 -28.667 -33 -44z" />
    <glyph glyph-name="eight" unicode="8" horiz-adv-x="1069" 
d="M277 0c-30 0 -55.6641 4.00098 -76.9971 12.001s-39 18.667 -53 32s-24.333 28.5 -31 45.5s-10 34.833 -10 53.5c0 26 6 51.333 18 76s27.667 47.5 47 68.5s41.166 39.667 65.499 56s48.833 29.166 73.5 38.499c-10.667 9.33301 -18.334 21.5 -23.001 36.5
s-7 29.833 -7 44.5c0 24 7 49 21 75s33.5 49.667 58.5 71s55 38.833 90 52.5s73.167 20.5 114.5 20.5h546c24 0 44.5 -3.16699 61.5 -9.5s31 -14.666 42 -24.999s19.167 -22.333 24.5 -36s8 -27.834 8 -42.501c0 -34 -12.833 -67.833 -38.5 -101.5
s-62.5 -62.167 -110.5 -85.5c15.333 -9.33301 27.333 -24.333 36 -45s13 -42.334 13 -65.001c0 -30 -9 -61.167 -27 -93.5s-43 -61.666 -75 -87.999s-69.833 -48 -113.5 -65s-90.834 -25.5 -141.501 -25.5h-512zM602.003 317.001c-24.667 0 -47.5 -3.99707 -68.5 -11.9971
s-39.167 -18.333 -54.5 -31s-27.333 -26.834 -36 -42.501s-13 -30.834 -13 -45.501c0 -17.333 6.33301 -33 19 -47s34 -21 64 -21h145c24.667 0 47.5 4 68.5 12s39.167 18.333 54.5 31s27.333 26.667 36 42s13 30.666 13 45.999c0 17.333 -6.33301 33 -19 47s-34 21 -64 21
h-145zM704.003 565.004c-20 0 -38.333 -3.33398 -55 -10.001s-31.167 -15.167 -43.5 -25.5s-21.833 -21.666 -28.5 -33.999s-10 -24.5 -10 -36.5c0 -14.667 5.16699 -27.5 15.5 -38.5s27.166 -16.5 50.499 -16.5h161c20 0 38.5 3.33301 55.5 10s31.5 15 43.5 25
s21.333 21.333 28 34s10 25 10 37c0 14 -5.16699 26.667 -15.5 38s-27.166 17 -50.499 17h-161z" />
    <glyph glyph-name="nine" unicode="9" horiz-adv-x="1086" 
d="M1154 232c-18 -40 -40.999 -74.6689 -68.999 -104.002s-58.333 -53.5 -91 -72.5s-66.834 -33 -102.501 -42s-69.834 -13.5 -102.501 -13.5h-662c-12.667 0 -19 4 -19 12c0 4 1 9 3 15l29 64c8 18 21 27 39 27h455c70 0 116.667 25 140 75l118 265
c8 18.667 12 35.334 12 50.001c0 17.333 -6 31.166 -18 41.499s-28.667 15.5 -50 15.5h-119c-24 0 -45 -4.33301 -63 -13s-33 -19.5 -45 -32.5s-21 -26.833 -27 -41.5s-9 -27.667 -9 -39c0 -14.667 4.66699 -27.667 14 -39s25.666 -17 48.999 -17h124
c12.667 0 19 -4.33301 19 -13c0 -4.66699 -1.33301 -9.33398 -4 -14.001l-22 -50c-8 -18 -21 -27 -39 -27h-326c-30 0 -55.5 3.83301 -76.5 11.5s-38.167 17.834 -51.5 30.501s-23 27.167 -29 43.5s-9 33.5 -9 51.5c0 28.667 7.83301 58.667 23.5 90s38 60 67 86
s63.833 47.5 104.5 64.5s86 25.5 136 25.5h539c24.667 0 47.834 -2.66699 69.501 -8s40.334 -13.666 56.001 -24.999s28 -25.666 37 -42.999s13.5 -38.333 13.5 -63c0 -17.333 -2.5 -36.5 -7.5 -57.5s-13.167 -44.167 -24.5 -69.5z" />
    <glyph glyph-name="colon" unicode=":" horiz-adv-x="380" 
d="M112 0c-20 0 -30 7.00098 -30 21.001c0 4.66699 1.66699 12.667 5 24l64 144c6.66699 14.667 15.667 25.667 27 33s24 11 38 11h160c20 0 30 -7 30 -21c0 -6.66699 -2 -14.334 -6 -23.001l-64 -144c-14 -30 -35.333 -45 -64 -45h-160zM260 331.001
c-20.667 0 -31.002 7.33398 -31.002 22.001c0 6 2 13.667 6 23l64 144c12.667 30 34 45 64 45h160c20.667 0 31 -7.33301 31 -22c0 -3.33301 -0.666992 -6.83301 -2 -10.5s-2.66602 -7.83398 -3.99902 -12.501l-64 -144c-15.333 -30 -36.666 -45 -63.999 -45h-160z" />
    <glyph glyph-name="semicolon" unicode=";" horiz-adv-x="377" 
d="M201 -50c-29.333 -29.333 -58.667 -43.999 -88 -43.999h-41c-20.667 0 -31 7 -31 21c0 6 2 13.667 6 23l106 239c6.66699 14.667 15.667 25.667 27 33s24 11 38 11h160c20 0 30 -7 30 -21c0 -6.66699 -2 -14.334 -6 -23.001l-12 -28c-6 -14 -12.5 -25.667 -19.5 -35
s-17.167 -20.333 -30.5 -33zM261.999 331.001c-20.667 0 -31.001 7.33398 -31.001 22.001c0 6 2 13.667 6 23l64 144c12.667 30 34 45 64 45h160c20.667 0 31 -7.33301 31 -22c0 -3.33301 -0.666992 -6.83301 -2 -10.5s-2.66602 -7.83398 -3.99902 -12.501l-64 -144
c-15.333 -30 -37 -45 -65 -45h-159z" />
    <glyph glyph-name="less" unicode="&#x3c;" horiz-adv-x="613" 
d="M560 45c-8.66699 -10.667 -17.666 -15.999 -26.999 -15.999c-4.66699 0 -9.33398 2 -14.001 6l-319 246c-6 4 -9 10.333 -9 19c0 7.33301 1.33301 13.666 4 18.999l19 42c4.66699 9.33301 10 17.5 16 24.5s14 12.5 24 16.5l540 247c8 3.33301 13.667 5 17 5
c8.66699 0 13.667 -4.66699 15 -14l3 -34c0 -10.667 -3 -19.167 -9 -25.5s-14.333 -12.166 -25 -17.499l-515 -236l300 -233c4.66699 -2.66699 7 -7.33398 7 -14.001c0 -6 -4.33301 -13.333 -13 -22z" />
    <glyph glyph-name="equal" unicode="=" horiz-adv-x="747" 
d="M159 176c-12 0 -18 4.33301 -18 13c0 4 1 8.66699 3 14l13 29c8 17.333 20.667 26 38 26h587c12.667 0 19 -4.33301 19 -13c0 -4 -1.33301 -8.33301 -4 -13l-12 -29c-8 -18 -21 -27 -39 -27h-587zM270 426c-12.667 0 -19 4.00098 -19 12.001
c0 5.33301 1.33301 10.333 4 15l12 28c8 18 21 27 39 27h588c11.333 0 17 -4.33301 17 -13c0 -4.66699 -1 -9.33398 -3 -14.001l-13 -28c-8 -18 -20.667 -27 -38 -27h-587z" />
    <glyph glyph-name="greater" unicode="&#x3e;" horiz-adv-x="613" 
d="M357 639c8.66699 10 18.001 15 28.001 15c3.33301 0 7.66602 -1.66699 12.999 -5l319 -246c6.66699 -6 10 -12.667 10 -20c0 -4 -1.66699 -10.333 -5 -19l-18 -42c-8 -18.667 -21.333 -32 -40 -40l-540 -248c-8 -3.33301 -13.667 -5 -17 -5c-9.33301 0 -14.333 5 -15 15
l-4 34c0 10 3.16699 18.167 9.5 24.5s14.833 12.166 25.5 17.499l515 236l-300 233c-4.66699 2.66699 -7 7.33398 -7 14.001c0 6 4.33301 13.333 13 22z" />
    <glyph glyph-name="question" unicode="?" horiz-adv-x="859" 
d="M187 0c-20 0 -30 7.00098 -30 21.001c0 4.66699 1.66699 12.667 5 24l64 144c6.66699 14.667 15.667 25.667 27 33s24 11 38 11h160c20 0 30 -7 30 -21c0 -6.66699 -2 -14.334 -6 -23.001l-64 -144c-14 -30 -35.333 -45 -64 -45h-160zM633 329.001
c-37.333 0 -65.3311 -1.83301 -83.998 -5.5s-32.667 -9.5 -42 -17.5c-7.33301 -6 -14 -10.833 -20 -14.5s-13.333 -5.5 -22 -5.5h-135c-12.667 0 -19 4 -19 12c0 4 1 9 3 15l12 25c3.33301 6.66699 8.16602 15.167 14.499 25.5s15.5 20.5 27.5 30.5s27.167 18.5 45.5 25.5
s41.5 10.5 69.5 10.5h187c15.333 0 29.166 3.16699 41.499 9.5s23 14.166 32 23.499s15.833 19.5 20.5 30.5s7 21.167 7 30.5c0 10.667 -3 20.167 -9 28.5s-16.667 12.5 -32 12.5h-435c-12 0 -18 4 -18 12c0 5.33301 1.33301 10.333 4 15l28 64c7.33301 17.333 20 26 38 26
h571c28 0 51.833 -3.33301 71.5 -10s35.667 -15.667 48 -27s21.5 -24.166 27.5 -38.499s9 -29.5 9 -45.5c0 -25.333 -7.33301 -51.666 -22 -78.999s-35.5 -52.333 -62.5 -75s-60 -41.334 -99 -56.001s-82.833 -22 -131.5 -22h-126z" />
    <glyph glyph-name="at" unicode="@" horiz-adv-x="866" 
d="M297 1c-25.333 0 -49.166 2.66797 -71.499 8.00098s-41.666 13.5 -57.999 24.5s-29.166 24.833 -38.499 41.5s-14 36.667 -14 60c0 13.333 1.66699 28.166 5 44.499s9.66602 34.166 18.999 53.499l82 183c21.333 47.333 46.666 87.833 75.999 121.5
s60.833 61.167 94.5 82.5s68.5 37 104.5 47s71 15 105 15h327c24 0 44.5 -3.66699 61.5 -11s30.667 -17 41 -29s18 -26 23 -42s7.5 -32.667 7.5 -50c0 -32 -7.83301 -65.667 -23.5 -101s-37.834 -68 -66.501 -98s-63.167 -54.833 -103.5 -74.5s-84.833 -29.5 -133.5 -29.5
h-227c-21.333 0 -36.333 6.16699 -45 18.5s-13 26.5 -13 42.5c0 6.66699 2.5 18.834 7.5 36.501s13.333 35.667 25 54s27.167 34.5 46.5 48.5s43.333 21 72 21h85c21.333 0 36.166 -3.83301 44.499 -11.5s12.5 -17.167 12.5 -28.5c0 -7.33301 -0.833008 -13.833 -2.5 -19.5
s-4.16699 -12.167 -7.5 -19.5l-34 -76h34c22.667 0 43.667 7.33301 63 22s35.833 32.167 49.5 52.5s24.334 41.333 32.001 63s11.5 39.5 11.5 53.5c0 15.333 -3.16699 29.333 -9.5 42s-17.5 19 -33.5 19h-268c-30 0 -58.5 -7.83301 -85.5 -23.5s-49.5 -43.5 -67.5 -83.5
l-118 -264c-5.33301 -11.333 -8 -22 -8 -32c0 -29.333 27 -44 81 -44h446c12.667 0 19 -4.33301 19 -13c0 -4 -1.33301 -8.33301 -4 -13l-28 -64c-8 -18 -21.333 -27 -40 -27h-475zM639 367.001c3.33301 10 5 17 5 21c0 12.667 -7.66699 19 -23 19h-13
c-7.33301 0 -14.5 -1.83301 -21.5 -5.5s-13.5 -8.66699 -19.5 -15s-10.833 -13.5 -14.5 -21.5s-5.5 -16.333 -5.5 -25c0 -8 1.66699 -14.5 5 -19.5s8.33301 -7.5 15 -7.5h48z" />
    <glyph glyph-name="A" unicode="A" 
d="M979 0c-20.667 0 -35 6.66797 -43 20.001l-208 401l-441 -303h454c12 0 18 -4.33301 18 -13c0 -4.66699 -1.33301 -9.33398 -4 -14.001l-28 -64c-8 -18 -20.667 -27 -38 -27h-667c-8.66699 0 -13 4 -13 12c0 6 5.33301 13 16 21l908 630c18.667 12.667 35.667 19 51 19
h65c9.33301 0 16.833 -1.66699 22.5 -5s10.167 -8 13.5 -14l338 -628c1.33301 -6.66699 2 -10.667 2 -12c0 -6 -2.5 -11.333 -7.5 -16s-13.167 -7 -24.5 -7h-414z" />
    <glyph glyph-name="B" unicode="B" horiz-adv-x="1199" 
d="M62 0c-12 0 -17.999 4 -17.999 12c0 4 1 9 3 15l281 629c8 17.333 20.667 26 38 26h868c48 0 83.5 -9.33301 106.5 -28s34.5 -45 34.5 -79c0 -31.333 -5.83301 -58 -17.5 -80s-25.667 -40.5 -42 -55.5s-33.333 -27 -51 -36s-32.5 -16.167 -44.5 -21.5
c12.667 -5.33301 24 -17.333 34 -36s15 -42 15 -70c0 -30 -8.33301 -61.333 -25 -94s-40.5 -62.5 -71.5 -89.5s-68.333 -49.167 -112 -66.5s-92.834 -26 -147.501 -26h-851zM649.001 313c-11.333 0 -17.001 4.00195 -17.001 12.002c0 4 1 8.66699 3 14l29 65
c8 17.333 20.667 26 38 26h162c16.667 0 32.667 3 48 9s28.666 13.667 39.999 23s20.5 19.5 27.5 30.5s10.5 21.5 10.5 31.5c0 12 -5 21.833 -15 29.5s-27 11.5 -51 11.5h-251l-199 -447h234c35.333 0 63.833 5.66699 85.5 17s38.334 24.666 50.001 39.999
s19.334 30.666 23.001 45.999s5.5 27.333 5.5 36c0 37.333 -25.667 56 -77 56h-146z" />
    <glyph glyph-name="C" unicode="C" horiz-adv-x="1104" 
d="M364 0c-34 0 -64.1689 5.33691 -90.502 16.0039s-48.666 25.5 -66.999 44.5s-32.166 41.833 -41.499 68.5s-14 55.667 -14 87c0 38.667 6.66699 77.167 20 115.5s31.833 74.666 55.5 108.999s51.667 66.333 84 96s67.666 55.167 105.999 76.5s78.833 38.166 121.5 50.499
s86 18.5 130 18.5h681c12 0 18 -4.33301 18 -13c0 -2 -0.166992 -4 -0.5 -6s-1.16602 -4.33301 -2.49902 -7l-29 -64c-8 -18 -21 -27 -39 -27h-447c-22 0 -41.5 -2.33301 -58.5 -7s-32.833 -13 -47.5 -25s-28.5 -28 -41.5 -48s-26.167 -45.333 -39.5 -76l-48 -109
c-12.667 -28 -22.167 -52.167 -28.5 -72.5s-9.5 -37.833 -9.5 -52.5c0 -20.667 6.33301 -35.334 19 -44.001s31 -13 55 -13h451c12 0 18 -4.33301 18 -13c0 -4.66699 -1.33301 -9.33398 -4 -14.001l-28 -64c-8 -18 -20.667 -27 -38 -27h-685z" />
    <glyph glyph-name="D" unicode="D" horiz-adv-x="1248" 
d="M62 0c-12 0 -18.001 4 -18.001 12c0 4 1 9 3 15l281 629c8 17.333 20.667 26 38 26h804c34.667 0 65.334 -5.33301 92.001 -16s49 -25.5 67 -44.5s31.667 -41.5 41 -67.5s14 -54.333 14 -85c0 -40.667 -7 -80.5 -21 -119.5s-33.167 -75.833 -57.5 -110.5
s-53 -66.667 -86 -96s-68.667 -54.5 -107 -75.5s-78.5 -37.5 -120.5 -49.5s-84 -18 -126 -18h-804zM931.999 409c21.333 48.667 31.999 83.6689 31.999 105.002c0 19.333 -6.66699 32.666 -20 39.999s-32.666 11 -57.999 11h-203l-198 -447h202c20 0 38.667 3.16699 56 9.5
s34 16.666 50 30.999s31.333 33 46 56s29.667 51.5 45 85.5z" />
    <glyph glyph-name="E" unicode="E" horiz-adv-x="1131" 
d="M717 313c-12 0 -18 3.99902 -18 11.999c0 4.66699 1.33301 9.33398 4 14.001l28 65c7.33301 17.333 20.333 26 39 26h477c14 0 21 -3.33301 21 -10l-2 -8l-37 -81c-6 -12 -17.333 -18 -34 -18h-478zM364 -0.000976562c-34 0 -64.168 5.33691 -90.501 16.0039
s-48.666 25.5 -66.999 44.5s-32.166 41.833 -41.499 68.5s-14 55.667 -14 87c0 38.667 6.66699 77.167 20 115.5s31.833 74.666 55.5 108.999s51.667 66.333 84 96s67.666 55.167 105.999 76.5s78.833 38.166 121.5 50.499s86 18.5 130 18.5h699c12 0 18 -4.33301 18 -13
c0 -4 -1 -8.33301 -3 -13l-29 -64c-8 -18 -21 -27 -39 -27h-465c-22 0 -41.5 -2.33301 -58.5 -7s-32.833 -13 -47.5 -25s-28.5 -28 -41.5 -48s-26.167 -45.333 -39.5 -76l-48 -109c-12.667 -28 -22.167 -52.167 -28.5 -72.5s-9.5 -37.833 -9.5 -52.5
c0 -20.667 6.33301 -35.334 19 -44.001s31 -13 55 -13h469c12 0 18 -4.33301 18 -13c0 -4.66699 -1.33301 -9.33398 -4 -14.001l-28 -64c-8 -18 -21 -27 -39 -27h-702z" />
    <glyph glyph-name="F" unicode="F" horiz-adv-x="1105" 
d="M850 565c-43.333 0 -78.998 -11.667 -106.998 -35s-53.333 -60.666 -76 -111.999l-174 -391c-8 -18 -21 -27 -39 -27h-383c-12 0 -18 4 -18 12c0 2.66699 0.166992 5 0.5 7s1.16602 4.66699 2.49902 8l167 373c18 41.333 40.667 79.166 68 113.499s58.666 64 93.999 89
s74.5 44.5 117.5 58.5s89.167 21 138.5 21h726c12.667 0 19 -4.33301 19 -13c0 -4 -1 -8.33301 -3 -13l-29 -64c-8 -18 -21 -27 -39 -27h-465zM718.002 313c-12 0 -18 3.99707 -18 11.9971c0 4.66699 1.33301 9.33398 4 14.001l28 65c7.33301 17.333 20.333 26 39 26h479
c13.333 0 20 -3.33301 20 -10c0 -1.33301 -0.166992 -2.66602 -0.5 -3.99902s-0.5 -2.66602 -0.5 -3.99902l-37 -81c-6 -12 -17.667 -18 -35 -18h-479z" />
    <glyph glyph-name="G" unicode="G" horiz-adv-x="1172" 
d="M364 0c-34 0 -64.168 5.33594 -90.501 16.0029s-48.666 25.5 -66.999 44.5s-32.166 41.833 -41.499 68.5s-14 55.667 -14 87c0 38.667 6.66699 77.167 20 115.5s31.833 74.666 55.5 108.999s51.667 66.333 84 96s67.666 55.167 105.999 76.5s78.833 38.166 121.5 50.499
s86 18.5 130 18.5h697c12.667 0 19 -4.33301 19 -13c0 -4 -1.33301 -8.33301 -4 -13l-29 -64c-8 -18 -21 -27 -39 -27h-463c-22 0 -41.5 -2.33301 -58.5 -7s-32.833 -13 -47.5 -25s-28.5 -28 -41.5 -48s-26.167 -45.333 -39.5 -76l-48 -109
c-12.667 -28 -22.167 -52.167 -28.5 -72.5s-9.5 -37.833 -9.5 -52.5c0 -20.667 6.33301 -35.334 19 -44.001s31 -13 55 -13h178l136 306c8 18 20.333 27 37 27h286c12.667 0 19 -4.66699 19 -14c0 -4 -1.33301 -8.33301 -4 -13l-177 -397c-8 -18 -20.667 -27 -38 -27h-723z
" />
    <glyph glyph-name="H" unicode="H" horiz-adv-x="1200" 
d="M777 0c-12.667 0 -19 4 -19 12c0 5.33301 1.33301 10.333 4 15l127 286h-300l-128 -286c-8 -18 -20.333 -27 -37 -27h-344c-12.667 0 -19 4 -19 12c0 5.33301 1.33301 10.333 4 15l281 629c8 17.333 20.667 26 38 26h344c12 0 18 -4.33301 18 -13
c0 -4 -1.33301 -8.33301 -4 -13l-101 -226h301l100 226c7.33301 17.333 20.333 26 39 26h343c12 0 18 -4.33301 18 -13c0 -4 -1 -8.33301 -3 -13l-281 -629c-8 -18 -20.333 -27 -37 -27h-344z" />
    <glyph glyph-name="I" unicode="I" horiz-adv-x="513" 
d="M84 0c-12 0 -18 4 -18 12c0 4 1 9 3 15l281 629c8 17.333 20.667 26 38 26h344c12.667 0 19 -4.33301 19 -13c0 -4 -1.33301 -8.33301 -4 -13l-280 -629c-8 -18 -20.667 -27 -38 -27h-345z" />
    <glyph glyph-name="J" unicode="J" horiz-adv-x="947" 
d="M37 0c-12 0 -18 3.99902 -18 11.999c0 4 1 9 3 15l29 64c8 18 21 27 39 27h311c42.667 0 78 11.5 106 34.5s53.667 60.5 77 112.5l174 391c8 17.333 20.667 26 38 26h383c12.667 0 19 -4.33301 19 -13c0 -4 -1 -8.33301 -3 -13l-167 -374
c-18 -41.333 -40.667 -79.166 -68 -113.499s-58.833 -64 -94.5 -89s-75 -44.5 -118 -58.5s-89.167 -21 -138.5 -21h-572z" />
    <glyph glyph-name="K" unicode="K" horiz-adv-x="1302" 
d="M926 0c-14 0 -24.9971 2.16602 -32.9971 6.49902s-15.667 11.166 -23 20.499l-209 297c-4 6 -6 12 -6 18c0 4 0.666992 8.33301 2 13s3.66602 10.334 6.99902 17.001l12 29c5.33301 11.333 10.666 19.666 15.999 24.999s12.666 10.333 21.999 15l487 215
c17.333 7.33301 34 13.5 50 18.5s32 7.5 48 7.5h211c9.33301 0 14 -3.66699 14 -11c0 -3.33301 -1.5 -7.16602 -4.5 -11.499s-8.16699 -8.16602 -15.5 -11.499l-500 -219l298 -384c3.33301 -4.66699 5 -10 5 -16c0 -8 -3.33301 -14.833 -10 -20.5s-16.667 -8.5 -30 -8.5
h-341zM79.0029 -0.000976562c-12 0 -18 4 -18 12c0 5.33301 1.33301 10.333 4 15l281 629c8 17.333 20.333 26 37 26h344c12.667 0 19 -4.33301 19 -13c0 -4 -1.33301 -8.33301 -4 -13l-281 -629c-8 -18 -20.667 -27 -38 -27h-344z" />
    <glyph glyph-name="L" unicode="L" horiz-adv-x="1026" 
d="M338 0c-70.667 0 -122 13.168 -154 39.501s-48 62.5 -48 108.5c0 39.333 11.333 84 34 134l167 374c8 17.333 20.667 26 38 26h383c12.667 0 19 -4.33301 19 -13c0 -4 -1.33301 -8.33301 -4 -13l-174 -391c-18 -40 -27 -71 -27 -93c0 -36 26.333 -54 79 -54h393
c12 0 18 -4.33301 18 -13c0 -4.66699 -1.33301 -9.33398 -4 -14.001l-28 -64c-8 -18 -20.667 -27 -38 -27h-654z" />
    <glyph glyph-name="M" unicode="M" horiz-adv-x="1419" 
d="M1008 0c-12.667 0 -19.001 4 -19.001 12c0 4 1 9 3 15l114 253l-395 -253c-14.667 -9.33301 -28.167 -16.166 -40.5 -20.499s-23.5 -6.5 -33.5 -6.5h-58c-10 0 -19.833 2.16699 -29.5 6.5s-18.167 11.166 -25.5 20.499l-203 253l-113 -253c-8 -18 -21 -27 -39 -27h-93
c-12.667 0 -19 4 -19 12c0 5.33301 1.33301 10.333 4 15l280 629c8 17.333 21 26 39 26h79c22.667 0 40 -8.66699 52 -26l280 -424l690 424c28 16 55.333 24.667 82 26h80c12 0 18 -4.33301 18 -13c0 -2 -0.166992 -4 -0.5 -6s-1.16602 -4.33301 -2.49902 -7l-281 -629
c-8 -18 -20.667 -27 -38 -27h-331z" />
    <glyph glyph-name="N" unicode="N" horiz-adv-x="1282" 
d="M1146 0c-20 0 -37 1.16699 -51 3.5s-30 7.83301 -48 16.5l-670 310l-134 -303c-8 -18 -20.667 -27 -38 -27h-129c-12.667 0 -19 4 -19 12c0 5.33301 1.33301 10.333 4 15l280 629c8 17.333 21 26 39 26h114c22 0 39.5 -1 52.5 -3s28.167 -7.33301 45.5 -16l621 -297
l130 290c8 17.333 20.667 26 38 26h129c12.667 0 19 -4.33301 19 -13c0 -4 -1.33301 -8.33301 -4 -13l-280 -629c-8 -18 -21 -27 -39 -27h-60z" />
    <glyph glyph-name="O" unicode="O" horiz-adv-x="1220" 
d="M365 0c-34.667 0 -65.3311 5.50391 -91.998 16.5039s-49 26.167 -67 45.5s-31.667 42.166 -41 68.499s-14 54.833 -14 85.5c0 39.333 6.66699 78 20 116s31.833 74.333 55.5 109s51.667 66.667 84 96s67.666 54.666 105.999 75.999s78.833 38.166 121.5 50.499
s86.334 18.5 131.001 18.5h490c35.333 0 66.5 -5.33301 93.5 -16s49.5 -25.5 67.5 -44.5s31.667 -41.5 41 -67.5s14 -54.333 14 -85c0 -39.333 -6.83301 -78.166 -20.5 -116.499s-32.5 -74.833 -56.5 -109.5s-52.333 -66.834 -85 -96.501s-68.334 -55.334 -107.001 -77.001
s-79.334 -38.667 -122.001 -51s-85.667 -18.5 -129 -18.5h-490zM967.003 409.004c10.667 23.333 19.001 43.667 25.001 61s8.66699 32 8 44c0 19.333 -6.83301 32.666 -20.5 39.999s-33.834 11 -60.501 11h-136c-19.333 0 -37.166 -2.5 -53.499 -7.5
s-31.5 -13.5 -45.5 -25.5s-27.5 -28 -40.5 -48s-26.167 -45 -39.5 -75l-48 -109c-25.333 -58 -38 -100.667 -38 -128c0 -19.333 5.66699 -33.166 17 -41.499s27.666 -12.5 48.999 -12.5h137c20.667 0 39.667 3.16699 57 9.5s34 16.5 50 30.5s31.333 32.667 46 56
s29.667 52 45 86z" />
    <glyph glyph-name="P" unicode="P" horiz-adv-x="1167" 
d="M626 241c-12 0 -17.999 4.33301 -17.999 13c0 2 0.166992 4.16699 0.5 6.5s1.16602 4.83301 2.49902 7.5l29 64c8 18 20.667 27 38 27h127c24 0 46.5 3.16699 67.5 9.5s39.167 15.5 54.5 27.5s27.333 26.833 36 44.5s13 37.5 13 59.5c0 21.333 -7.33301 37.5 -22 48.5
s-33.667 16.5 -57 16.5h-214l-239 -538c-8 -18 -21 -27 -39 -27h-343c-12 0 -18 4 -18 12c0 4 1 9 3 15l281 629c8 17.333 20.667 26 38 26h854c50 0 89 -12.333 117 -37s42 -60 42 -106c0 -45.333 -10.667 -86.333 -32 -123s-49.666 -68 -84.999 -94
s-75.833 -46 -121.5 -60s-92.834 -21 -141.501 -21h-373z" />
    <glyph glyph-name="Q" unicode="Q" horiz-adv-x="1212" 
d="M606 -118c-17.333 0 -27.6641 8.6709 -30.9971 26.0039l-18 92h-192c-34.667 0 -65.334 5.5 -92.001 16.5s-49 26.167 -67 45.5s-31.667 42.166 -41 68.499s-14 54.833 -14 85.5c0 39.333 6.66699 78 20 116s31.833 74.333 55.5 109s51.667 66.667 84 96
s67.666 54.666 105.999 75.999s78.833 38.166 121.5 50.499s86.334 18.5 131.001 18.5h481c35.333 0 66.5 -5.33301 93.5 -16s49.5 -25.5 67.5 -44.5s31.667 -41.5 41 -67.5s14 -54.333 14 -85c0 -39.333 -6.83301 -78.166 -20.5 -116.499s-32.5 -74.833 -56.5 -109.5
s-52.333 -66.834 -85 -96.501s-68.334 -55.334 -107.001 -77.001s-79.334 -38.667 -122.001 -51s-85.667 -18.5 -129 -18.5l17 -87c0.666992 -0.666992 1 -1.66699 1 -3v-3c0 -6 -2.33301 -11.667 -7 -17s-11.667 -8 -21 -8h-230zM959.002 409.004
c10.667 23.333 18.665 43.667 23.998 61s8 32 8 44c0 19.333 -6.83301 32.666 -20.5 39.999s-33.834 11 -60.501 11h-127c-19.333 0 -37.166 -2.5 -53.499 -7.5s-31.5 -13.5 -45.5 -25.5s-27.5 -28 -40.5 -48s-26.167 -45 -39.5 -75l-48 -109
c-25.333 -58 -38 -100.667 -38 -128c0 -19.333 5.66699 -33.166 17 -41.499s27.666 -12.5 48.999 -12.5h128c20.667 0 39.834 3.16699 57.501 9.5s34.334 16.5 50.001 30.5s30.834 32.667 45.501 56s29.667 52 45 86z" />
    <glyph glyph-name="R" unicode="R" horiz-adv-x="1263" 
d="M902 0c-28 0 -46.333 9 -55 27l-167 317c-2 3.33301 -3.66699 6.33301 -5 9s-2 6 -2 10s2 10 6 18l11 23c8 17.333 20.667 26 38 26h136c44 0 77 9 99 27s33 39 33 63c0 14 -5.83301 25 -17.5 33s-29.834 12 -54.501 12h-223l-240 -538c-8 -18 -20.667 -27 -38 -27h-343
c-12.667 0 -19 4 -19 12c0 5.33301 1.33301 10.333 4 15l281 629c8 17.333 20.667 26 38 26h874c46.667 0 83.334 -11.167 110.001 -33.5s40 -51.5 40 -87.5c0 -32.667 -7.83301 -63 -23.5 -91s-37 -52.667 -64 -74s-58.667 -39 -95 -53s-74.833 -23.333 -115.5 -28
l151 -283c1.33301 -4 2 -7 2 -9c0 -5.33301 -2.5 -10.5 -7.5 -15.5s-11.5 -7.5 -19.5 -7.5h-334z" />
    <glyph glyph-name="S" unicode="S" horiz-adv-x="1038" 
d="M61 0c-12 0 -18 4 -18 12c0 4 1 9 3 15l29 64c8 18 21 27 39 27h571l-371 214c-30 17.333 -50.5 36 -61.5 56s-16.5 40 -16.5 60c0 28 7.33301 56 22 84s35 53.167 61 75.5s56.667 40.333 92 54s73.666 20.5 114.999 20.5h737c12.667 0 19 -4.33301 19 -13
c0 -4 -1.33301 -8.33301 -4 -13l-28 -64c-8 -18 -21 -27 -39 -27h-554l371 -214c30.667 -17.333 51.334 -36.333 62.001 -57s16 -40.667 16 -60c0 -28 -7.16699 -56 -21.5 -84s-34.5 -53.167 -60.5 -75.5s-56.667 -40.333 -92 -54s-74 -20.5 -116 -20.5h-755z" />
    <glyph glyph-name="T" unicode="T" horiz-adv-x="1036" 
d="M339 0c-10 0 -15 2.33301 -15 7l2 6l245 552h-292c-9.33301 0 -14 2.33301 -14 7v4l41 93c4.66699 8.66699 13 13 25 13h982c9.33301 0 14 -2.33301 14 -7c0 -1.33301 -0.166992 -2.33301 -0.5 -3s-0.5 -1.66699 -0.5 -3l-41 -93c-4 -7.33301 -12 -11 -24 -11h-294
l-245 -552c-4 -8.66699 -12 -13 -24 -13h-359z" />
    <glyph glyph-name="U" unicode="U" horiz-adv-x="1188" 
d="M386 0c-85.333 0 -147.166 13.833 -185.499 41.5s-57.5 66.5 -57.5 116.5c0 43.333 13.667 95.333 41 156l153 342c8 17.333 20.667 26 38 26h373c12.667 0 19 -4.33301 19 -13c0 -4 -1.33301 -8.33301 -4 -13l-152 -342c-20 -44 -30 -81.333 -30 -112
c0 -28 8.5 -49 25.5 -63s43.833 -21 80.5 -21h172c57.333 0 107 17.167 149 51.5s77 82.5 105 144.5l152 342c8 17.333 20.667 26 38 26h121c12 0 18 -4.33301 18 -13c0 -4 -1 -8.33301 -3 -13l-153 -342c-19.333 -44 -44.333 -85 -75 -123s-66.334 -71.333 -107.001 -100
s-86 -51 -136 -67s-104 -24 -162 -24h-420z" />
    <glyph glyph-name="V" unicode="V" 
d="M790 20c-19.333 -13.333 -36.333 -19.998 -51 -19.998h-66c-9.33301 0 -16.666 1.66699 -21.999 5s-9.66602 8.33301 -12.999 15l-338 628c-1.33301 1.33301 -2 3.66602 -2 6.99902c0 7.33301 2 13.666 6 18.999s12.667 8 26 8h411c21.333 0 35.666 -6.66699 42.999 -20
l208 -401l583 401c19.333 13.333 39.666 20 60.999 20h65c8.66699 0 13 -3.66699 13 -11c0 -6 -5.33301 -13.333 -16 -22z" />
    <glyph glyph-name="W" unicode="W" horiz-adv-x="1957" 
d="M1480 20c-17.333 -14.667 -34.332 -21.333 -50.999 -20h-57c-18.667 0 -30.667 6.66699 -36 20l-126 425l-527 -425c-9.33301 -7.33301 -18 -12.5 -26 -15.5s-16 -4.5 -24 -4.5h-58c-18.667 0 -30.667 6.66699 -36 20l-240 628c-0.666992 2 -1 5.33301 -1 10
c0 16 10.333 24 31 24h377c10.667 0 19.667 -1.5 27 -4.5s12.333 -8.16699 15 -15.5l134 -376l470 376c17.333 13.333 37.666 20 60.999 20h62c24 0 38.333 -6.66699 43 -20l120 -401l494 401c15.333 12 35.333 18.667 60 20h44c10 0 15 -3.33301 15 -10
c0 -7.33301 -5 -15 -15 -23z" />
    <glyph glyph-name="X" unicode="X" horiz-adv-x="1295" 
d="M845 0c-22.667 0 -38.999 7.33203 -48.999 21.999l-162 240l-446 -242c-12 -6.66699 -23.667 -11.667 -35 -15s-24 -5 -38 -5h-73c-10 0 -15 3.66699 -15 11c0 3.33301 1.5 7.33301 4.5 12s8.16699 8.66699 15.5 12l542 296l-210 313c-2.66699 2.66699 -4 7 -4 13
c0 6.66699 3.16699 12.5 9.5 17.5s15.166 7.5 26.499 7.5h409c10 0 19.167 -1.83301 27.5 -5.5s15.166 -9.16699 20.499 -16.5l111 -167l309 169c11.333 6 23 10.833 35 14.5s24.667 5.5 38 5.5h77c10 0 15 -3.33301 15 -10c0 -8.66699 -6.66699 -16.667 -20 -24l-409 -223
l262 -387c2 -3.33301 3 -7.66602 3 -12.999c0 -6.66699 -3.16699 -12.5 -9.5 -17.5s-15.166 -7.5 -26.499 -7.5h-408z" />
    <glyph glyph-name="Y" unicode="Y" horiz-adv-x="1139" 
d="M888 271l-108.001 -244.001c-4 -9.33301 -9.5 -16.166 -16.5 -20.499s-14.5 -6.5 -22.5 -6.5h-344c-12 0 -18 4 -18 12c0 4 1 9 3 15l107 238l-188 383c-1.33301 1.33301 -2.16602 3.33301 -2.49902 6s-0.5 4.66699 -0.5 6c0 7.33301 3.33301 12.833 10 16.5
s13 5.5 19 5.5h394c18 0 30 -6.66699 36 -20l136 -292l407 293c10.667 7.33301 19.667 12.333 27 15s16 4 26 4h67c8.66699 0 13 -3.33301 13 -10c0 -6 -4 -12 -12 -18z" />
    <glyph glyph-name="Z" unicode="Z" horiz-adv-x="1083" 
d="M61 0c-12 0 -18 4.00098 -18 12.001c0 4 1 9 3 15l29 64c5.33301 11.333 10.5 20 15.5 26s14.167 13.333 27.5 22l673 426h-458c-12 0 -18 4 -18 12c0 5.33301 1.33301 10.333 4 15l28 64c7.33301 17.333 20.333 26 39 26h933c12.667 0 19 -4.33301 19 -13
c0 -4 -1 -8.33301 -3 -13l-29 -64c-5.33301 -12 -10.833 -21 -16.5 -27s-14.834 -13.333 -27.501 -22l-637 -425h456c11.333 0 17 -4.33301 17 -13c0 -1.33301 -0.166992 -3.33301 -0.5 -6s-1.16602 -5.33398 -2.49902 -8.00098l-29 -64c-8 -18 -20.667 -27 -38 -27h-967z
" />
    <glyph glyph-name="bracketleft" unicode="[" horiz-adv-x="382" 
d="M97 -109c-12 0 -17.999 4.33301 -17.999 13c0 4 1.33301 8.33301 4 13l377 848c7.33301 17.333 19.666 26 36.999 26h170c6 0 9 -2 9 -6l-2 -8l-12 -28c-4 -8.66699 -10.333 -13 -19 -13h-127c-8 0 -13.333 -4.33301 -16 -13l-341 -765l-1.5 -3
c-0.333008 -0.666992 -0.5 -1.66699 -0.5 -3c0 -3.33301 3 -5 9 -5h125c6 0 9 -2.33301 9 -7l-2 -8l-11 -26c-5.33301 -10 -12 -15 -20 -15h-170z" />
    <glyph glyph-name="backslash" unicode="\" horiz-adv-x="639" 
d="M560 -36c-8.66699 0 -14.5 1.00098 -17.5 3.00098s-5.5 6.33301 -7.5 13l-216 704c-1.33301 5.33301 -2 8.66602 -2 9.99902c0 8 3.33301 14 10 18s14 6 22 6h31c8 0 13.667 -1 17 -3s6 -6.33301 8 -13l216 -704c1.33301 -4 2 -7.33301 2 -10c0 -8 -3.33301 -14 -10 -18
s-14 -6 -22 -6h-31z" />
    <glyph glyph-name="bracketright" unicode="]" horiz-adv-x="380" 
d="M19 -109c-6.66699 0 -10.001 2.33398 -10.001 7.00098c0 1.33301 1 4 3 8l11 26c4.66699 10 11.334 15 20.001 15h125c8.66699 0 14.667 3.66699 18 11l341 765l2 8c0 3.33301 -2.33301 5 -7 5h-127c-6.66699 0 -10 2.33301 -10 7l2 6l12 28c5.33301 9.33301 12 14 20 14
h170c12 0 18 -4 18 -12c0 -4.66699 -1.33301 -9.33398 -4 -14.001l-377 -848c-8 -17.333 -20.333 -26 -37 -26h-170z" />
    <glyph glyph-name="asciicircum" unicode="^" horiz-adv-x="535" 
d="M600 371l-12.5 -3.99902c-4.33301 -1.33301 -8.16602 -2 -11.499 -2c-11.333 0 -18 6.66699 -20 20l-24 185l-200 -192c-13.333 -13.333 -26 -20 -38 -20c-3.33301 0 -6.5 0.666992 -9.5 2s-6.16699 2.66602 -9.5 3.99902l-30 23c-6 4 -9 10.333 -9 19
c0 5.33301 1.66699 10.5 5 15.5s7.66602 10.167 12.999 15.5l222 216c19.333 19.333 42.333 29 69 29h52c25.333 0 39.666 -9.66699 42.999 -29l29 -216c0 -12 -2.66699 -21.667 -8 -29s-14.666 -14.333 -27.999 -21z" />
    <glyph glyph-name="underscore" unicode="_" horiz-adv-x="615" 
d="M-48 -150c-9.33301 0 -14 2.33398 -14 7.00098c0 1.33301 0.166992 2.5 0.5 3.5s0.5 2.16699 0.5 3.5l25 57c4 8 12.333 12 25 12h578c8.66699 0 13 -2.33301 13 -7c0 -2.66699 -0.333008 -4.33398 -1 -5.00098l-25 -57c-4 -9.33301 -12.333 -14 -25 -14h-577z" />
    <glyph glyph-name="grave" unicode="`" horiz-adv-x="452" 
d="M722 729c-6 -13.333 -14.668 -20.001 -26.001 -20.001c-6 0 -13 1.66699 -21 5l-225 135c-2.66699 1.33301 -5 3.33301 -7 6s-3 5.66699 -3 9c0 2.66699 1 6 3 10l18 41c6 13.333 14.333 20 25 20c4.66699 -0.666992 9.33398 -1.5 14.001 -2.5s10 -3.16699 16 -6.5
l215 -138c2 -1.33301 4 -3.66602 6 -6.99902s3 -6.66602 3 -9.99902c0 -2.66699 -0.333008 -4.33398 -1 -5.00098z" />
    <glyph glyph-name="a" unicode="a" 
d="M979 0c-20.667 0 -35 6.66797 -43 20.001l-208 401l-441 -303h454c12 0 18 -4.33301 18 -13c0 -4.66699 -1.33301 -9.33398 -4 -14.001l-28 -64c-8 -18 -20.667 -27 -38 -27h-667c-8.66699 0 -13 4 -13 12c0 6 5.33301 13 16 21l908 630c18.667 12.667 35.667 19 51 19
h65c9.33301 0 16.833 -1.66699 22.5 -5s10.167 -8 13.5 -14l338 -628c1.33301 -6.66699 2 -10.667 2 -12c0 -6 -2.5 -11.333 -7.5 -16s-13.167 -7 -24.5 -7h-414z" />
    <glyph glyph-name="b" unicode="b" horiz-adv-x="1199" 
d="M62 0c-12 0 -17.999 4 -17.999 12c0 4 1 9 3 15l281 629c8 17.333 20.667 26 38 26h868c48 0 83.5 -9.33301 106.5 -28s34.5 -45 34.5 -79c0 -31.333 -5.83301 -58 -17.5 -80s-25.667 -40.5 -42 -55.5s-33.333 -27 -51 -36s-32.5 -16.167 -44.5 -21.5
c12.667 -5.33301 24 -17.333 34 -36s15 -42 15 -70c0 -30 -8.33301 -61.333 -25 -94s-40.5 -62.5 -71.5 -89.5s-68.333 -49.167 -112 -66.5s-92.834 -26 -147.501 -26h-851zM649.001 313c-11.333 0 -17.001 4.00195 -17.001 12.002c0 4 1 8.66699 3 14l29 65
c8 17.333 20.667 26 38 26h162c16.667 0 32.667 3 48 9s28.666 13.667 39.999 23s20.5 19.5 27.5 30.5s10.5 21.5 10.5 31.5c0 12 -5 21.833 -15 29.5s-27 11.5 -51 11.5h-251l-199 -447h234c35.333 0 63.833 5.66699 85.5 17s38.334 24.666 50.001 39.999
s19.334 30.666 23.001 45.999s5.5 27.333 5.5 36c0 37.333 -25.667 56 -77 56h-146z" />
    <glyph glyph-name="c" unicode="c" horiz-adv-x="1104" 
d="M364 0c-34 0 -64.1689 5.33691 -90.502 16.0039s-48.666 25.5 -66.999 44.5s-32.166 41.833 -41.499 68.5s-14 55.667 -14 87c0 38.667 6.66699 77.167 20 115.5s31.833 74.666 55.5 108.999s51.667 66.333 84 96s67.666 55.167 105.999 76.5s78.833 38.166 121.5 50.499
s86 18.5 130 18.5h681c12 0 18 -4.33301 18 -13c0 -2 -0.166992 -4 -0.5 -6s-1.16602 -4.33301 -2.49902 -7l-29 -64c-8 -18 -21 -27 -39 -27h-447c-22 0 -41.5 -2.33301 -58.5 -7s-32.833 -13 -47.5 -25s-28.5 -28 -41.5 -48s-26.167 -45.333 -39.5 -76l-48 -109
c-12.667 -28 -22.167 -52.167 -28.5 -72.5s-9.5 -37.833 -9.5 -52.5c0 -20.667 6.33301 -35.334 19 -44.001s31 -13 55 -13h451c12 0 18 -4.33301 18 -13c0 -4.66699 -1.33301 -9.33398 -4 -14.001l-28 -64c-8 -18 -20.667 -27 -38 -27h-685z" />
    <glyph glyph-name="d" unicode="d" horiz-adv-x="1248" 
d="M62 0c-12 0 -18.001 4 -18.001 12c0 4 1 9 3 15l281 629c8 17.333 20.667 26 38 26h804c34.667 0 65.334 -5.33301 92.001 -16s49 -25.5 67 -44.5s31.667 -41.5 41 -67.5s14 -54.333 14 -85c0 -40.667 -7 -80.5 -21 -119.5s-33.167 -75.833 -57.5 -110.5
s-53 -66.667 -86 -96s-68.667 -54.5 -107 -75.5s-78.5 -37.5 -120.5 -49.5s-84 -18 -126 -18h-804zM931.999 409c21.333 48.667 31.999 83.6689 31.999 105.002c0 19.333 -6.66699 32.666 -20 39.999s-32.666 11 -57.999 11h-203l-198 -447h202c20 0 38.667 3.16699 56 9.5
s34 16.666 50 30.999s31.333 33 46 56s29.667 51.5 45 85.5z" />
    <glyph glyph-name="e" unicode="e" horiz-adv-x="1131" 
d="M717 313c-12 0 -18 3.99902 -18 11.999c0 4.66699 1.33301 9.33398 4 14.001l28 65c7.33301 17.333 20.333 26 39 26h477c14 0 21 -3.33301 21 -10l-2 -8l-37 -81c-6 -12 -17.333 -18 -34 -18h-478zM364 -0.000976562c-34 0 -64.168 5.33691 -90.501 16.0039
s-48.666 25.5 -66.999 44.5s-32.166 41.833 -41.499 68.5s-14 55.667 -14 87c0 38.667 6.66699 77.167 20 115.5s31.833 74.666 55.5 108.999s51.667 66.333 84 96s67.666 55.167 105.999 76.5s78.833 38.166 121.5 50.499s86 18.5 130 18.5h699c12 0 18 -4.33301 18 -13
c0 -4 -1 -8.33301 -3 -13l-29 -64c-8 -18 -21 -27 -39 -27h-465c-22 0 -41.5 -2.33301 -58.5 -7s-32.833 -13 -47.5 -25s-28.5 -28 -41.5 -48s-26.167 -45.333 -39.5 -76l-48 -109c-12.667 -28 -22.167 -52.167 -28.5 -72.5s-9.5 -37.833 -9.5 -52.5
c0 -20.667 6.33301 -35.334 19 -44.001s31 -13 55 -13h469c12 0 18 -4.33301 18 -13c0 -4.66699 -1.33301 -9.33398 -4 -14.001l-28 -64c-8 -18 -21 -27 -39 -27h-702z" />
    <glyph glyph-name="f" unicode="f" horiz-adv-x="1105" 
d="M850 565c-43.333 0 -78.998 -11.667 -106.998 -35s-53.333 -60.666 -76 -111.999l-174 -391c-8 -18 -21 -27 -39 -27h-383c-12 0 -18 4 -18 12c0 2.66699 0.166992 5 0.5 7s1.16602 4.66699 2.49902 8l167 373c18 41.333 40.667 79.166 68 113.499s58.666 64 93.999 89
s74.5 44.5 117.5 58.5s89.167 21 138.5 21h726c12.667 0 19 -4.33301 19 -13c0 -4 -1 -8.33301 -3 -13l-29 -64c-8 -18 -21 -27 -39 -27h-465zM718.002 313c-12 0 -18 3.99707 -18 11.9971c0 4.66699 1.33301 9.33398 4 14.001l28 65c7.33301 17.333 20.333 26 39 26h479
c13.333 0 20 -3.33301 20 -10c0 -1.33301 -0.166992 -2.66602 -0.5 -3.99902s-0.5 -2.66602 -0.5 -3.99902l-37 -81c-6 -12 -17.667 -18 -35 -18h-479z" />
    <glyph glyph-name="g" unicode="g" horiz-adv-x="1172" 
d="M364 0c-34 0 -64.168 5.33594 -90.501 16.0029s-48.666 25.5 -66.999 44.5s-32.166 41.833 -41.499 68.5s-14 55.667 -14 87c0 38.667 6.66699 77.167 20 115.5s31.833 74.666 55.5 108.999s51.667 66.333 84 96s67.666 55.167 105.999 76.5s78.833 38.166 121.5 50.499
s86 18.5 130 18.5h697c12.667 0 19 -4.33301 19 -13c0 -4 -1.33301 -8.33301 -4 -13l-29 -64c-8 -18 -21 -27 -39 -27h-463c-22 0 -41.5 -2.33301 -58.5 -7s-32.833 -13 -47.5 -25s-28.5 -28 -41.5 -48s-26.167 -45.333 -39.5 -76l-48 -109
c-12.667 -28 -22.167 -52.167 -28.5 -72.5s-9.5 -37.833 -9.5 -52.5c0 -20.667 6.33301 -35.334 19 -44.001s31 -13 55 -13h178l136 306c8 18 20.333 27 37 27h286c12.667 0 19 -4.66699 19 -14c0 -4 -1.33301 -8.33301 -4 -13l-177 -397c-8 -18 -20.667 -27 -38 -27h-723z
" />
    <glyph glyph-name="h" unicode="h" horiz-adv-x="1200" 
d="M777 0c-12.667 0 -19 4 -19 12c0 5.33301 1.33301 10.333 4 15l127 286h-300l-128 -286c-8 -18 -20.333 -27 -37 -27h-344c-12.667 0 -19 4 -19 12c0 5.33301 1.33301 10.333 4 15l281 629c8 17.333 20.667 26 38 26h344c12 0 18 -4.33301 18 -13
c0 -4 -1.33301 -8.33301 -4 -13l-101 -226h301l100 226c7.33301 17.333 20.333 26 39 26h343c12 0 18 -4.33301 18 -13c0 -4 -1 -8.33301 -3 -13l-281 -629c-8 -18 -20.333 -27 -37 -27h-344z" />
    <glyph glyph-name="i" unicode="i" horiz-adv-x="513" 
d="M84 0c-12 0 -18 4 -18 12c0 4 1 9 3 15l281 629c8 17.333 20.667 26 38 26h344c12.667 0 19 -4.33301 19 -13c0 -4 -1.33301 -8.33301 -4 -13l-280 -629c-8 -18 -20.667 -27 -38 -27h-345z" />
    <glyph glyph-name="j" unicode="j" horiz-adv-x="947" 
d="M37 0c-12 0 -18 3.99902 -18 11.999c0 4 1 9 3 15l29 64c8 18 21 27 39 27h311c42.667 0 78 11.5 106 34.5s53.667 60.5 77 112.5l174 391c8 17.333 20.667 26 38 26h383c12.667 0 19 -4.33301 19 -13c0 -4 -1 -8.33301 -3 -13l-167 -374
c-18 -41.333 -40.667 -79.166 -68 -113.499s-58.833 -64 -94.5 -89s-75 -44.5 -118 -58.5s-89.167 -21 -138.5 -21h-572z" />
    <glyph glyph-name="k" unicode="k" horiz-adv-x="1302" 
d="M926 0c-14 0 -24.9971 2.16602 -32.9971 6.49902s-15.667 11.166 -23 20.499l-209 297c-4 6 -6 12 -6 18c0 4 0.666992 8.33301 2 13s3.66602 10.334 6.99902 17.001l12 29c5.33301 11.333 10.666 19.666 15.999 24.999s12.666 10.333 21.999 15l487 215
c17.333 7.33301 34 13.5 50 18.5s32 7.5 48 7.5h211c9.33301 0 14 -3.66699 14 -11c0 -3.33301 -1.5 -7.16602 -4.5 -11.499s-8.16699 -8.16602 -15.5 -11.499l-500 -219l298 -384c3.33301 -4.66699 5 -10 5 -16c0 -8 -3.33301 -14.833 -10 -20.5s-16.667 -8.5 -30 -8.5
h-341zM79.0029 -0.000976562c-12 0 -18 4 -18 12c0 5.33301 1.33301 10.333 4 15l281 629c8 17.333 20.333 26 37 26h344c12.667 0 19 -4.33301 19 -13c0 -4 -1.33301 -8.33301 -4 -13l-281 -629c-8 -18 -20.667 -27 -38 -27h-344z" />
    <glyph glyph-name="l" unicode="l" horiz-adv-x="1026" 
d="M338 0c-70.667 0 -122 13.168 -154 39.501s-48 62.5 -48 108.5c0 39.333 11.333 84 34 134l167 374c8 17.333 20.667 26 38 26h383c12.667 0 19 -4.33301 19 -13c0 -4 -1.33301 -8.33301 -4 -13l-174 -391c-18 -40 -27 -71 -27 -93c0 -36 26.333 -54 79 -54h393
c12 0 18 -4.33301 18 -13c0 -4.66699 -1.33301 -9.33398 -4 -14.001l-28 -64c-8 -18 -20.667 -27 -38 -27h-654z" />
    <glyph glyph-name="m" unicode="m" horiz-adv-x="1419" 
d="M1008 0c-12.667 0 -19.001 4 -19.001 12c0 4 1 9 3 15l114 253l-395 -253c-14.667 -9.33301 -28.167 -16.166 -40.5 -20.499s-23.5 -6.5 -33.5 -6.5h-58c-10 0 -19.833 2.16699 -29.5 6.5s-18.167 11.166 -25.5 20.499l-203 253l-113 -253c-8 -18 -21 -27 -39 -27h-93
c-12.667 0 -19 4 -19 12c0 5.33301 1.33301 10.333 4 15l280 629c8 17.333 21 26 39 26h79c22.667 0 40 -8.66699 52 -26l280 -424l690 424c28 16 55.333 24.667 82 26h80c12 0 18 -4.33301 18 -13c0 -2 -0.166992 -4 -0.5 -6s-1.16602 -4.33301 -2.49902 -7l-281 -629
c-8 -18 -20.667 -27 -38 -27h-331z" />
    <glyph glyph-name="n" unicode="n" horiz-adv-x="1282" 
d="M1146 0c-20 0 -37 1.16699 -51 3.5s-30 7.83301 -48 16.5l-670 310l-134 -303c-8 -18 -20.667 -27 -38 -27h-129c-12.667 0 -19 4 -19 12c0 5.33301 1.33301 10.333 4 15l280 629c8 17.333 21 26 39 26h114c22 0 39.5 -1 52.5 -3s28.167 -7.33301 45.5 -16l621 -297
l130 290c8 17.333 20.667 26 38 26h129c12.667 0 19 -4.33301 19 -13c0 -4 -1.33301 -8.33301 -4 -13l-280 -629c-8 -18 -21 -27 -39 -27h-60z" />
    <glyph glyph-name="o" unicode="o" horiz-adv-x="1220" 
d="M365 0c-34.667 0 -65.3311 5.50391 -91.998 16.5039s-49 26.167 -67 45.5s-31.667 42.166 -41 68.499s-14 54.833 -14 85.5c0 39.333 6.66699 78 20 116s31.833 74.333 55.5 109s51.667 66.667 84 96s67.666 54.666 105.999 75.999s78.833 38.166 121.5 50.499
s86.334 18.5 131.001 18.5h490c35.333 0 66.5 -5.33301 93.5 -16s49.5 -25.5 67.5 -44.5s31.667 -41.5 41 -67.5s14 -54.333 14 -85c0 -39.333 -6.83301 -78.166 -20.5 -116.499s-32.5 -74.833 -56.5 -109.5s-52.333 -66.834 -85 -96.501s-68.334 -55.334 -107.001 -77.001
s-79.334 -38.667 -122.001 -51s-85.667 -18.5 -129 -18.5h-490zM967.003 409.004c10.667 23.333 19.001 43.667 25.001 61s8.66699 32 8 44c0 19.333 -6.83301 32.666 -20.5 39.999s-33.834 11 -60.501 11h-136c-19.333 0 -37.166 -2.5 -53.499 -7.5
s-31.5 -13.5 -45.5 -25.5s-27.5 -28 -40.5 -48s-26.167 -45 -39.5 -75l-48 -109c-25.333 -58 -38 -100.667 -38 -128c0 -19.333 5.66699 -33.166 17 -41.499s27.666 -12.5 48.999 -12.5h137c20.667 0 39.667 3.16699 57 9.5s34 16.5 50 30.5s31.333 32.667 46 56
s29.667 52 45 86z" />
    <glyph glyph-name="p" unicode="p" horiz-adv-x="1167" 
d="M626 241c-12 0 -17.999 4.33301 -17.999 13c0 2 0.166992 4.16699 0.5 6.5s1.16602 4.83301 2.49902 7.5l29 64c8 18 20.667 27 38 27h127c24 0 46.5 3.16699 67.5 9.5s39.167 15.5 54.5 27.5s27.333 26.833 36 44.5s13 37.5 13 59.5c0 21.333 -7.33301 37.5 -22 48.5
s-33.667 16.5 -57 16.5h-214l-239 -538c-8 -18 -21 -27 -39 -27h-343c-12 0 -18 4 -18 12c0 4 1 9 3 15l281 629c8 17.333 20.667 26 38 26h854c50 0 89 -12.333 117 -37s42 -60 42 -106c0 -45.333 -10.667 -86.333 -32 -123s-49.666 -68 -84.999 -94
s-75.833 -46 -121.5 -60s-92.834 -21 -141.501 -21h-373z" />
    <glyph glyph-name="q" unicode="q" horiz-adv-x="1212" 
d="M606 -118c-17.333 0 -27.6641 8.6709 -30.9971 26.0039l-18 92h-192c-34.667 0 -65.334 5.5 -92.001 16.5s-49 26.167 -67 45.5s-31.667 42.166 -41 68.499s-14 54.833 -14 85.5c0 39.333 6.66699 78 20 116s31.833 74.333 55.5 109s51.667 66.667 84 96
s67.666 54.666 105.999 75.999s78.833 38.166 121.5 50.499s86.334 18.5 131.001 18.5h481c35.333 0 66.5 -5.33301 93.5 -16s49.5 -25.5 67.5 -44.5s31.667 -41.5 41 -67.5s14 -54.333 14 -85c0 -39.333 -6.83301 -78.166 -20.5 -116.499s-32.5 -74.833 -56.5 -109.5
s-52.333 -66.834 -85 -96.501s-68.334 -55.334 -107.001 -77.001s-79.334 -38.667 -122.001 -51s-85.667 -18.5 -129 -18.5l17 -87c0.666992 -0.666992 1 -1.66699 1 -3v-3c0 -6 -2.33301 -11.667 -7 -17s-11.667 -8 -21 -8h-230zM959.002 409.004
c10.667 23.333 18.665 43.667 23.998 61s8 32 8 44c0 19.333 -6.83301 32.666 -20.5 39.999s-33.834 11 -60.501 11h-127c-19.333 0 -37.166 -2.5 -53.499 -7.5s-31.5 -13.5 -45.5 -25.5s-27.5 -28 -40.5 -48s-26.167 -45 -39.5 -75l-48 -109
c-25.333 -58 -38 -100.667 -38 -128c0 -19.333 5.66699 -33.166 17 -41.499s27.666 -12.5 48.999 -12.5h128c20.667 0 39.834 3.16699 57.501 9.5s34.334 16.5 50.001 30.5s30.834 32.667 45.501 56s29.667 52 45 86z" />
    <glyph glyph-name="r" unicode="r" horiz-adv-x="1263" 
d="M902 0c-28 0 -46.333 9 -55 27l-167 317c-2 3.33301 -3.66699 6.33301 -5 9s-2 6 -2 10s2 10 6 18l11 23c8 17.333 20.667 26 38 26h136c44 0 77 9 99 27s33 39 33 63c0 14 -5.83301 25 -17.5 33s-29.834 12 -54.501 12h-223l-240 -538c-8 -18 -20.667 -27 -38 -27h-343
c-12.667 0 -19 4 -19 12c0 5.33301 1.33301 10.333 4 15l281 629c8 17.333 20.667 26 38 26h874c46.667 0 83.334 -11.167 110.001 -33.5s40 -51.5 40 -87.5c0 -32.667 -7.83301 -63 -23.5 -91s-37 -52.667 -64 -74s-58.667 -39 -95 -53s-74.833 -23.333 -115.5 -28
l151 -283c1.33301 -4 2 -7 2 -9c0 -5.33301 -2.5 -10.5 -7.5 -15.5s-11.5 -7.5 -19.5 -7.5h-334z" />
    <glyph glyph-name="s" unicode="s" horiz-adv-x="1038" 
d="M61 0c-12 0 -18 4 -18 12c0 4 1 9 3 15l29 64c8 18 21 27 39 27h571l-371 214c-30 17.333 -50.5 36 -61.5 56s-16.5 40 -16.5 60c0 28 7.33301 56 22 84s35 53.167 61 75.5s56.667 40.333 92 54s73.666 20.5 114.999 20.5h737c12.667 0 19 -4.33301 19 -13
c0 -4 -1.33301 -8.33301 -4 -13l-28 -64c-8 -18 -21 -27 -39 -27h-554l371 -214c30.667 -17.333 51.334 -36.333 62.001 -57s16 -40.667 16 -60c0 -28 -7.16699 -56 -21.5 -84s-34.5 -53.167 -60.5 -75.5s-56.667 -40.333 -92 -54s-74 -20.5 -116 -20.5h-755z" />
    <glyph glyph-name="t" unicode="t" horiz-adv-x="1036" 
d="M339 0c-10 0 -15 2.33301 -15 7l2 6l245 552h-292c-9.33301 0 -14 2.33301 -14 7v4l41 93c4.66699 8.66699 13 13 25 13h982c9.33301 0 14 -2.33301 14 -7c0 -1.33301 -0.166992 -2.33301 -0.5 -3s-0.5 -1.66699 -0.5 -3l-41 -93c-4 -7.33301 -12 -11 -24 -11h-294
l-245 -552c-4 -8.66699 -12 -13 -24 -13h-359z" />
    <glyph glyph-name="u" unicode="u" horiz-adv-x="1188" 
d="M386 0c-85.333 0 -147.166 13.833 -185.499 41.5s-57.5 66.5 -57.5 116.5c0 43.333 13.667 95.333 41 156l153 342c8 17.333 20.667 26 38 26h373c12.667 0 19 -4.33301 19 -13c0 -4 -1.33301 -8.33301 -4 -13l-152 -342c-20 -44 -30 -81.333 -30 -112
c0 -28 8.5 -49 25.5 -63s43.833 -21 80.5 -21h172c57.333 0 107 17.167 149 51.5s77 82.5 105 144.5l152 342c8 17.333 20.667 26 38 26h121c12 0 18 -4.33301 18 -13c0 -4 -1 -8.33301 -3 -13l-153 -342c-19.333 -44 -44.333 -85 -75 -123s-66.334 -71.333 -107.001 -100
s-86 -51 -136 -67s-104 -24 -162 -24h-420z" />
    <glyph glyph-name="v" unicode="v" 
d="M790 20c-19.333 -13.333 -36.333 -19.998 -51 -19.998h-66c-9.33301 0 -16.666 1.66699 -21.999 5s-9.66602 8.33301 -12.999 15l-338 628c-1.33301 1.33301 -2 3.66602 -2 6.99902c0 7.33301 2 13.666 6 18.999s12.667 8 26 8h411c21.333 0 35.666 -6.66699 42.999 -20
l208 -401l583 401c19.333 13.333 39.666 20 60.999 20h65c8.66699 0 13 -3.66699 13 -11c0 -6 -5.33301 -13.333 -16 -22z" />
    <glyph glyph-name="w" unicode="w" horiz-adv-x="1957" 
d="M1480 20c-17.333 -14.667 -34.332 -21.333 -50.999 -20h-57c-18.667 0 -30.667 6.66699 -36 20l-126 425l-527 -425c-9.33301 -7.33301 -18 -12.5 -26 -15.5s-16 -4.5 -24 -4.5h-58c-18.667 0 -30.667 6.66699 -36 20l-240 628c-0.666992 2 -1 5.33301 -1 10
c0 16 10.333 24 31 24h377c10.667 0 19.667 -1.5 27 -4.5s12.333 -8.16699 15 -15.5l134 -376l470 376c17.333 13.333 37.666 20 60.999 20h62c24 0 38.333 -6.66699 43 -20l120 -401l494 401c15.333 12 35.333 18.667 60 20h44c10 0 15 -3.33301 15 -10
c0 -7.33301 -5 -15 -15 -23z" />
    <glyph glyph-name="x" unicode="x" horiz-adv-x="1295" 
d="M845 0c-22.667 0 -38.999 7.33203 -48.999 21.999l-162 240l-446 -242c-12 -6.66699 -23.667 -11.667 -35 -15s-24 -5 -38 -5h-73c-10 0 -15 3.66699 -15 11c0 3.33301 1.5 7.33301 4.5 12s8.16699 8.66699 15.5 12l542 296l-210 313c-2.66699 2.66699 -4 7 -4 13
c0 6.66699 3.16699 12.5 9.5 17.5s15.166 7.5 26.499 7.5h409c10 0 19.167 -1.83301 27.5 -5.5s15.166 -9.16699 20.499 -16.5l111 -167l309 169c11.333 6 23 10.833 35 14.5s24.667 5.5 38 5.5h77c10 0 15 -3.33301 15 -10c0 -8.66699 -6.66699 -16.667 -20 -24l-409 -223
l262 -387c2 -3.33301 3 -7.66602 3 -12.999c0 -6.66699 -3.16699 -12.5 -9.5 -17.5s-15.166 -7.5 -26.499 -7.5h-408z" />
    <glyph glyph-name="y" unicode="y" horiz-adv-x="1139" 
d="M888 271l-108.001 -244.001c-4 -9.33301 -9.5 -16.166 -16.5 -20.499s-14.5 -6.5 -22.5 -6.5h-344c-12 0 -18 4 -18 12c0 4 1 9 3 15l107 238l-188 383c-1.33301 1.33301 -2.16602 3.33301 -2.49902 6s-0.5 4.66699 -0.5 6c0 7.33301 3.33301 12.833 10 16.5
s13 5.5 19 5.5h394c18 0 30 -6.66699 36 -20l136 -292l407 293c10.667 7.33301 19.667 12.333 27 15s16 4 26 4h67c8.66699 0 13 -3.33301 13 -10c0 -6 -4 -12 -12 -18z" />
    <glyph glyph-name="z" unicode="z" horiz-adv-x="1083" 
d="M61 0c-12 0 -18 4.00098 -18 12.001c0 4 1 9 3 15l29 64c5.33301 11.333 10.5 20 15.5 26s14.167 13.333 27.5 22l673 426h-458c-12 0 -18 4 -18 12c0 5.33301 1.33301 10.333 4 15l28 64c7.33301 17.333 20.333 26 39 26h933c12.667 0 19 -4.33301 19 -13
c0 -4 -1 -8.33301 -3 -13l-29 -64c-5.33301 -12 -10.833 -21 -16.5 -27s-14.834 -13.333 -27.501 -22l-637 -425h456c11.333 0 17 -4.33301 17 -13c0 -1.33301 -0.166992 -3.33301 -0.5 -6s-1.16602 -5.33398 -2.49902 -8.00098l-29 -64c-8 -18 -20.667 -27 -38 -27h-967z
" />
    <glyph glyph-name="braceleft" unicode="{" horiz-adv-x="403" 
d="M213 -109c-8.66699 0 -14.667 2.66504 -18 7.99805l-38 66l-2 6c0 3.33301 1 7 3 11l150 338l-10 15h-31c-6 0 -9 2 -9 6c0 2 1 4.66699 3 8l10 23c4 10 10.333 15 19 15h31l24 15l133 298c2.66699 8 7 13.667 13 17l97 66c9.33301 5.33301 17.666 8 24.999 8h74
c6.66699 0 10 -2.33301 10 -7c0 0.666992 -0.666992 -1.66602 -2 -6.99902l-13 -28c-2.66699 -8.66699 -9 -13 -19 -13h-62c-4.66699 0 -8.66699 -1.66699 -12 -5l-54 -36c-4 -4 -6.33301 -7 -7 -9l-125 -282c-2.66699 -6.66699 -7.66699 -12 -15 -16l-39 -27l15 -27l2 -8
c0 -1.33301 -0.166992 -2.66602 -0.5 -3.99902s-0.833008 -3 -1.5 -5l-143 -321c-1.33301 -1.33301 -2 -3 -2 -5s0.666992 -3 2 -3l20 -37c0.666992 -2.66699 3.33398 -4 8.00098 -4h62c7.33301 0 11 -2.66699 11 -8c-0.666992 -0.666992 -1 -1.33398 -1 -2.00098
s-0.166992 -1.16699 -0.5 -1.5s-0.5 -1.16602 -0.5 -2.49902l-13 -27c-4 -10 -10.667 -15 -20 -15h-74z" />
    <glyph glyph-name="bar" unicode="|" horiz-adv-x="282" 
d="M87 -89c-8.66699 0 -13 3.33398 -13 10.001c0 2.66699 1 6 3 10l364 820c6 13.333 16 20 30 20h28c8.66699 0 13 -3 13 -9c0 -0.666992 -0.666992 -4.33398 -2 -11.001l-365 -820c-6 -13.333 -16 -20 -30 -20h-28z" />
    <glyph glyph-name="braceright" unicode="}" horiz-adv-x="383" 
d="M118 -101c-9.33301 -5.33301 -17.333 -7.99609 -24 -7.99609h-74c-6.66699 0 -10 2.33301 -10 7c0 1.33301 0.666992 4 2 8l12 27c4 9.33301 10.667 14 20 14h61c6 0 10.333 1.33301 13 4l53 37c2 1.33301 3.33301 2.66602 4 3.99902s1.66699 2.66602 3 3.99902l144 321
c3.33301 8 8 13.667 14 17l38 27l-14 27c-1.33301 1.33301 -2 4.66602 -2 9.99902c0 2.66699 0.666992 4.66699 2 6l126 282v9l-20 36c-2 3.33301 -5 5 -9 5h-61c-7.33301 0 -11 2.33301 -11 7l2 6l12 28c5.33301 9.33301 12.333 14 21 14h74c9.33301 0 15 -2.66699 17 -8
l39 -66c0.666992 -0.666992 1 -3 1 -7c0 -2.66699 -0.666992 -6 -2 -10l-133 -298l10 -15h30c6 0 9 -2.33301 9 -7l-2 -8l-10 -23c-4 -9.33301 -10.667 -14 -20 -14h-30l-23 -15l-151 -338c-2.66699 -6.66699 -7 -12.334 -13 -17.001z" />
    <glyph glyph-name="asciitilde" unicode="~" horiz-adv-x="522" 
d="M488 290c-6 -2.66699 -13.332 -4 -21.999 -4c-2 0 -6.33301 0.666992 -13 2l-106 31c-4 1.33301 -7.66699 2 -11 2c-2 0 -3.83301 -0.166992 -5.5 -0.5s-3.83398 -0.833008 -6.50098 -1.5l-119 -37c-6 -2.66699 -12 -4 -18 -4c-4 0 -6 1.66699 -6 5
c0 2.66699 1 5.66699 3 9l24 56c2 6.66699 6.66699 11 14 13l117 33c6.66699 2 14 3 22 3c2 0 4 -0.166992 6 -0.5s4 -0.5 6 -0.5l105 -32c2 -0.666992 6 -1 12 -1s10 0.333008 12 1l120 38c4.66699 2 10.667 3 18 3c3.33301 0 5 -1.33301 5 -4s-1 -6 -3 -10l-25 -56
c-2 -6.66699 -6.66699 -11 -14 -13z" />
    <glyph glyph-name="nonbreakingspace" unicode="&#xa0;" horiz-adv-x="353" 
 />
    <glyph glyph-name="exclamdown" unicode="&#xa1;" horiz-adv-x="412" 
d="M589.008 682c20.665 0 30.998 -7 30.998 -20.999c0 -6.66602 -2 -14.665 -6 -23.998l-63.9961 -143.991c-13.332 -29.3311 -34.9971 -43.9971 -64.9961 -43.9971h-158.99c-20.665 0 -30.998 6.99902 -30.998 20.998c0 6.66699 2.33301 14.333 7 22.999l63.9961 143.991
c13.333 29.998 34.665 44.9971 63.9961 44.9971h158.99zM458.016 396.018c13.999 0 20.998 -5.33301 20.998 -15.999c0 -2 -0.166992 -3.66699 -0.5 -5l-1.5 -5.99902l-102.994 -330.98c-6.66602 -25.3311 -21.665 -37.9971 -44.9971 -37.9971h-248.984
c-12.666 0 -18.999 5 -18.999 14.999c0 6.66602 1.33301 11.499 4 14.499c2.66602 2.99902 4.66602 5.83203 5.99902 8.49902l191.988 330.98c11.333 17.999 25.666 26.998 42.999 26.998h151.99z" />
    <glyph glyph-name="cent" unicode="&#xa2;" horiz-adv-x="629" 
d="M465 118l-41.001 -91.0039c-8 -18 -20.667 -27 -38 -27h-60c-12 0 -18 4 -18 12c0 5.33301 1.33301 10.333 4 15l41 91h-47c-46 0 -81 12.833 -105 38.5s-36 59.5 -36 101.5c0 38.667 9.5 76.334 28.5 113.001s44.333 69.334 76 98.001s67.834 51.834 108.501 69.501
s82.667 26.5 126 26.5h47l41 91c8 17.333 20.667 26 38 26h60c12 0 18 -4.33301 18 -13c0 -4 -1 -8.33301 -3 -13l-41 -91h153c12 0 18 -4.66699 18 -14c0 -4 -1.33301 -8.33301 -4 -13l-11 -24c-8 -18 -20.333 -27 -37 -27h-188c-14.667 0 -27.667 -1.5 -39 -4.5
s-21.666 -8.16699 -30.999 -15.5s-18.333 -17.666 -27 -30.999s-17.334 -30 -26.001 -50l-32 -72c-16 -36 -24 -63 -24 -81c0 -25.333 16.333 -38 49 -38h190c12 0 18 -4 18 -12c0 -5.33301 -1.33301 -10.333 -4 -15l-11 -24c-8 -17.333 -20.667 -26 -38 -26h-155z" />
    <glyph glyph-name="yen" unicode="&#xa5;" horiz-adv-x="841" 
d="M632 151l-57.001 -124.001c-8 -18 -18.333 -27 -31 -27h-252c-8 0 -12 3.66699 -12 11c0 5.33301 1.33301 10.666 4 15.999l56 124h-182c-12.667 0 -19 4.33301 -19 13c0 4.66699 1.33301 9.33398 4 14.001l12 29c7.33301 17.333 20.333 26 39 26h183l30 70h-183
c-11.333 0 -17 4 -17 12c0 4 1 9 3 15l13 28c8 18 20.667 27 38 27h137l-64 263c-1.33301 4 -2 7 -2 9c0 8 3 14.167 9 18.5s11.333 6.5 16 6.5h289c12.667 0 20.667 -6.66699 24 -20l51 -231l266 232c9.33301 7.33301 16.833 12.333 22.5 15s12.167 4 19.5 4h58
c6.66699 0 10 -3 10 -9c0 -3.33301 -1.33301 -6.66602 -4 -9.99902s-5.66699 -6.33301 -9 -9l-307 -269h148c12 0 18 -4.66699 18 -14c0 -1.33301 -0.166992 -3.16602 -0.5 -5.49902s-1.16602 -4.83301 -2.49902 -7.5l-13 -28c-8 -18 -21 -27 -39 -27h-190l-30 -70h190
c12 0 18 -4 18 -12c0 -4.66699 -1.33301 -9.33398 -4 -14.001l-12 -29c-8 -18 -21 -27 -39 -27h-189z" />
    <glyph glyph-name="brokenbar" unicode="&#xa6;" horiz-adv-x="282" 
d="M87 -89c-9.33301 0 -13.999 3.33301 -13.999 10c0 2.66699 1 6 3 10l140 317c7.33301 13.333 17.666 20 30.999 20h27c9.33301 0 14 -3.33301 14 -10c0 -2.66699 -1 -6 -3 -10l-141 -317c-6 -13.333 -15.667 -20 -29 -20h-28zM312.001 414c-9.33301 0 -14 3.33301 -14 10
c0 3.33301 0.666992 7 2 11l141 316c6 13.333 15.667 20 29 20h28c9.33301 0 14 -3.33301 14 -10l-2 -10l-141 -316c-6 -14 -16 -21 -30 -21h-27z" />
    <glyph glyph-name="dieresis" unicode="&#xa8;" horiz-adv-x="487" 
d="M404 742c-10 0 -15 3.33301 -15 10c0 2 1 5 3 9l59 131c4.66699 12 13.667 18 27 18h98c10.667 0 16 -3.66699 16 -11c0 -0.666992 -0.666992 -3 -2 -7l-59 -131c-6 -12.667 -15.667 -19 -29 -19h-98zM646 742c-9.33301 0 -14 3.33398 -14 10.001
c0 1.33301 0.166992 2.66602 0.5 3.99902s0.833008 3 1.5 5l59 131c4.66699 12 14 18 28 18h98c9.33301 0 14 -3.33301 14 -10c0 -1.33301 -0.666992 -4 -2 -8l-59 -131c-6 -12.667 -15.333 -19 -28 -19h-98z" />
    <glyph glyph-name="ordfeminine" unicode="&#xaa;" horiz-adv-x="835" 
d="M681 267c-12 0 -20.002 3.99902 -24.002 11.999l-114 220l-243 -167h251c5.33301 0 8 -2.33301 8 -7c0 -3.33301 -0.333008 -6 -1 -8l-16 -35c-5.33301 -10 -12.333 -15 -21 -15h-363c-4.66699 0 -7 2 -7 6c0 0.666992 0.5 2.33398 1.5 5.00098s3.16699 5 6.5 7l499 347
c10.667 6.66699 20.334 10 29.001 10h35c10.667 0 17.334 -3.33301 20.001 -10l185 -346c1.33301 -1.33301 2 -3.33301 2 -6c0 -8.66699 -6 -13 -18 -13h-230z" />
    <glyph glyph-name="guillemotleft" unicode="&#xab;" horiz-adv-x="564" 
d="M328 193c-11.333 -9.33301 -21.002 -14.001 -29.002 -14.001c-4.66699 0 -8.66699 1.66699 -12 5l-117 91c-6 4.66699 -9 11 -9 19c0 6.66699 2 14 6 22l17 38c4 9.33301 9 17.333 15 24s14 12.334 24 17.001l198 91c8.66699 3.33301 14.334 5 17.001 5
c4 0 7.5 -1.16699 10.5 -3.5s4.5 -5.83301 4.5 -10.5l4 -32c0 -8 -1.66699 -14.833 -5 -20.5s-10.666 -11.167 -21.999 -16.5l-177 -81l100 -78c4.66699 -4 7 -9 7 -15c0 -4 -1.33301 -7.83301 -4 -11.5s-5.66699 -7.16699 -9 -10.5zM603.998 192.999
c-5.33301 -5.33301 -10.5 -8.83301 -15.5 -10.5s-9.5 -2.83398 -13.5 -3.50098c-2.66699 0 -6.66699 1.66699 -12 5l-117 91c-6 4.66699 -9 11 -9 19c0 6.66699 2 14 6 22l17 38c4 9.33301 9 17.333 15 24s14 12.334 24 17.001l199 91c8 3.33301 13.333 5 16 5
c9.33301 0 14.666 -4.66699 15.999 -14l3 -32c0 -8 -1.66699 -14.833 -5 -20.5s-10.666 -11.167 -21.999 -16.5l-177 -81l100 -78c4.66699 -4 7 -9 7 -15c0 -4 -1.33301 -7.83301 -4 -11.5s-5.66699 -7.16699 -9 -10.5z" />
    <glyph glyph-name="macron" unicode="&#xaf;" horiz-adv-x="474" 
d="M412 763c-9.33301 0 -14 3 -14 9c0 2.66699 1 5.66699 3 9l26 56c3.33301 6 6.83301 10.667 10.5 14s9.16699 5 16.5 5h328c9.33301 0 14 -3.66699 14 -11l-2 -8l-26 -56c-6 -12 -15.333 -18 -28 -18h-328z" />
    <glyph glyph-name="degree" unicode="&#xb0;" horiz-adv-x="397" 
d="M541 615h-137l-85 -190h137zM256 357c-19.333 0 -28.999 7.66699 -28.999 23c0 8 2.66699 17.667 8 29l99 222c14.667 34 36.667 51 66 51h205c18.667 0 28 -7 28 -21c0 -4 -0.833008 -8.5 -2.5 -13.5s-3.83398 -10.5 -6.50098 -16.5l-98 -222
c-16 -34.667 -37.667 -52 -65 -52h-205z" />
    <glyph glyph-name="plusminus" unicode="&#xb1;" horiz-adv-x="747" 
d="M548 301l-112 -253.002c-8 -18 -21 -27 -39 -27h-28c-12.667 0 -19 4.33301 -19 13c0 4.66699 1.33301 9.33398 4 14.001l112 253h-252c-12 0 -18 4.33301 -18 13c0 4.66699 1.33301 9.33398 4 14.001l12 28c8 18 20.667 27 38 27h252l113 252c8 18 21 27 39 27h28
c12 0 18 -4.33301 18 -13c0 -3.33301 -1 -8 -3 -14l-113 -252h253c12.667 0 19 -4.33301 19 -13c0 -3.33301 -1 -8 -3 -14l-13 -28c-8 -18 -21 -27 -39 -27h-253zM25 -125.002c-12.667 0 -18.998 4.33105 -18.998 12.998c0 4.66699 1.33301 9.33398 4 14.001l13 28
c8 18 20.667 27 38 27h587c12.667 0 19 -4.33301 19 -13c0 -2 -0.333008 -4 -1 -6s-1.33398 -4.66699 -2.00098 -8l-14 -28c-4.66699 -9.33301 -9.83398 -16.166 -15.501 -20.499s-13.167 -6.5 -22.5 -6.5h-587z" />
    <glyph glyph-name="twosuperior" unicode="&#xb2;" horiz-adv-x="568" 
d="M215 365c-6.66699 0 -10 2.00391 -10 6.00391c0 2.66699 1 5 3 7l29 66c11.333 25.333 23.333 46 36 62s28.834 28.5 48.501 37.5s44.334 15 74.001 18s67.167 4.5 112.5 4.5h52c6.66699 0 13.834 1.5 21.501 4.5s14.667 7.16699 21 12.5s11.666 11.666 15.999 18.999
s6.5 15.666 6.5 24.999c0 13.333 -10 20 -30 20h-241c-6.66699 0 -10 2.33301 -10 7c0 1.33301 1 3.66602 3 6.99902l14 32c4 8.66699 10.667 13 20 13h343c28 0 48 -5.66699 60 -17s18 -25.333 18 -42c0 -14.667 -4 -30.167 -12 -46.5s-19.333 -31.333 -34 -45
s-32.334 -25 -53.001 -34s-43.667 -13.5 -69 -13.5h-119c-13.333 0 -24.5 -1 -33.5 -3s-16.5 -5 -22.5 -9s-11.167 -9.33301 -15.5 -16s-8.5 -14.334 -12.5 -23.001l-15 -33h286c6.66699 0 10 -2.33301 10 -7l-2 -6l-14 -33c-4.66699 -8.66699 -11.334 -13 -20.001 -13h-461
z" />
    <glyph glyph-name="threesuperior" unicode="&#xb3;" horiz-adv-x="543" 
d="M206 365c-6.66699 0 -9.99902 2.00391 -9.99902 6.00391c0 2.66699 1 5 3 7l14 33c4 8.66699 10.333 13 19 13h217c10 0 19.833 1.83301 29.5 5.5s18.5 8.66699 26.5 15s14.333 14 19 23s7 19.167 7 30.5c0 15.333 -12.667 23 -38 23h-118c-6 0 -9 2 -9 6
c0 3.33301 0.666992 5.66602 2 6.99902l14 32c4 9.33301 10.333 14 19 14h126c20 0 35.5 5.16699 46.5 15.5s16.5 21.833 16.5 34.5c0 5.33301 -2.5 9.5 -7.5 12.5s-13.5 4.5 -25.5 4.5h-222c-6.66699 0 -10 2.33301 -10 7c0 1.33301 1 3.66602 3 6.99902l14 32
c4 8.66699 10.667 13 20 13h351c46 0 69 -15.333 69 -46c0 -16.667 -3.16699 -31 -9.5 -43s-13.833 -22.167 -22.5 -30.5s-17.334 -15 -26.001 -20s-15 -8.5 -19 -10.5c6 -2.66699 11.667 -7.83398 17 -15.501s8 -17.834 8 -30.501c0 -14.667 -4 -30.5 -12 -47.5
s-19.667 -32.667 -35 -47s-34 -26.333 -56 -36s-47 -14.5 -75 -14.5h-346z" />
    <glyph glyph-name="acute" unicode="&#xb4;" horiz-adv-x="451" 
d="M411 714c-12 -3.33301 -20.332 -4.99902 -24.999 -4.99902c-7.33301 0 -11 2.66699 -11 8c0 2.66699 1 6.66699 3 12l25 55c2.66699 8 11.667 15 27 21l333 123c7.33301 3.33301 13.666 5.33301 18.999 6s10 1 14 1c8 0 12 -3 12 -9
c0 -2.66699 -1.33301 -6.33398 -4 -11.001l-28 -65c-4.66699 -9.33301 -12.667 -16 -24 -20z" />
    <glyph glyph-name="periodcentered" unicode="&#xb7;" horiz-adv-x="355" 
d="M192 214c-20 0 -30 7 -30 21c0 6 2 13.667 6 23l65 145c6.66699 14.667 15 25.667 25 33s23 11 39 11h159c20 0 30 -7.33301 30 -22c0 -6.66699 -1.66699 -14 -5 -22l-64 -145c-13.333 -29.333 -35 -44 -65 -44h-160z" />
    <glyph glyph-name="cedilla" unicode="&#xb8;" horiz-adv-x="229" 
d="M13 -161c-8 0 -12 3.33203 -12 9.99902c0 0.666992 0.666992 3.66699 2 9l37 111c1.33301 4.66699 3 9 5 13s3.66699 7.66699 5 11l3 7h122l-3 -7c-1.33301 -3.33301 -3 -7.16602 -5 -11.499s-4.33301 -8.5 -7 -12.5l-61 -111c-6.66699 -12.667 -16 -19 -28 -19h-58z" />
    <glyph glyph-name="onesuperior" unicode="&#xb9;" horiz-adv-x="305" 
d="M251 365c-5.33301 0 -8 1.33301 -8 4c0 0.666992 0.333008 1.33398 1 2.00098l122 276h-37c-6.66699 0 -10 2.33301 -10 7c0 1.33301 1 3.66602 3 6.99902l14 32c4 8.66699 10.667 13 20 13h149c38 0 57 -11.667 57 -35c0 -7.33301 -2 -15.333 -6 -24l-123 -276
c-2 -4 -6 -6 -12 -6h-170z" />
    <glyph glyph-name="ordmasculine" unicode="&#xba;" horiz-adv-x="725" 
d="M347 267c-40 0 -69.833 9.33496 -89.5 28.002s-29.5 44 -29.5 76c0 36 8.83301 70.5 26.5 103.5s40.5 61.833 68.5 86.5s58.833 44.334 92.5 59.001s66.5 22 98.5 22h269c40 0 69.833 -9.33301 89.5 -28s29.5 -43.334 29.5 -74.001
c0 -34.667 -8.83301 -68.334 -26.5 -101.001s-40.167 -61.834 -67.5 -87.501s-58 -46.167 -92 -61.5s-67.333 -23 -100 -23h-269zM677 492.002c12 26 18.001 45.333 18.001 58c0 10.667 -3.66699 18 -11 22s-18.333 6 -33 6h-76c-21.333 0 -39.166 -6 -53.499 -18
s-28.833 -34.667 -43.5 -68l-27 -60c-14 -31.333 -21 -54.333 -21 -69c0 -20.667 12.333 -31 37 -31h76c21.333 0 40.166 7.33301 56.499 22s33.166 40.667 50.499 78z" />
    <glyph glyph-name="guillemotright" unicode="&#xbb;" horiz-adv-x="564" 
d="M533 477c11.333 9.33301 20.668 14.001 28.001 14.001c3.33301 0 7.66602 -1.66699 12.999 -5l116 -91c6 -4 9 -10.333 9 -19c0 -8 -1.66699 -15.333 -5 -22l-17 -38c-8 -18.667 -21 -32.334 -39 -41.001l-199 -91c-8 -3.33301 -13.667 -5 -17 -5
c-8.66699 0 -13.667 4.66699 -15 14l-3 32c0 8 1.5 14.833 4.5 20.5s10.167 11.167 21.5 16.5l178 81l-100 78c-4.66699 2.66699 -7 7.66699 -7 15c0 4 1.33301 7.83301 4 11.5s5.66699 7.16699 9 10.5zM257.002 477.001c9.33301 9.33301 18.6689 14 28.002 14
c3.33301 0 7.66602 -1.66699 12.999 -5l116 -91c6 -5.33301 9 -11.666 9 -18.999c0 -4.66699 -1.66699 -12 -5 -22l-17 -38c-8 -18.667 -21 -32.334 -39 -41.001l-199 -91c-8 -3.33301 -13.667 -5 -17 -5c-8.66699 0 -13.667 4.66699 -15 14l-4 32
c0 8 1.66699 14.833 5 20.5s10.666 11.167 21.999 16.5l177 81l-99 78c-5.33301 3.33301 -8 8.33301 -8 15c0 4 1.5 7.83301 4.5 11.5s6.16699 7.16699 9.5 10.5z" />
    <glyph glyph-name="onequarter" unicode="&#xbc;" horiz-adv-x="1033" 
d="M322 365c-5.33301 0 -8 1.33301 -8 4c0 0.666992 0.333008 1.33398 1 2.00098l122 276h-37c-6.66699 0 -10 2.33301 -10 7c0 1.33301 1 3.66602 3 6.99902l14 32c4 8.66699 10.667 13 20 13h149c38 0 57 -11.667 57 -35c0 -7.33301 -2 -15.333 -6 -24l-123 -276
c-2 -4 -6 -6 -12 -6h-170zM131 -20c-10 -7.33301 -17.833 -11.833 -23.5 -13.5s-12.834 -2.5 -21.501 -2.5h-48c-8.66699 0 -13 4 -13 12c0 4 1.66699 7.83301 5 11.5s7 7.16699 11 10.5l1036 704c9.33301 6.66699 16.833 11 22.5 13s12.834 3 21.501 3h48
c8.66699 0 13 -4 13 -12c0 -4 -1.5 -7.83301 -4.5 -11.5s-6.83301 -7.16699 -11.5 -10.5zM768 -9c-6.66699 0 -9.99902 1.99805 -9.99902 5.99805c0 0.666992 0.666992 3 2 7l27 61h-298c-6.66699 0 -10 2 -10 6c0 2.66699 1 5 3 7l9 24
c5.33301 9.33301 11.666 15.333 18.999 18l348 200c14.667 8 28.667 12 42 12h182c6 0 9 -2 9 -6c0 0.666992 -0.666992 -1.66602 -2 -6.99902l-89 -200h37c5.33301 0 8 -2 8 -6c0 -3.33301 -0.333008 -5.66602 -1 -6.99902l-12 -28c-4 -8.66699 -10.333 -13 -19 -13h-37
l-27 -61c-4.66699 -8.66699 -11 -13 -19 -13h-162zM877.001 266.998l-256 -148h190z" />
    <glyph glyph-name="onehalf" unicode="&#xbd;" horiz-adv-x="1057" 
d="M331 365c-5.33301 0 -8 1.33301 -8 4c0 0.666992 0.333008 1.33398 1 2.00098l122 276h-37c-6.66699 0 -10 2.33301 -10 7c0 1.33301 1 3.66602 3 6.99902l14 32c4 8.66699 10.667 13 20 13h149c38 0 57 -11.667 57 -35c0 -7.33301 -2 -15.333 -6 -24l-123 -276
c-2 -4 -6 -6 -12 -6h-170zM131 -20c-10 -7.33301 -17.833 -11.833 -23.5 -13.5s-12.834 -2.5 -21.501 -2.5h-48c-8.66699 0 -13 4 -13 12c0 4 1.66699 7.83301 5 11.5s7 7.16699 11 10.5l1036 704c9.33301 6.66699 16.833 11 22.5 13s12.834 3 21.501 3h48
c8.66699 0 13 -4 13 -12c0 -4 -1.5 -7.83301 -4.5 -11.5s-6.83301 -7.16699 -11.5 -10.5zM542 -9c-6.66699 0 -10 2.00391 -10 6.00391c0 2.66699 1 5 3 7l29 66c11.333 25.333 23.333 46 36 62s28.834 28.5 48.501 37.5s44.334 15 74.001 18s67.167 4.5 112.5 4.5h52
c6.66699 0 13.834 1.5 21.501 4.5s14.667 7.16699 21 12.5s11.666 11.666 15.999 18.999s6.5 15.666 6.5 24.999c0 13.333 -10 20 -30 20h-241c-6.66699 0 -10 2.33301 -10 7c0 1.33301 1 3.66602 3 6.99902l14 32c4 8.66699 10.667 13 20 13h343c28 0 48 -5.66699 60 -17
s18 -25.333 18 -42c0 -14.667 -4 -30.167 -12 -46.5s-19.333 -31.333 -34 -45s-32.334 -25 -53.001 -34s-43.667 -13.5 -69 -13.5h-119c-13.333 0 -24.5 -1 -33.5 -3s-16.5 -5 -22.5 -9s-11.167 -9.33301 -15.5 -16s-8.5 -14.334 -12.5 -23.001l-15 -33h286
c6.66699 0 10 -2.33301 10 -7l-2 -6l-14 -33c-4.66699 -8.66699 -11.334 -13 -20.001 -13h-461z" />
    <glyph glyph-name="threequarters" unicode="&#xbe;" horiz-adv-x="1134" 
d="M210 365c-6.66699 0 -9.99902 2.00391 -9.99902 6.00391c0 2.66699 1 5 3 7l14 33c4 8.66699 10.333 13 19 13h217c10 0 19.833 1.83301 29.5 5.5s18.5 8.66699 26.5 15s14.333 14 19 23s7 19.167 7 30.5c0 15.333 -12.667 23 -38 23h-118c-6 0 -9 2 -9 6
c0 3.33301 0.666992 5.66602 2 6.99902l14 32c4 9.33301 10.333 14 19 14h126c20 0 35.5 5.16699 46.5 15.5s16.5 21.833 16.5 34.5c0 5.33301 -2.5 9.5 -7.5 12.5s-13.5 4.5 -25.5 4.5h-222c-6.66699 0 -10 2.33301 -10 7c0 1.33301 1 3.66602 3 6.99902l14 32
c4 8.66699 10.667 13 20 13h351c46 0 69 -15.333 69 -46c0 -16.667 -3.16699 -31 -9.5 -43s-13.833 -22.167 -22.5 -30.5s-17.334 -15 -26.001 -20s-15 -8.5 -19 -10.5c6 -2.66699 11.667 -7.83398 17 -15.501s8 -17.834 8 -30.501c0 -14.667 -4 -30.5 -12 -47.5
s-19.667 -32.667 -35 -47s-34 -26.333 -56 -36s-47 -14.5 -75 -14.5h-346zM259.001 -19.9961c-10 -7.33301 -17.833 -11.833 -23.5 -13.5s-12.834 -2.5 -21.501 -2.5h-48c-8.66699 0 -13 4 -13 12c0 4 1.66699 7.83301 5 11.5s7 7.16699 11 10.5l1036 704
c9.33301 6.66699 16.833 11 22.5 13s12.834 3 21.501 3h48c8.66699 0 13 -4 13 -12c0 -4 -1.5 -7.83301 -4.5 -11.5s-6.83301 -7.16699 -11.5 -10.5zM869.001 -8.99609c-6.66699 0 -9.99902 1.99805 -9.99902 5.99805c0 0.666992 0.666992 3 2 7l27 61h-298
c-6.66699 0 -10 2 -10 6c0 2.66699 1 5 3 7l9 24c5.33301 9.33301 11.666 15.333 18.999 18l348 200c14.667 8 28.667 12 42 12h182c6 0 9 -2 9 -6c0 0.666992 -0.666992 -1.66602 -2 -6.99902l-89 -200h37c5.33301 0 8 -2 8 -6c0 -3.33301 -0.333008 -5.66602 -1 -6.99902
l-12 -28c-4 -8.66699 -10.333 -13 -19 -13h-37l-27 -61c-4.66699 -8.66699 -11 -13 -19 -13h-162zM978.002 267.002l-256 -148h190z" />
    <glyph glyph-name="questiondown" unicode="&#xbf;" horiz-adv-x="859" 
d="M976.012 682c19.999 0 29.998 -7 29.998 -20.999c0 -4.66602 -1.66699 -12.665 -5 -23.998l-63.9961 -143.991c-6.66602 -14.666 -15.665 -25.665 -26.998 -32.998s-23.999 -10.999 -37.998 -10.999h-159.99c-19.999 0 -29.998 6.99902 -29.998 20.998
c0 6.66699 2 14.333 6 22.999l63.9961 143.991c13.999 29.998 35.3311 44.9971 63.9961 44.9971h159.99zM530.039 353.021c37.3311 0 65.332 1.83301 83.9971 5.49902c18.666 3.66699 32.665 9.5 41.998 17.499c7.33301 6 13.999 10.833 19.998 14.499
c6 3.66699 13.333 5.5 21.999 5.5h134.992c12.665 0 18.998 -4 18.998 -11.999c0 -4 -1 -9 -2.99902 -14.999l-12 -24.999c-3.33301 -6.66602 -8.16602 -15.165 -14.499 -25.498s-15.499 -20.499 -27.498 -30.498s-27.165 -18.499 -45.4971 -25.499
c-18.332 -6.99902 -41.4971 -10.499 -69.4961 -10.499h-186.988c-15.333 0 -29.166 -3.16699 -41.499 -9.5c-12.332 -6.33301 -22.998 -14.166 -31.998 -23.499c-8.99902 -9.33301 -15.832 -19.499 -20.498 -30.498c-4.66699 -10.999 -7 -21.165 -7 -30.498
c0 -10.666 3 -20.166 9 -28.499c5.99902 -8.33301 16.665 -12.499 31.998 -12.499h434.973c11.999 0 17.999 -4 17.999 -11.999c0 -5.33301 -1.33301 -10.333 -3.99902 -15l-27.999 -63.9961c-7.33301 -17.332 -19.999 -25.998 -37.998 -25.998h-570.966
c-27.998 0 -51.8301 3.33301 -71.4951 9.99902s-35.6641 15.665 -47.9971 26.998s-21.499 24.166 -27.499 38.499c-5.99902 14.333 -8.99902 29.499 -8.99902 45.498c0 25.332 7.33301 51.6641 21.999 78.9951c14.665 27.332 35.4971 52.3301 62.4961 74.9951
c26.998 22.665 59.9961 41.3311 98.9941 55.9971c38.9971 14.666 82.8271 21.999 131.49 21.999h125.993z" />
    <glyph glyph-name="Agrave" unicode="&#xc0;" 
d="M979 0c-20.667 0 -35 6.66797 -43 20.001l-208 401l-441 -303h454c12 0 18 -4.33301 18 -13c0 -4.66699 -1.33301 -9.33398 -4 -14.001l-28 -64c-8 -18 -20.667 -27 -38 -27h-667c-8.66699 0 -13 4 -13 12c0 6 5.33301 13 16 21l908 630c18.667 12.667 35.667 19 51 19
h65c9.33301 0 16.833 -1.66699 22.5 -5s10.167 -8 13.5 -14l338 -628c1.33301 -6.66699 2 -10.667 2 -12c0 -6 -2.5 -11.333 -7.5 -16s-13.167 -7 -24.5 -7h-414zM1180 729.001c-6 -13.333 -14.668 -20.001 -26.001 -20.001c-6 0 -13 1.66699 -21 5l-225 135
c-2.66699 1.33301 -5 3.33301 -7 6s-3 5.66699 -3 9c0 2.66699 1 6 3 10l18 41c6 13.333 14.333 20 25 20c4.66699 -0.666992 9.33398 -1.5 14.001 -2.5s10 -3.16699 16 -6.5l215 -138c2 -1.33301 4 -3.66602 6 -6.99902s3 -6.66602 3 -9.99902
c0 -2.66699 -0.333008 -4.33398 -1 -5.00098z" />
    <glyph glyph-name="Aacute" unicode="&#xc1;" 
d="M979 0c-20.667 0 -35 6.66797 -43 20.001l-208 401l-441 -303h454c12 0 18 -4.33301 18 -13c0 -4.66699 -1.33301 -9.33398 -4 -14.001l-28 -64c-8 -18 -20.667 -27 -38 -27h-667c-8.66699 0 -13 4 -13 12c0 6 5.33301 13 16 21l908 630c18.667 12.667 35.667 19 51 19
h65c9.33301 0 16.833 -1.66699 22.5 -5s10.167 -8 13.5 -14l338 -628c1.33301 -6.66699 2 -10.667 2 -12c0 -6 -2.5 -11.333 -7.5 -16s-13.167 -7 -24.5 -7h-414zM922 714.001c-12 -3.33301 -20.332 -4.99902 -24.999 -4.99902c-7.33301 0 -11 2.66699 -11 8
c0 2.66699 1 6.66699 3 12l25 55c2.66699 8 11.667 15 27 21l333 123c7.33301 3.33301 13.666 5.33301 18.999 6s10 1 14 1c8 0 12 -3 12 -9c0 -2.66699 -1.33301 -6.33398 -4 -11.001l-28 -65c-4.66699 -9.33301 -12.667 -16 -24 -20z" />
    <glyph glyph-name="Acircumflex" unicode="&#xc2;" 
d="M979 0c-20.667 0 -35 6.66797 -43 20.001l-208 401l-441 -303h454c12 0 18 -4.33301 18 -13c0 -4.66699 -1.33301 -9.33398 -4 -14.001l-28 -64c-8 -18 -20.667 -27 -38 -27h-667c-8.66699 0 -13 4 -13 12c0 6 5.33301 13 16 21l908 630c18.667 12.667 35.667 19 51 19
h65c9.33301 0 16.833 -1.66699 22.5 -5s10.167 -8 13.5 -14l338 -628c1.33301 -6.66699 2 -10.667 2 -12c0 -6 -2.5 -11.333 -7.5 -16s-13.167 -7 -24.5 -7h-414zM1263 738.001c-5.33301 -14 -13.6689 -21.001 -25.002 -21.001c-8 0 -15.667 2.66699 -23 8l-129 103
l-233 -107c-12 -5.33301 -22.333 -8 -31 -8c-6 0 -9 2.33301 -9 7c0 4 1.33301 8.33301 4 13l28 63c4 8 11 15 21 21l241 109c4.66699 2.66699 10.334 4 17.001 4s11.334 -1.33301 14.001 -4l144 -109c2.66699 -3.33301 4 -6.66602 4 -9.99902s-1 -7 -3 -11z" />
    <glyph glyph-name="Atilde" unicode="&#xc3;" 
d="M979 0c-20.667 0 -35 6.66797 -43 20.001l-208 401l-441 -303h454c12 0 18 -4.33301 18 -13c0 -4.66699 -1.33301 -9.33398 -4 -14.001l-28 -64c-8 -18 -20.667 -27 -38 -27h-667c-8.66699 0 -13 4 -13 12c0 6 5.33301 13 16 21l908 630c18.667 12.667 35.667 19 51 19
h65c9.33301 0 16.833 -1.66699 22.5 -5s10.167 -8 13.5 -14l338 -628c1.33301 -6.66699 2 -10.667 2 -12c0 -6 -2.5 -11.333 -7.5 -16s-13.167 -7 -24.5 -7h-414zM1166 750.001c-3.33301 -1.33301 -7.16504 -2.16602 -11.498 -2.49902s-8.5 -0.5 -12.5 -0.5
c-3.33301 0 -6.83301 0.166992 -10.5 0.5s-7.16699 1.16602 -10.5 2.49902l-120 43c-5.33301 2 -10.333 3 -15 3s-10 -1 -16 -3l-126 -44c-8 -3.33301 -14.667 -5 -20 -5c-6.66699 0 -10 2.66699 -10 8c0 2 0.666992 4.33301 2 7l28 64c5.33301 14 14 22.333 26 25l117 38
c8 2.66699 17.333 4 28 4c9.33301 0 17 -1.33301 23 -4l117 -41c5.33301 -1.33301 8.66602 -2 9.99902 -2s3.33301 0.166992 6 0.5s5.66699 0.833008 9 1.5l126 44c8.66699 3.33301 15.667 5 21 5c6 0 9 -2.33301 9 -7c0 -0.666992 -0.166992 -1.5 -0.5 -2.5
s-0.5 -2.16699 -0.5 -3.5l-30 -66c-3.33301 -7.33301 -6.83301 -12.5 -10.5 -15.5s-8.83398 -5.83301 -15.501 -8.5z" />
    <glyph glyph-name="Adieresis" unicode="&#xc4;" 
d="M979 0c-20.667 0 -35 6.66797 -43 20.001l-208 401l-441 -303h454c12 0 18 -4.33301 18 -13c0 -4.66699 -1.33301 -9.33398 -4 -14.001l-28 -64c-8 -18 -20.667 -27 -38 -27h-667c-8.66699 0 -13 4 -13 12c0 6 5.33301 13 16 21l908 630c18.667 12.667 35.667 19 51 19
h65c9.33301 0 16.833 -1.66699 22.5 -5s10.167 -8 13.5 -14l338 -628c1.33301 -6.66699 2 -10.667 2 -12c0 -6 -2.5 -11.333 -7.5 -16s-13.167 -7 -24.5 -7h-414zM871 742.001c-10 0 -15 3.33301 -15 10c0 2 1 5 3 9l59 131c4.66699 12 13.667 18 27 18h98
c10.667 0 16 -3.66699 16 -11c0 -0.666992 -0.666992 -3 -2 -7l-59 -131c-6 -12.667 -15.667 -19 -29 -19h-98zM1113 742.001c-9.33301 0 -14 3.33398 -14 10.001c0 1.33301 0.166992 2.66602 0.5 3.99902s0.833008 3 1.5 5l59 131c4.66699 12 14 18 28 18h98
c9.33301 0 14 -3.33301 14 -10c0 -1.33301 -0.666992 -4 -2 -8l-59 -131c-6 -12.667 -15.333 -19 -28 -19h-98z" />
    <glyph glyph-name="Aring" unicode="&#xc5;" 
d="M979 0c-20.667 0 -35 6.66797 -43 20.001l-208 401l-441 -303h454c12 0 18 -4.33301 18 -13c0 -4.66699 -1.33301 -9.33398 -4 -14.001l-28 -64c-8 -18 -20.667 -27 -38 -27h-667c-8.66699 0 -13 4 -13 12c0 6 5.33301 13 16 21l908 630c18.667 12.667 35.667 19 51 19
h65c9.33301 0 16.833 -1.66699 22.5 -5s10.167 -8 13.5 -14l338 -628c1.33301 -6.66699 2 -10.667 2 -12c0 -6 -2.5 -11.333 -7.5 -16s-13.167 -7 -24.5 -7h-414zM924 699.001c-16.667 0 -25 6.66699 -25 20c0 3.33301 0.333008 7.5 1 12.5s2.66699 10.167 6 15.5l84 189
c14 32 34 48 60 48h197c16.667 0 25 -6.66699 25 -20c0 -6 -2.66699 -15.333 -8 -28l-85 -189c-14 -32 -33.667 -48 -59 -48h-196zM1185 915.001c0 0.666992 0.166992 1.16797 0.5 1.50098s0.5 0.833008 0.5 1.5s0.333008 1 1 1c0 2.66699 -1.33301 4 -4 4h-126
c-2.66699 0 -5 -2.33301 -7 -7l-67 -150c-0.666992 -0.666992 -1 -1.33398 -1 -2.00098v-1c0 -2 1 -3 3 -3h126c4 0 7 2.66699 9 8z" />
    <glyph glyph-name="AE" unicode="&#xc6;" horiz-adv-x="1865" 
d="M962 0c-32 0 -54.833 5.16797 -68.5 15.501s-20.5 25.5 -20.5 45.5c0 22 7.33301 49 22 81l188 423h-117l-644 -447h448c12 0 18 -4.33301 18 -13c0 -4.66699 -1.33301 -9.33398 -4 -14.001l-29 -64c-8 -18 -20.667 -27 -38 -27h-695c-8.66699 0 -13 4 -13 12
c0 6 5.33301 13 16 21l908 630c18.667 12.667 35.667 19 51 19h1117c12 0 18 -4.33301 18 -13c0 -4 -1 -8.33301 -3 -13l-29 -64c-8 -18 -21 -27 -39 -27h-574l-175 -394c-4.66699 -9.33301 -7 -18.666 -7 -27.999c0 -8 3.33301 -14.167 10 -18.5s17.667 -6.5 33 -6.5h518
c12 0 18 -4.33301 18 -13c0 -4.66699 -1.33301 -9.33398 -4 -14.001l-28 -64c-8 -18 -21 -27 -39 -27h-838zM1460 313.001c-12 0 -18 3.99902 -18 11.999c0 4.66699 1.33301 9.33398 4 14.001l28 65c7.33301 17.333 20.333 26 39 26h468c14 0 21 -3.33301 21 -10l-2 -8
l-37 -81c-6 -12 -17.333 -18 -34 -18h-469z" />
    <glyph glyph-name="Ccedilla" unicode="&#xc7;" horiz-adv-x="1104" 
d="M364 0c-34 0 -64.1689 5.33691 -90.502 16.0039s-48.666 25.5 -66.999 44.5s-32.166 41.833 -41.499 68.5s-14 55.667 -14 87c0 38.667 6.66699 77.167 20 115.5s31.833 74.666 55.5 108.999s51.667 66.333 84 96s67.666 55.167 105.999 76.5s78.833 38.166 121.5 50.499
s86 18.5 130 18.5h681c12 0 18 -4.33301 18 -13c0 -2 -0.166992 -4 -0.5 -6s-1.16602 -4.33301 -2.49902 -7l-29 -64c-8 -18 -21 -27 -39 -27h-447c-22 0 -41.5 -2.33301 -58.5 -7s-32.833 -13 -47.5 -25s-28.5 -28 -41.5 -48s-26.167 -45.333 -39.5 -76l-48 -109
c-12.667 -28 -22.167 -52.167 -28.5 -72.5s-9.5 -37.833 -9.5 -52.5c0 -20.667 6.33301 -35.334 19 -44.001s31 -13 55 -13h451c12 0 18 -4.33301 18 -13c0 -4.66699 -1.33301 -9.33398 -4 -14.001l-28 -64c-8 -18 -20.667 -27 -38 -27h-685zM452.998 -215.996
c-8 0 -12 3.33398 -12 10.001c0 0.666992 0.666992 3.66699 2 9l24 69.5l14 40.5c3.33301 10 6 17.333 8 22l6 14c4.66699 10 12.667 15 24 15h104c8.66699 0 13 -3 13 -9c0 -3.33301 -0.333008 -5.33301 -1 -6c-2 -4.66699 -4.16699 -9.33398 -6.5 -14.001l-11 -21.5
l-21.5 -40l-39 -70.5c-6.66699 -12.667 -16 -19 -28 -19h-76z" />
    <glyph glyph-name="Egrave" unicode="&#xc8;" horiz-adv-x="1131" 
d="M717 313c-12 0 -18 3.99902 -18 11.999c0 4.66699 1.33301 9.33398 4 14.001l28 65c7.33301 17.333 20.333 26 39 26h477c14 0 21 -3.33301 21 -10l-2 -8l-37 -81c-6 -12 -17.333 -18 -34 -18h-478zM364 -0.000976562c-34 0 -64.168 5.33691 -90.501 16.0039
s-48.666 25.5 -66.999 44.5s-32.166 41.833 -41.499 68.5s-14 55.667 -14 87c0 38.667 6.66699 77.167 20 115.5s31.833 74.666 55.5 108.999s51.667 66.333 84 96s67.666 55.167 105.999 76.5s78.833 38.166 121.5 50.499s86 18.5 130 18.5h699c12 0 18 -4.33301 18 -13
c0 -4 -1 -8.33301 -3 -13l-29 -64c-8 -18 -21 -27 -39 -27h-465c-22 0 -41.5 -2.33301 -58.5 -7s-32.833 -13 -47.5 -25s-28.5 -28 -41.5 -48s-26.167 -45.333 -39.5 -76l-48 -109c-12.667 -28 -22.167 -52.167 -28.5 -72.5s-9.5 -37.833 -9.5 -52.5
c0 -20.667 6.33301 -35.334 19 -44.001s31 -13 55 -13h469c12 0 18 -4.33301 18 -13c0 -4.66699 -1.33301 -9.33398 -4 -14.001l-28 -64c-8 -18 -21 -27 -39 -27h-702zM1123 729.003c-6 -13.333 -14.668 -20.001 -26.001 -20.001c-6 0 -13 1.66699 -21 5l-225 135
c-2.66699 1.33301 -5 3.33301 -7 6s-3 5.66699 -3 9c0 2.66699 1 6 3 10l18 41c6 13.333 14.333 20 25 20c4.66699 -0.666992 9.33398 -1.5 14.001 -2.5s10 -3.16699 16 -6.5l215 -138c2 -1.33301 4 -3.66602 6 -6.99902s3 -6.66602 3 -9.99902
c0 -2.66699 -0.333008 -4.33398 -1 -5.00098z" />
    <glyph glyph-name="Eacute" unicode="&#xc9;" horiz-adv-x="1131" 
d="M717 313c-12 0 -18 3.99902 -18 11.999c0 4.66699 1.33301 9.33398 4 14.001l28 65c7.33301 17.333 20.333 26 39 26h477c14 0 21 -3.33301 21 -10l-2 -8l-37 -81c-6 -12 -17.333 -18 -34 -18h-478zM364 -0.000976562c-34 0 -64.168 5.33691 -90.501 16.0039
s-48.666 25.5 -66.999 44.5s-32.166 41.833 -41.499 68.5s-14 55.667 -14 87c0 38.667 6.66699 77.167 20 115.5s31.833 74.666 55.5 108.999s51.667 66.333 84 96s67.666 55.167 105.999 76.5s78.833 38.166 121.5 50.499s86 18.5 130 18.5h699c12 0 18 -4.33301 18 -13
c0 -4 -1 -8.33301 -3 -13l-29 -64c-8 -18 -21 -27 -39 -27h-465c-22 0 -41.5 -2.33301 -58.5 -7s-32.833 -13 -47.5 -25s-28.5 -28 -41.5 -48s-26.167 -45.333 -39.5 -76l-48 -109c-12.667 -28 -22.167 -52.167 -28.5 -72.5s-9.5 -37.833 -9.5 -52.5
c0 -20.667 6.33301 -35.334 19 -44.001s31 -13 55 -13h469c12 0 18 -4.33301 18 -13c0 -4.66699 -1.33301 -9.33398 -4 -14.001l-28 -64c-8 -18 -21 -27 -39 -27h-702zM838.999 714.003c-12 -3.33301 -20.332 -4.99902 -24.999 -4.99902c-7.33301 0 -11 2.66699 -11 8
c0 2.66699 1 6.66699 3 12l25 55c2.66699 8 11.667 15 27 21l333 123c7.33301 3.33301 13.666 5.33301 18.999 6s10 1 14 1c8 0 12 -3 12 -9c0 -2.66699 -1.33301 -6.33398 -4 -11.001l-28 -65c-4.66699 -9.33301 -12.667 -16 -24 -20z" />
    <glyph glyph-name="Ecircumflex" unicode="&#xca;" horiz-adv-x="1131" 
d="M717 313c-12 0 -18 3.99902 -18 11.999c0 4.66699 1.33301 9.33398 4 14.001l28 65c7.33301 17.333 20.333 26 39 26h477c14 0 21 -3.33301 21 -10l-2 -8l-37 -81c-6 -12 -17.333 -18 -34 -18h-478zM364 -0.000976562c-34 0 -64.168 5.33691 -90.501 16.0039
s-48.666 25.5 -66.999 44.5s-32.166 41.833 -41.499 68.5s-14 55.667 -14 87c0 38.667 6.66699 77.167 20 115.5s31.833 74.666 55.5 108.999s51.667 66.333 84 96s67.666 55.167 105.999 76.5s78.833 38.166 121.5 50.499s86 18.5 130 18.5h699c12 0 18 -4.33301 18 -13
c0 -4 -1 -8.33301 -3 -13l-29 -64c-8 -18 -21 -27 -39 -27h-465c-22 0 -41.5 -2.33301 -58.5 -7s-32.833 -13 -47.5 -25s-28.5 -28 -41.5 -48s-26.167 -45.333 -39.5 -76l-48 -109c-12.667 -28 -22.167 -52.167 -28.5 -72.5s-9.5 -37.833 -9.5 -52.5
c0 -20.667 6.33301 -35.334 19 -44.001s31 -13 55 -13h469c12 0 18 -4.33301 18 -13c0 -4.66699 -1.33301 -9.33398 -4 -14.001l-28 -64c-8 -18 -21 -27 -39 -27h-702zM1165 738.003c-5.33301 -14 -13.6689 -21.001 -25.002 -21.001c-8 0 -15.667 2.66699 -23 8l-129 103
l-233 -107c-12 -5.33301 -22.333 -8 -31 -8c-6 0 -9 2.33301 -9 7c0 4 1.33301 8.33301 4 13l28 63c4 8 11 15 21 21l241 109c4.66699 2.66699 10.334 4 17.001 4s11.334 -1.33301 14.001 -4l144 -109c2.66699 -3.33301 4 -6.66602 4 -9.99902s-1 -7 -3 -11z" />
    <glyph glyph-name="Edieresis" unicode="&#xcb;" horiz-adv-x="1131" 
d="M717 313c-12 0 -18 3.99902 -18 11.999c0 4.66699 1.33301 9.33398 4 14.001l28 65c7.33301 17.333 20.333 26 39 26h477c14 0 21 -3.33301 21 -10l-2 -8l-37 -81c-6 -12 -17.333 -18 -34 -18h-478zM364 -0.000976562c-34 0 -64.168 5.33691 -90.501 16.0039
s-48.666 25.5 -66.999 44.5s-32.166 41.833 -41.499 68.5s-14 55.667 -14 87c0 38.667 6.66699 77.167 20 115.5s31.833 74.666 55.5 108.999s51.667 66.333 84 96s67.666 55.167 105.999 76.5s78.833 38.166 121.5 50.499s86 18.5 130 18.5h699c12 0 18 -4.33301 18 -13
c0 -4 -1 -8.33301 -3 -13l-29 -64c-8 -18 -21 -27 -39 -27h-465c-22 0 -41.5 -2.33301 -58.5 -7s-32.833 -13 -47.5 -25s-28.5 -28 -41.5 -48s-26.167 -45.333 -39.5 -76l-48 -109c-12.667 -28 -22.167 -52.167 -28.5 -72.5s-9.5 -37.833 -9.5 -52.5
c0 -20.667 6.33301 -35.334 19 -44.001s31 -13 55 -13h469c12 0 18 -4.33301 18 -13c0 -4.66699 -1.33301 -9.33398 -4 -14.001l-28 -64c-8 -18 -21 -27 -39 -27h-702zM786.999 742.003c-10 0 -15 3.33301 -15 10c0 2 1 5 3 9l59 131c4.66699 12 13.667 18 27 18h98
c10.667 0 16 -3.66699 16 -11c0 -0.666992 -0.666992 -3 -2 -7l-59 -131c-6 -12.667 -15.667 -19 -29 -19h-98zM1029 742.003c-9.33301 0 -14 3.33398 -14 10.001c0 1.33301 0.166992 2.66602 0.5 3.99902s0.833008 3 1.5 5l59 131c4.66699 12 14 18 28 18h98
c9.33301 0 14 -3.33301 14 -10c0 -1.33301 -0.666992 -4 -2 -8l-59 -131c-6 -12.667 -15.333 -19 -28 -19h-98z" />
    <glyph glyph-name="Igrave" unicode="&#xcc;" horiz-adv-x="513" 
d="M84 0c-12 0 -18 4 -18 12c0 4 1 9 3 15l281 629c8 17.333 20.667 26 38 26h344c12.667 0 19 -4.33301 19 -13c0 -4 -1.33301 -8.33301 -4 -13l-280 -629c-8 -18 -20.667 -27 -38 -27h-345zM726 729c-6 -13.333 -14.668 -20.001 -26.001 -20.001c-6 0 -13 1.66699 -21 5
l-225 135c-2.66699 1.33301 -5 3.33301 -7 6s-3 5.66699 -3 9c0 2.66699 1 6 3 10l18 41c6 13.333 14.333 20 25 20c4.66699 -0.666992 9.33398 -1.5 14.001 -2.5s10 -3.16699 16 -6.5l215 -138c2 -1.33301 4 -3.66602 6 -6.99902s3 -6.66602 3 -9.99902
c0 -2.66699 -0.333008 -4.33398 -1 -5.00098z" />
    <glyph glyph-name="Iacute" unicode="&#xcd;" horiz-adv-x="513" 
d="M84 0c-12 0 -18 4 -18 12c0 4 1 9 3 15l281 629c8 17.333 20.667 26 38 26h344c12.667 0 19 -4.33301 19 -13c0 -4 -1.33301 -8.33301 -4 -13l-280 -629c-8 -18 -20.667 -27 -38 -27h-345zM469 714c-12 -3.33301 -20.332 -4.99902 -24.999 -4.99902
c-7.33301 0 -11 2.66699 -11 8c0 2.66699 1 6.66699 3 12l25 55c2.66699 8 11.667 15 27 21l333 123c7.33301 3.33301 13.666 5.33301 18.999 6s10 1 14 1c8 0 12 -3 12 -9c0 -2.66699 -1.33301 -6.33398 -4 -11.001l-28 -65c-4.66699 -9.33301 -12.667 -16 -24 -20z" />
    <glyph glyph-name="Icircumflex" unicode="&#xce;" horiz-adv-x="513" 
d="M84 0c-12 0 -18 4 -18 12c0 4 1 9 3 15l281 629c8 17.333 20.667 26 38 26h344c12.667 0 19 -4.33301 19 -13c0 -4 -1.33301 -8.33301 -4 -13l-280 -629c-8 -18 -20.667 -27 -38 -27h-345zM811 738c-5.33301 -14 -13.6689 -21.001 -25.002 -21.001
c-8 0 -15.667 2.66699 -23 8l-129 103l-233 -107c-12 -5.33301 -22.333 -8 -31 -8c-6 0 -9 2.33301 -9 7c0 4 1.33301 8.33301 4 13l28 63c4 8 11 15 21 21l241 109c4.66699 2.66699 10.334 4 17.001 4s11.334 -1.33301 14.001 -4l144 -109
c2.66699 -3.33301 4 -6.66602 4 -9.99902s-1 -7 -3 -11z" />
    <glyph glyph-name="Idieresis" unicode="&#xcf;" horiz-adv-x="513" 
d="M84 0c-12 0 -18 4 -18 12c0 4 1 9 3 15l281 629c8 17.333 20.667 26 38 26h344c12.667 0 19 -4.33301 19 -13c0 -4 -1.33301 -8.33301 -4 -13l-280 -629c-8 -18 -20.667 -27 -38 -27h-345zM416 742c-10 0 -15 3.33301 -15 10c0 2 1 5 3 9l59 131
c4.66699 12 13.667 18 27 18h98c10.667 0 16 -3.66699 16 -11c0 -0.666992 -0.666992 -3 -2 -7l-59 -131c-6 -12.667 -15.667 -19 -29 -19h-98zM658 742c-9.33301 0 -14 3.33398 -14 10.001c0 1.33301 0.166992 2.66602 0.5 3.99902s0.833008 3 1.5 5l59 131
c4.66699 12 14 18 28 18h98c9.33301 0 14 -3.33301 14 -10c0 -1.33301 -0.666992 -4 -2 -8l-59 -131c-6 -12.667 -15.333 -19 -28 -19h-98z" />
    <glyph glyph-name="Eth" unicode="&#xd0;" horiz-adv-x="1299" 
d="M113 0c-12.667 0 -19 4 -19 12c0 5.33301 1.33301 10.333 4 15l127 286h-59c-12 0 -18 4 -18 12c0 4 1 8.66699 3 14l29 65c8 17.333 20.667 26 38 26h60l101 226c8 17.333 20.667 26 38 26h803c34.667 0 65.5 -5.33301 92.5 -16s49.5 -25.5 67.5 -44.5
s31.667 -41.5 41 -67.5s14 -54.333 14 -85c0 -40.667 -7 -80.5 -21 -119.5s-33.167 -75.833 -57.5 -110.5s-53 -66.667 -86 -96s-68.667 -54.5 -107 -75.5s-78.5 -37.5 -120.5 -49.5s-84 -18 -126 -18h-804zM983 409c20.667 48 31.334 83.002 32.001 105.002
c0 19.333 -6.66699 32.666 -20 39.999s-33 11 -59 11h-202l-60 -135h191c14 0 21 -3.33301 21 -10l-2 -8l-37 -81c-6 -12 -17.667 -18 -35 -18h-190l-87 -195h203c19.333 0 37.666 3.16699 54.999 9.5s34 16.666 50 30.999s31.5 33 46.5 56s30.167 51.5 45.5 85.5z" />
    <glyph glyph-name="Ntilde" unicode="&#xd1;" horiz-adv-x="1282" 
d="M1146 0c-20 0 -37 1.16699 -51 3.5s-30 7.83301 -48 16.5l-670 310l-134 -303c-8 -18 -20.667 -27 -38 -27h-129c-12.667 0 -19 4 -19 12c0 5.33301 1.33301 10.333 4 15l280 629c8 17.333 21 26 39 26h114c22 0 39.5 -1 52.5 -3s28.167 -7.33301 45.5 -16l621 -297
l130 290c8 17.333 20.667 26 38 26h129c12.667 0 19 -4.33301 19 -13c0 -4 -1.33301 -8.33301 -4 -13l-280 -629c-8 -18 -21 -27 -39 -27h-60zM1132 750c-3.33301 -1.33301 -7.16504 -2.16602 -11.498 -2.49902s-8.5 -0.5 -12.5 -0.5
c-3.33301 0 -6.83301 0.166992 -10.5 0.5s-7.16699 1.16602 -10.5 2.49902l-120 43c-5.33301 2 -10.333 3 -15 3s-10 -1 -16 -3l-126 -44c-8 -3.33301 -14.667 -5 -20 -5c-6.66699 0 -10 2.66699 -10 8c0 2 0.666992 4.33301 2 7l28 64c5.33301 14 14 22.333 26 25l117 38
c8 2.66699 17.333 4 28 4c9.33301 0 17 -1.33301 23 -4l117 -41c5.33301 -1.33301 8.66602 -2 9.99902 -2s3.33301 0.166992 6 0.5s5.66699 0.833008 9 1.5l126 44c8.66699 3.33301 15.667 5 21 5c6 0 9 -2.33301 9 -7c0 -0.666992 -0.166992 -1.5 -0.5 -2.5
s-0.5 -2.16699 -0.5 -3.5l-30 -66c-3.33301 -7.33301 -6.83301 -12.5 -10.5 -15.5s-8.83398 -5.83301 -15.501 -8.5z" />
    <glyph glyph-name="Ograve" unicode="&#xd2;" horiz-adv-x="1220" 
d="M365 0c-34.667 0 -65.3311 5.50391 -91.998 16.5039s-49 26.167 -67 45.5s-31.667 42.166 -41 68.499s-14 54.833 -14 85.5c0 39.333 6.66699 78 20 116s31.833 74.333 55.5 109s51.667 66.667 84 96s67.666 54.666 105.999 75.999s78.833 38.166 121.5 50.499
s86.334 18.5 131.001 18.5h490c35.333 0 66.5 -5.33301 93.5 -16s49.5 -25.5 67.5 -44.5s31.667 -41.5 41 -67.5s14 -54.333 14 -85c0 -39.333 -6.83301 -78.166 -20.5 -116.499s-32.5 -74.833 -56.5 -109.5s-52.333 -66.834 -85 -96.501s-68.334 -55.334 -107.001 -77.001
s-79.334 -38.667 -122.001 -51s-85.667 -18.5 -129 -18.5h-490zM967.003 409.004c10.667 23.333 19.001 43.667 25.001 61s8.66699 32 8 44c0 19.333 -6.83301 32.666 -20.5 39.999s-33.834 11 -60.501 11h-136c-19.333 0 -37.166 -2.5 -53.499 -7.5
s-31.5 -13.5 -45.5 -25.5s-27.5 -28 -40.5 -48s-26.167 -45 -39.5 -75l-48 -109c-25.333 -58 -38 -100.667 -38 -128c0 -19.333 5.66699 -33.166 17 -41.499s27.666 -12.5 48.999 -12.5h137c20.667 0 39.667 3.16699 57 9.5s34 16.5 50 30.5s31.333 32.667 46 56
s29.667 52 45 86zM1079 729.005c-6 -13.333 -14.668 -20.001 -26.001 -20.001c-6 0 -13 1.66699 -21 5l-225 135c-2.66699 1.33301 -5 3.33301 -7 6s-3 5.66699 -3 9c0 2.66699 1 6 3 10l18 41c6 13.333 14.333 20 25 20c4.66699 -0.666992 9.33398 -1.5 14.001 -2.5
s10 -3.16699 16 -6.5l215 -138c2 -1.33301 4 -3.66602 6 -6.99902s3 -6.66602 3 -9.99902c0 -2.66699 -0.333008 -4.33398 -1 -5.00098z" />
    <glyph glyph-name="Oacute" unicode="&#xd3;" horiz-adv-x="1220" 
d="M365 0c-34.667 0 -65.3311 5.50391 -91.998 16.5039s-49 26.167 -67 45.5s-31.667 42.166 -41 68.499s-14 54.833 -14 85.5c0 39.333 6.66699 78 20 116s31.833 74.333 55.5 109s51.667 66.667 84 96s67.666 54.666 105.999 75.999s78.833 38.166 121.5 50.499
s86.334 18.5 131.001 18.5h490c35.333 0 66.5 -5.33301 93.5 -16s49.5 -25.5 67.5 -44.5s31.667 -41.5 41 -67.5s14 -54.333 14 -85c0 -39.333 -6.83301 -78.166 -20.5 -116.499s-32.5 -74.833 -56.5 -109.5s-52.333 -66.834 -85 -96.501s-68.334 -55.334 -107.001 -77.001
s-79.334 -38.667 -122.001 -51s-85.667 -18.5 -129 -18.5h-490zM967.003 409.004c10.667 23.333 19.001 43.667 25.001 61s8.66699 32 8 44c0 19.333 -6.83301 32.666 -20.5 39.999s-33.834 11 -60.501 11h-136c-19.333 0 -37.166 -2.5 -53.499 -7.5
s-31.5 -13.5 -45.5 -25.5s-27.5 -28 -40.5 -48s-26.167 -45 -39.5 -75l-48 -109c-25.333 -58 -38 -100.667 -38 -128c0 -19.333 5.66699 -33.166 17 -41.499s27.666 -12.5 48.999 -12.5h137c20.667 0 39.667 3.16699 57 9.5s34 16.5 50 30.5s31.333 32.667 46 56
s29.667 52 45 86zM823.004 714.005c-12 -3.33301 -20.332 -4.99902 -24.999 -4.99902c-7.33301 0 -11 2.66699 -11 8c0 2.66699 1 6.66699 3 12l25 55c2.66699 8 11.667 15 27 21l333 123c7.33301 3.33301 13.666 5.33301 18.999 6s10 1 14 1c8 0 12 -3 12 -9
c0 -2.66699 -1.33301 -6.33398 -4 -11.001l-28 -65c-4.66699 -9.33301 -12.667 -16 -24 -20z" />
    <glyph glyph-name="Ocircumflex" unicode="&#xd4;" horiz-adv-x="1220" 
d="M365 0c-34.667 0 -65.3311 5.50391 -91.998 16.5039s-49 26.167 -67 45.5s-31.667 42.166 -41 68.499s-14 54.833 -14 85.5c0 39.333 6.66699 78 20 116s31.833 74.333 55.5 109s51.667 66.667 84 96s67.666 54.666 105.999 75.999s78.833 38.166 121.5 50.499
s86.334 18.5 131.001 18.5h490c35.333 0 66.5 -5.33301 93.5 -16s49.5 -25.5 67.5 -44.5s31.667 -41.5 41 -67.5s14 -54.333 14 -85c0 -39.333 -6.83301 -78.166 -20.5 -116.499s-32.5 -74.833 -56.5 -109.5s-52.333 -66.834 -85 -96.501s-68.334 -55.334 -107.001 -77.001
s-79.334 -38.667 -122.001 -51s-85.667 -18.5 -129 -18.5h-490zM967.003 409.004c10.667 23.333 19.001 43.667 25.001 61s8.66699 32 8 44c0 19.333 -6.83301 32.666 -20.5 39.999s-33.834 11 -60.501 11h-136c-19.333 0 -37.166 -2.5 -53.499 -7.5
s-31.5 -13.5 -45.5 -25.5s-27.5 -28 -40.5 -48s-26.167 -45 -39.5 -75l-48 -109c-25.333 -58 -38 -100.667 -38 -128c0 -19.333 5.66699 -33.166 17 -41.499s27.666 -12.5 48.999 -12.5h137c20.667 0 39.667 3.16699 57 9.5s34 16.5 50 30.5s31.333 32.667 46 56
s29.667 52 45 86zM1164 738.005c-5.33301 -14 -13.6689 -21.001 -25.002 -21.001c-8 0 -15.667 2.66699 -23 8l-129 103l-233 -107c-12 -5.33301 -22.333 -8 -31 -8c-6 0 -9 2.33301 -9 7c0 4 1.33301 8.33301 4 13l28 63c4 8 11 15 21 21l241 109
c4.66699 2.66699 10.334 4 17.001 4s11.334 -1.33301 14.001 -4l144 -109c2.66699 -3.33301 4 -6.66602 4 -9.99902s-1 -7 -3 -11z" />
    <glyph glyph-name="Otilde" unicode="&#xd5;" horiz-adv-x="1220" 
d="M365 0c-34.667 0 -65.3311 5.50391 -91.998 16.5039s-49 26.167 -67 45.5s-31.667 42.166 -41 68.499s-14 54.833 -14 85.5c0 39.333 6.66699 78 20 116s31.833 74.333 55.5 109s51.667 66.667 84 96s67.666 54.666 105.999 75.999s78.833 38.166 121.5 50.499
s86.334 18.5 131.001 18.5h490c35.333 0 66.5 -5.33301 93.5 -16s49.5 -25.5 67.5 -44.5s31.667 -41.5 41 -67.5s14 -54.333 14 -85c0 -39.333 -6.83301 -78.166 -20.5 -116.499s-32.5 -74.833 -56.5 -109.5s-52.333 -66.834 -85 -96.501s-68.334 -55.334 -107.001 -77.001
s-79.334 -38.667 -122.001 -51s-85.667 -18.5 -129 -18.5h-490zM967.003 409.004c10.667 23.333 19.001 43.667 25.001 61s8.66699 32 8 44c0 19.333 -6.83301 32.666 -20.5 39.999s-33.834 11 -60.501 11h-136c-19.333 0 -37.166 -2.5 -53.499 -7.5
s-31.5 -13.5 -45.5 -25.5s-27.5 -28 -40.5 -48s-26.167 -45 -39.5 -75l-48 -109c-25.333 -58 -38 -100.667 -38 -128c0 -19.333 5.66699 -33.166 17 -41.499s27.666 -12.5 48.999 -12.5h137c20.667 0 39.667 3.16699 57 9.5s34 16.5 50 30.5s31.333 32.667 46 56
s29.667 52 45 86zM1065 750.005c-3.33301 -1.33301 -7.16504 -2.16602 -11.498 -2.49902s-8.5 -0.5 -12.5 -0.5c-3.33301 0 -6.83301 0.166992 -10.5 0.5s-7.16699 1.16602 -10.5 2.49902l-120 43c-5.33301 2 -10.333 3 -15 3s-10 -1 -16 -3l-126 -44
c-8 -3.33301 -14.667 -5 -20 -5c-6.66699 0 -10 2.66699 -10 8c0 2 0.666992 4.33301 2 7l28 64c5.33301 14 14 22.333 26 25l117 38c8 2.66699 17.333 4 28 4c9.33301 0 17 -1.33301 23 -4l117 -41c5.33301 -1.33301 8.66602 -2 9.99902 -2s3.33301 0.166992 6 0.5
s5.66699 0.833008 9 1.5l126 44c8.66699 3.33301 15.667 5 21 5c6 0 9 -2.33301 9 -7c0 -0.666992 -0.166992 -1.5 -0.5 -2.5s-0.5 -2.16699 -0.5 -3.5l-30 -66c-3.33301 -7.33301 -6.83301 -12.5 -10.5 -15.5s-8.83398 -5.83301 -15.501 -8.5z" />
    <glyph glyph-name="Odieresis" unicode="&#xd6;" horiz-adv-x="1220" 
d="M365 0c-34.667 0 -65.3311 5.50391 -91.998 16.5039s-49 26.167 -67 45.5s-31.667 42.166 -41 68.499s-14 54.833 -14 85.5c0 39.333 6.66699 78 20 116s31.833 74.333 55.5 109s51.667 66.667 84 96s67.666 54.666 105.999 75.999s78.833 38.166 121.5 50.499
s86.334 18.5 131.001 18.5h490c35.333 0 66.5 -5.33301 93.5 -16s49.5 -25.5 67.5 -44.5s31.667 -41.5 41 -67.5s14 -54.333 14 -85c0 -39.333 -6.83301 -78.166 -20.5 -116.499s-32.5 -74.833 -56.5 -109.5s-52.333 -66.834 -85 -96.501s-68.334 -55.334 -107.001 -77.001
s-79.334 -38.667 -122.001 -51s-85.667 -18.5 -129 -18.5h-490zM967.003 409.004c10.667 23.333 19.001 43.667 25.001 61s8.66699 32 8 44c0 19.333 -6.83301 32.666 -20.5 39.999s-33.834 11 -60.501 11h-136c-19.333 0 -37.166 -2.5 -53.499 -7.5
s-31.5 -13.5 -45.5 -25.5s-27.5 -28 -40.5 -48s-26.167 -45 -39.5 -75l-48 -109c-25.333 -58 -38 -100.667 -38 -128c0 -19.333 5.66699 -33.166 17 -41.499s27.666 -12.5 48.999 -12.5h137c20.667 0 39.667 3.16699 57 9.5s34 16.5 50 30.5s31.333 32.667 46 56
s29.667 52 45 86zM770.004 742.005c-10 0 -15 3.33301 -15 10c0 2 1 5 3 9l59 131c4.66699 12 13.667 18 27 18h98c10.667 0 16 -3.66699 16 -11c0 -0.666992 -0.666992 -3 -2 -7l-59 -131c-6 -12.667 -15.667 -19 -29 -19h-98zM1012 742.005
c-9.33301 0 -14 3.33398 -14 10.001c0 1.33301 0.166992 2.66602 0.5 3.99902s0.833008 3 1.5 5l59 131c4.66699 12 14 18 28 18h98c9.33301 0 14 -3.33301 14 -10c0 -1.33301 -0.666992 -4 -2 -8l-59 -131c-6 -12.667 -15.333 -19 -28 -19h-98z" />
    <glyph glyph-name="multiply" unicode="&#xd7;" horiz-adv-x="747" 
d="M636 105c-8.66699 -6.66699 -16.666 -10 -23.999 -10c-6.66699 0 -11.334 3.33301 -14.001 10l-99 179l-258 -178l-12 -7.5c-2.66699 -1.66699 -5.66699 -2.5 -9 -2.5c-8 0 -13.667 3.33301 -17 10l-11 20c-2 2.66699 -3 5.66699 -3 9
c0 8.66699 6.33301 18.334 19 29.001l258 178l-98 178c-2.66699 2.66699 -4 6.66699 -4 12c0 8 6.66699 16.667 20 26l29 20c10 6 18 9 24 9s10.667 -3 14 -9l99 -178l259 179c8.66699 6 16 9 22 9c6.66699 0 12 -3 16 -9l11 -20c2 -3.33301 3 -6.33301 3 -9
c-1.33301 -10.667 -8 -20.334 -20 -29.001l-259 -179l100 -179l2 -10c0 -5.33301 -1.83301 -10.333 -5.5 -15s-8.16699 -9 -13.5 -13z" />
    <glyph glyph-name="Oslash" unicode="&#xd8;" horiz-adv-x="1220" 
d="M380 0l-66.999 -54.9961c-8 -7.33301 -14.5 -11.833 -19.5 -13.5s-11.833 -2.5 -20.5 -2.5h-48c-10.667 0 -16 3.33301 -16 10c0 3.33301 1.66699 7.16602 5 11.499s7 8.5 11 12.5l59 47c-22 6 -41.167 15.5 -57.5 28.5s-30.166 28.5 -41.499 46.5
s-19.833 38.167 -25.5 60.5s-8.5 45.833 -8.5 70.5c0 39.333 6.66699 78 20 116s31.833 74.333 55.5 109s51.667 66.667 84 96s67.666 54.666 105.999 75.999s78.833 38.166 121.5 50.499s86.334 18.5 131.001 18.5h443l68 56c7.33301 6.66699 13.666 10.834 18.999 12.501
s12.333 2.83398 21 3.50098h48c10.667 0 16 -3.66699 16 -11c0 -2.66699 -1.66699 -6.33398 -5 -11.001s-7 -8.66699 -11 -12l-52 -42c26 -4.66699 48.833 -13.167 68.5 -25.5s36.167 -27.833 49.5 -46.5s23.333 -39.667 30 -63s10 -48.333 10 -75
c0 -39.333 -6.83301 -78 -20.5 -116s-32.334 -74.333 -56.001 -109s-52 -66.834 -85 -96.501s-68.667 -55.334 -107 -77.001s-78.833 -38.667 -121.5 -51s-85.667 -18.5 -129 -18.5h-475zM967.001 409.004c17.333 38 28 68.999 32 92.999l-461 -375
c5.33301 -3.33301 12 -5.66602 20 -6.99902s16.667 -2 26 -2h137c20.667 0 39.667 3.16699 57 9.5s34 16.5 50 30.5s31.333 32.667 46 56s29.667 52 45 86zM783.001 565.003c-19.333 0 -37.168 -2.49902 -53.501 -7.49902s-31.5 -13.5 -45.5 -25.5s-27.5 -28 -40.5 -48
s-26.167 -45 -39.5 -75l-48 -109c-9.33301 -20.667 -17 -38.834 -23 -54.501s-10 -30.167 -12 -43.5l441 358c-5.33301 2 -11.666 3.33301 -18.999 4s-15.333 1 -24 1h-136z" />
    <glyph glyph-name="Ugrave" unicode="&#xd9;" horiz-adv-x="1188" 
d="M386 0c-85.333 0 -147.166 13.833 -185.499 41.5s-57.5 66.5 -57.5 116.5c0 43.333 13.667 95.333 41 156l153 342c8 17.333 20.667 26 38 26h373c12.667 0 19 -4.33301 19 -13c0 -4 -1.33301 -8.33301 -4 -13l-152 -342c-20 -44 -30 -81.333 -30 -112
c0 -28 8.5 -49 25.5 -63s43.833 -21 80.5 -21h172c57.333 0 107 17.167 149 51.5s77 82.5 105 144.5l152 342c8 17.333 20.667 26 38 26h121c12 0 18 -4.33301 18 -13c0 -4 -1 -8.33301 -3 -13l-153 -342c-19.333 -44 -44.333 -85 -75 -123s-66.334 -71.333 -107.001 -100
s-86 -51 -136 -67s-104 -24 -162 -24h-420zM1215 729c-6 -13.333 -14.668 -20.001 -26.001 -20.001c-6 0 -13 1.66699 -21 5l-225 135c-2.66699 1.33301 -5 3.33301 -7 6s-3 5.66699 -3 9c0 2.66699 1 6 3 10l18 41c6 13.333 14.333 20 25 20
c4.66699 -0.666992 9.33398 -1.5 14.001 -2.5s10 -3.16699 16 -6.5l215 -138c2 -1.33301 4 -3.66602 6 -6.99902s3 -6.66602 3 -9.99902c0 -2.66699 -0.333008 -4.33398 -1 -5.00098z" />
    <glyph glyph-name="Uacute" unicode="&#xda;" horiz-adv-x="1188" 
d="M386 0c-85.333 0 -147.166 13.833 -185.499 41.5s-57.5 66.5 -57.5 116.5c0 43.333 13.667 95.333 41 156l153 342c8 17.333 20.667 26 38 26h373c12.667 0 19 -4.33301 19 -13c0 -4 -1.33301 -8.33301 -4 -13l-152 -342c-20 -44 -30 -81.333 -30 -112
c0 -28 8.5 -49 25.5 -63s43.833 -21 80.5 -21h172c57.333 0 107 17.167 149 51.5s77 82.5 105 144.5l152 342c8 17.333 20.667 26 38 26h121c12 0 18 -4.33301 18 -13c0 -4 -1 -8.33301 -3 -13l-153 -342c-19.333 -44 -44.333 -85 -75 -123s-66.334 -71.333 -107.001 -100
s-86 -51 -136 -67s-104 -24 -162 -24h-420zM913 714c-12 -3.33301 -20.332 -4.99902 -24.999 -4.99902c-7.33301 0 -11 2.66699 -11 8c0 2.66699 1 6.66699 3 12l25 55c2.66699 8 11.667 15 27 21l333 123c7.33301 3.33301 13.666 5.33301 18.999 6s10 1 14 1
c8 0 12 -3 12 -9c0 -2.66699 -1.33301 -6.33398 -4 -11.001l-28 -65c-4.66699 -9.33301 -12.667 -16 -24 -20z" />
    <glyph glyph-name="Ucircumflex" unicode="&#xdb;" horiz-adv-x="1188" 
d="M386 0c-85.333 0 -147.166 13.833 -185.499 41.5s-57.5 66.5 -57.5 116.5c0 43.333 13.667 95.333 41 156l153 342c8 17.333 20.667 26 38 26h373c12.667 0 19 -4.33301 19 -13c0 -4 -1.33301 -8.33301 -4 -13l-152 -342c-20 -44 -30 -81.333 -30 -112
c0 -28 8.5 -49 25.5 -63s43.833 -21 80.5 -21h172c57.333 0 107 17.167 149 51.5s77 82.5 105 144.5l152 342c8 17.333 20.667 26 38 26h121c12 0 18 -4.33301 18 -13c0 -4 -1 -8.33301 -3 -13l-153 -342c-19.333 -44 -44.333 -85 -75 -123s-66.334 -71.333 -107.001 -100
s-86 -51 -136 -67s-104 -24 -162 -24h-420zM1271 738c-5.33301 -14 -13.6689 -21.001 -25.002 -21.001c-8 0 -15.667 2.66699 -23 8l-129 103l-233 -107c-12 -5.33301 -22.333 -8 -31 -8c-6 0 -9 2.33301 -9 7c0 4 1.33301 8.33301 4 13l28 63c4 8 11 15 21 21l241 109
c4.66699 2.66699 10.334 4 17.001 4s11.334 -1.33301 14.001 -4l144 -109c2.66699 -3.33301 4 -6.66602 4 -9.99902s-1 -7 -3 -11z" />
    <glyph glyph-name="Udieresis" unicode="&#xdc;" horiz-adv-x="1188" 
d="M386 0c-85.333 0 -147.166 13.833 -185.499 41.5s-57.5 66.5 -57.5 116.5c0 43.333 13.667 95.333 41 156l153 342c8 17.333 20.667 26 38 26h373c12.667 0 19 -4.33301 19 -13c0 -4 -1.33301 -8.33301 -4 -13l-152 -342c-20 -44 -30 -81.333 -30 -112
c0 -28 8.5 -49 25.5 -63s43.833 -21 80.5 -21h172c57.333 0 107 17.167 149 51.5s77 82.5 105 144.5l152 342c8 17.333 20.667 26 38 26h121c12 0 18 -4.33301 18 -13c0 -4 -1 -8.33301 -3 -13l-153 -342c-19.333 -44 -44.333 -85 -75 -123s-66.334 -71.333 -107.001 -100
s-86 -51 -136 -67s-104 -24 -162 -24h-420zM888 742c-10 0 -15 3.33301 -15 10c0 2 1 5 3 9l59 131c4.66699 12 13.667 18 27 18h98c10.667 0 16 -3.66699 16 -11c0 -0.666992 -0.666992 -3 -2 -7l-59 -131c-6 -12.667 -15.667 -19 -29 -19h-98zM1130 742
c-9.33301 0 -14 3.33398 -14 10.001c0 1.33301 0.166992 2.66602 0.5 3.99902s0.833008 3 1.5 5l59 131c4.66699 12 14 18 28 18h98c9.33301 0 14 -3.33301 14 -10c0 -1.33301 -0.666992 -4 -2 -8l-59 -131c-6 -12.667 -15.333 -19 -28 -19h-98z" />
    <glyph glyph-name="Yacute" unicode="&#xdd;" horiz-adv-x="1139" 
d="M888 271l-108.001 -244.001c-4 -9.33301 -9.5 -16.166 -16.5 -20.499s-14.5 -6.5 -22.5 -6.5h-344c-12 0 -18 4 -18 12c0 4 1 9 3 15l107 238l-188 383c-1.33301 1.33301 -2.16602 3.33301 -2.49902 6s-0.5 4.66699 -0.5 6c0 7.33301 3.33301 12.833 10 16.5
s13 5.5 19 5.5h394c18 0 30 -6.66699 36 -20l136 -292l407 293c10.667 7.33301 19.667 12.333 27 15s16 4 26 4h67c8.66699 0 13 -3.33301 13 -10c0 -6 -4 -12 -12 -18zM870.999 713.999c-12 -3.33301 -20.332 -4.99902 -24.999 -4.99902c-7.33301 0 -11 2.66699 -11 8
c0 2.66699 1 6.66699 3 12l25 55c2.66699 8 11.667 15 27 21l333 123c7.33301 3.33301 13.666 5.33301 18.999 6s10 1 14 1c8 0 12 -3 12 -9c0 -2.66699 -1.33301 -6.33398 -4 -11.001l-28 -65c-4.66699 -9.33301 -12.667 -16 -24 -20z" />
    <glyph glyph-name="Thorn" unicode="&#xde;" horiz-adv-x="1177" 
d="M567 108c-12.667 0 -19 3.99902 -19 11.999c0 4 1 9 3 15l29 64c8 17.333 21 26 39 26h128c24 0 46.333 3.16699 67 9.5s38.667 15.5 54 27.5s27.333 26.833 36 44.5s13 37.5 13 59.5s-7.16699 38.333 -21.5 49s-33.833 16 -58.5 16h-213l-180 -404
c-8 -18 -21 -27 -39 -27h-343c-12 0 -18 4 -18 12c0 4 1 9 3 15l281 629c8 17.333 20.667 26 38 26h343c12.667 0 19 -4.33301 19 -13c0 -4 -1.33301 -8.33301 -4 -13l-48 -107h485c48.667 0 87.167 -12.5 115.5 -37.5s42.5 -60.5 42.5 -106.5
c0 -45.333 -10.667 -86.166 -32 -122.499s-49.666 -67.5 -84.999 -93.5s-75.833 -46 -121.5 -60s-92.834 -21 -141.501 -21h-372z" />
    <glyph glyph-name="germandbls" unicode="&#xdf;" horiz-adv-x="2076" 
d="M61 0c-12 0 -18 4 -18 12c0 4 1 9 3 15l29 64c8 18 21 27 39 27h571l-371 214c-30 17.333 -50.5 36 -61.5 56s-16.5 40 -16.5 60c0 28 7.33301 56 22 84s35 53.167 61 75.5s56.667 40.333 92 54s73.666 20.5 114.999 20.5h737c12.667 0 19 -4.33301 19 -13
c0 -4 -1.33301 -8.33301 -4 -13l-28 -64c-8 -18 -21 -27 -39 -27h-554l371 -214c30.667 -17.333 51.334 -36.333 62.001 -57s16 -40.667 16 -60c0 -28 -7.16699 -56 -21.5 -84s-34.5 -53.167 -60.5 -75.5s-56.667 -40.333 -92 -54s-74 -20.5 -116 -20.5h-755zM1099 0
c-12 0 -17.999 4 -17.999 12c0 4 1 9 3 15l29 64c8 18 21 27 39 27h571l-371 214c-30 17.333 -50.5 36 -61.5 56s-16.5 40 -16.5 60c0 28 7.33301 56 22 84s35 53.167 61 75.5s56.667 40.333 92 54s73.666 20.5 114.999 20.5h737c12.667 0 19 -4.33301 19 -13
c0 -4 -1.33301 -8.33301 -4 -13l-28 -64c-8 -18 -21 -27 -39 -27h-554l371 -214c30.667 -17.333 51.334 -36.333 62 -57c10.667 -20.667 16 -40.667 16 -60c0 -28 -7.16699 -56 -21.5 -84s-34.5 -53.167 -60.5 -75.5s-56.667 -40.333 -92 -54s-74 -20.5 -116 -20.5h-755z
" />
    <glyph glyph-name="agrave" unicode="&#xe0;" 
d="M979 0c-20.667 0 -35 6.66797 -43 20.001l-208 401l-441 -303h454c12 0 18 -4.33301 18 -13c0 -4.66699 -1.33301 -9.33398 -4 -14.001l-28 -64c-8 -18 -20.667 -27 -38 -27h-667c-8.66699 0 -13 4 -13 12c0 6 5.33301 13 16 21l908 630c18.667 12.667 35.667 19 51 19
h65c9.33301 0 16.833 -1.66699 22.5 -5s10.167 -8 13.5 -14l338 -628c1.33301 -6.66699 2 -10.667 2 -12c0 -6 -2.5 -11.333 -7.5 -16s-13.167 -7 -24.5 -7h-414zM1180 729.001c-6 -13.333 -14.668 -20.001 -26.001 -20.001c-6 0 -13 1.66699 -21 5l-225 135
c-2.66699 1.33301 -5 3.33301 -7 6s-3 5.66699 -3 9c0 2.66699 1 6 3 10l18 41c6 13.333 14.333 20 25 20c4.66699 -0.666992 9.33398 -1.5 14.001 -2.5s10 -3.16699 16 -6.5l215 -138c2 -1.33301 4 -3.66602 6 -6.99902s3 -6.66602 3 -9.99902
c0 -2.66699 -0.333008 -4.33398 -1 -5.00098z" />
    <glyph glyph-name="aacute" unicode="&#xe1;" 
d="M979 0c-20.667 0 -35 6.66797 -43 20.001l-208 401l-441 -303h454c12 0 18 -4.33301 18 -13c0 -4.66699 -1.33301 -9.33398 -4 -14.001l-28 -64c-8 -18 -20.667 -27 -38 -27h-667c-8.66699 0 -13 4 -13 12c0 6 5.33301 13 16 21l908 630c18.667 12.667 35.667 19 51 19
h65c9.33301 0 16.833 -1.66699 22.5 -5s10.167 -8 13.5 -14l338 -628c1.33301 -6.66699 2 -10.667 2 -12c0 -6 -2.5 -11.333 -7.5 -16s-13.167 -7 -24.5 -7h-414zM922 714.001c-12 -3.33301 -20.332 -4.99902 -24.999 -4.99902c-7.33301 0 -11 2.66699 -11 8
c0 2.66699 1 6.66699 3 12l25 55c2.66699 8 11.667 15 27 21l333 123c7.33301 3.33301 13.666 5.33301 18.999 6s10 1 14 1c8 0 12 -3 12 -9c0 -2.66699 -1.33301 -6.33398 -4 -11.001l-28 -65c-4.66699 -9.33301 -12.667 -16 -24 -20z" />
    <glyph glyph-name="acircumflex" unicode="&#xe2;" 
d="M979 0c-20.667 0 -35 6.66797 -43 20.001l-208 401l-441 -303h454c12 0 18 -4.33301 18 -13c0 -4.66699 -1.33301 -9.33398 -4 -14.001l-28 -64c-8 -18 -20.667 -27 -38 -27h-667c-8.66699 0 -13 4 -13 12c0 6 5.33301 13 16 21l908 630c18.667 12.667 35.667 19 51 19
h65c9.33301 0 16.833 -1.66699 22.5 -5s10.167 -8 13.5 -14l338 -628c1.33301 -6.66699 2 -10.667 2 -12c0 -6 -2.5 -11.333 -7.5 -16s-13.167 -7 -24.5 -7h-414zM1263 738.001c-5.33301 -14 -13.6689 -21.001 -25.002 -21.001c-8 0 -15.667 2.66699 -23 8l-129 103
l-233 -107c-12 -5.33301 -22.333 -8 -31 -8c-6 0 -9 2.33301 -9 7c0 4 1.33301 8.33301 4 13l28 63c4 8 11 15 21 21l241 109c4.66699 2.66699 10.334 4 17.001 4s11.334 -1.33301 14.001 -4l144 -109c2.66699 -3.33301 4 -6.66602 4 -9.99902s-1 -7 -3 -11z" />
    <glyph glyph-name="atilde" unicode="&#xe3;" 
d="M979 0c-20.667 0 -35 6.66797 -43 20.001l-208 401l-441 -303h454c12 0 18 -4.33301 18 -13c0 -4.66699 -1.33301 -9.33398 -4 -14.001l-28 -64c-8 -18 -20.667 -27 -38 -27h-667c-8.66699 0 -13 4 -13 12c0 6 5.33301 13 16 21l908 630c18.667 12.667 35.667 19 51 19
h65c9.33301 0 16.833 -1.66699 22.5 -5s10.167 -8 13.5 -14l338 -628c1.33301 -6.66699 2 -10.667 2 -12c0 -6 -2.5 -11.333 -7.5 -16s-13.167 -7 -24.5 -7h-414zM1166 750.001c-3.33301 -1.33301 -7.16504 -2.16602 -11.498 -2.49902s-8.5 -0.5 -12.5 -0.5
c-3.33301 0 -6.83301 0.166992 -10.5 0.5s-7.16699 1.16602 -10.5 2.49902l-120 43c-5.33301 2 -10.333 3 -15 3s-10 -1 -16 -3l-126 -44c-8 -3.33301 -14.667 -5 -20 -5c-6.66699 0 -10 2.66699 -10 8c0 2 0.666992 4.33301 2 7l28 64c5.33301 14 14 22.333 26 25l117 38
c8 2.66699 17.333 4 28 4c9.33301 0 17 -1.33301 23 -4l117 -41c5.33301 -1.33301 8.66602 -2 9.99902 -2s3.33301 0.166992 6 0.5s5.66699 0.833008 9 1.5l126 44c8.66699 3.33301 15.667 5 21 5c6 0 9 -2.33301 9 -7c0 -0.666992 -0.166992 -1.5 -0.5 -2.5
s-0.5 -2.16699 -0.5 -3.5l-30 -66c-3.33301 -7.33301 -6.83301 -12.5 -10.5 -15.5s-8.83398 -5.83301 -15.501 -8.5z" />
    <glyph glyph-name="adieresis" unicode="&#xe4;" 
d="M979 0c-20.667 0 -35 6.66797 -43 20.001l-208 401l-441 -303h454c12 0 18 -4.33301 18 -13c0 -4.66699 -1.33301 -9.33398 -4 -14.001l-28 -64c-8 -18 -20.667 -27 -38 -27h-667c-8.66699 0 -13 4 -13 12c0 6 5.33301 13 16 21l908 630c18.667 12.667 35.667 19 51 19
h65c9.33301 0 16.833 -1.66699 22.5 -5s10.167 -8 13.5 -14l338 -628c1.33301 -6.66699 2 -10.667 2 -12c0 -6 -2.5 -11.333 -7.5 -16s-13.167 -7 -24.5 -7h-414zM871 742.001c-10 0 -15 3.33301 -15 10c0 2 1 5 3 9l59 131c4.66699 12 13.667 18 27 18h98
c10.667 0 16 -3.66699 16 -11c0 -0.666992 -0.666992 -3 -2 -7l-59 -131c-6 -12.667 -15.667 -19 -29 -19h-98zM1113 742.001c-9.33301 0 -14 3.33398 -14 10.001c0 1.33301 0.166992 2.66602 0.5 3.99902s0.833008 3 1.5 5l59 131c4.66699 12 14 18 28 18h98
c9.33301 0 14 -3.33301 14 -10c0 -1.33301 -0.666992 -4 -2 -8l-59 -131c-6 -12.667 -15.333 -19 -28 -19h-98z" />
    <glyph glyph-name="aring" unicode="&#xe5;" 
d="M979 0c-20.667 0 -35 6.66797 -43 20.001l-208 401l-441 -303h454c12 0 18 -4.33301 18 -13c0 -4.66699 -1.33301 -9.33398 -4 -14.001l-28 -64c-8 -18 -20.667 -27 -38 -27h-667c-8.66699 0 -13 4 -13 12c0 6 5.33301 13 16 21l908 630c18.667 12.667 35.667 19 51 19
h65c9.33301 0 16.833 -1.66699 22.5 -5s10.167 -8 13.5 -14l338 -628c1.33301 -6.66699 2 -10.667 2 -12c0 -6 -2.5 -11.333 -7.5 -16s-13.167 -7 -24.5 -7h-414zM924 699.001c-16.667 0 -25 6.66699 -25 20c0 3.33301 0.333008 7.5 1 12.5s2.66699 10.167 6 15.5l84 189
c14 32 34 48 60 48h197c16.667 0 25 -6.66699 25 -20c0 -6 -2.66699 -15.333 -8 -28l-85 -189c-14 -32 -33.667 -48 -59 -48h-196zM1185 915.001c0 0.666992 0.166992 1.16797 0.5 1.50098s0.5 0.833008 0.5 1.5s0.333008 1 1 1c0 2.66699 -1.33301 4 -4 4h-126
c-2.66699 0 -5 -2.33301 -7 -7l-67 -150c-0.666992 -0.666992 -1 -1.33398 -1 -2.00098v-1c0 -2 1 -3 3 -3h126c4 0 7 2.66699 9 8z" />
    <glyph glyph-name="ae" unicode="&#xe6;" horiz-adv-x="1865" 
d="M962 0c-32 0 -54.833 5.16797 -68.5 15.501s-20.5 25.5 -20.5 45.5c0 22 7.33301 49 22 81l188 423h-117l-644 -447h448c12 0 18 -4.33301 18 -13c0 -4.66699 -1.33301 -9.33398 -4 -14.001l-29 -64c-8 -18 -20.667 -27 -38 -27h-695c-8.66699 0 -13 4 -13 12
c0 6 5.33301 13 16 21l908 630c18.667 12.667 35.667 19 51 19h1117c12 0 18 -4.33301 18 -13c0 -4 -1 -8.33301 -3 -13l-29 -64c-8 -18 -21 -27 -39 -27h-574l-175 -394c-4.66699 -9.33301 -7 -18.666 -7 -27.999c0 -8 3.33301 -14.167 10 -18.5s17.667 -6.5 33 -6.5h518
c12 0 18 -4.33301 18 -13c0 -4.66699 -1.33301 -9.33398 -4 -14.001l-28 -64c-8 -18 -21 -27 -39 -27h-838zM1460 313.001c-12 0 -18 3.99902 -18 11.999c0 4.66699 1.33301 9.33398 4 14.001l28 65c7.33301 17.333 20.333 26 39 26h468c14 0 21 -3.33301 21 -10l-2 -8
l-37 -81c-6 -12 -17.333 -18 -34 -18h-469z" />
    <glyph glyph-name="ccedilla" unicode="&#xe7;" horiz-adv-x="1104" 
d="M364 0c-34 0 -64.1689 5.33691 -90.502 16.0039s-48.666 25.5 -66.999 44.5s-32.166 41.833 -41.499 68.5s-14 55.667 -14 87c0 38.667 6.66699 77.167 20 115.5s31.833 74.666 55.5 108.999s51.667 66.333 84 96s67.666 55.167 105.999 76.5s78.833 38.166 121.5 50.499
s86 18.5 130 18.5h681c12 0 18 -4.33301 18 -13c0 -2 -0.166992 -4 -0.5 -6s-1.16602 -4.33301 -2.49902 -7l-29 -64c-8 -18 -21 -27 -39 -27h-447c-22 0 -41.5 -2.33301 -58.5 -7s-32.833 -13 -47.5 -25s-28.5 -28 -41.5 -48s-26.167 -45.333 -39.5 -76l-48 -109
c-12.667 -28 -22.167 -52.167 -28.5 -72.5s-9.5 -37.833 -9.5 -52.5c0 -20.667 6.33301 -35.334 19 -44.001s31 -13 55 -13h451c12 0 18 -4.33301 18 -13c0 -4.66699 -1.33301 -9.33398 -4 -14.001l-28 -64c-8 -18 -20.667 -27 -38 -27h-685zM452.998 -215.996
c-8 0 -12 3.33398 -12 10.001c0 0.666992 0.666992 3.66699 2 9l24 69.5l14 40.5c3.33301 10 6 17.333 8 22l6 14c4.66699 10 12.667 15 24 15h104c8.66699 0 13 -3 13 -9c0 -3.33301 -0.333008 -5.33301 -1 -6c-2 -4.66699 -4.16699 -9.33398 -6.5 -14.001l-11 -21.5
l-21.5 -40l-39 -70.5c-6.66699 -12.667 -16 -19 -28 -19h-76z" />
    <glyph glyph-name="egrave" unicode="&#xe8;" horiz-adv-x="1131" 
d="M717 313c-12 0 -18 3.99902 -18 11.999c0 4.66699 1.33301 9.33398 4 14.001l28 65c7.33301 17.333 20.333 26 39 26h477c14 0 21 -3.33301 21 -10l-2 -8l-37 -81c-6 -12 -17.333 -18 -34 -18h-478zM364 -0.000976562c-34 0 -64.168 5.33691 -90.501 16.0039
s-48.666 25.5 -66.999 44.5s-32.166 41.833 -41.499 68.5s-14 55.667 -14 87c0 38.667 6.66699 77.167 20 115.5s31.833 74.666 55.5 108.999s51.667 66.333 84 96s67.666 55.167 105.999 76.5s78.833 38.166 121.5 50.499s86 18.5 130 18.5h699c12 0 18 -4.33301 18 -13
c0 -4 -1 -8.33301 -3 -13l-29 -64c-8 -18 -21 -27 -39 -27h-465c-22 0 -41.5 -2.33301 -58.5 -7s-32.833 -13 -47.5 -25s-28.5 -28 -41.5 -48s-26.167 -45.333 -39.5 -76l-48 -109c-12.667 -28 -22.167 -52.167 -28.5 -72.5s-9.5 -37.833 -9.5 -52.5
c0 -20.667 6.33301 -35.334 19 -44.001s31 -13 55 -13h469c12 0 18 -4.33301 18 -13c0 -4.66699 -1.33301 -9.33398 -4 -14.001l-28 -64c-8 -18 -21 -27 -39 -27h-702zM1123 729.003c-6 -13.333 -14.668 -20.001 -26.001 -20.001c-6 0 -13 1.66699 -21 5l-225 135
c-2.66699 1.33301 -5 3.33301 -7 6s-3 5.66699 -3 9c0 2.66699 1 6 3 10l18 41c6 13.333 14.333 20 25 20c4.66699 -0.666992 9.33398 -1.5 14.001 -2.5s10 -3.16699 16 -6.5l215 -138c2 -1.33301 4 -3.66602 6 -6.99902s3 -6.66602 3 -9.99902
c0 -2.66699 -0.333008 -4.33398 -1 -5.00098z" />
    <glyph glyph-name="eacute" unicode="&#xe9;" horiz-adv-x="1131" 
d="M717 313c-12 0 -18 3.99902 -18 11.999c0 4.66699 1.33301 9.33398 4 14.001l28 65c7.33301 17.333 20.333 26 39 26h477c14 0 21 -3.33301 21 -10l-2 -8l-37 -81c-6 -12 -17.333 -18 -34 -18h-478zM364 -0.000976562c-34 0 -64.168 5.33691 -90.501 16.0039
s-48.666 25.5 -66.999 44.5s-32.166 41.833 -41.499 68.5s-14 55.667 -14 87c0 38.667 6.66699 77.167 20 115.5s31.833 74.666 55.5 108.999s51.667 66.333 84 96s67.666 55.167 105.999 76.5s78.833 38.166 121.5 50.499s86 18.5 130 18.5h699c12 0 18 -4.33301 18 -13
c0 -4 -1 -8.33301 -3 -13l-29 -64c-8 -18 -21 -27 -39 -27h-465c-22 0 -41.5 -2.33301 -58.5 -7s-32.833 -13 -47.5 -25s-28.5 -28 -41.5 -48s-26.167 -45.333 -39.5 -76l-48 -109c-12.667 -28 -22.167 -52.167 -28.5 -72.5s-9.5 -37.833 -9.5 -52.5
c0 -20.667 6.33301 -35.334 19 -44.001s31 -13 55 -13h469c12 0 18 -4.33301 18 -13c0 -4.66699 -1.33301 -9.33398 -4 -14.001l-28 -64c-8 -18 -21 -27 -39 -27h-702zM838.999 714.003c-12 -3.33301 -20.332 -4.99902 -24.999 -4.99902c-7.33301 0 -11 2.66699 -11 8
c0 2.66699 1 6.66699 3 12l25 55c2.66699 8 11.667 15 27 21l333 123c7.33301 3.33301 13.666 5.33301 18.999 6s10 1 14 1c8 0 12 -3 12 -9c0 -2.66699 -1.33301 -6.33398 -4 -11.001l-28 -65c-4.66699 -9.33301 -12.667 -16 -24 -20z" />
    <glyph glyph-name="ecircumflex" unicode="&#xea;" horiz-adv-x="1131" 
d="M717 313c-12 0 -18 3.99902 -18 11.999c0 4.66699 1.33301 9.33398 4 14.001l28 65c7.33301 17.333 20.333 26 39 26h477c14 0 21 -3.33301 21 -10l-2 -8l-37 -81c-6 -12 -17.333 -18 -34 -18h-478zM364 -0.000976562c-34 0 -64.168 5.33691 -90.501 16.0039
s-48.666 25.5 -66.999 44.5s-32.166 41.833 -41.499 68.5s-14 55.667 -14 87c0 38.667 6.66699 77.167 20 115.5s31.833 74.666 55.5 108.999s51.667 66.333 84 96s67.666 55.167 105.999 76.5s78.833 38.166 121.5 50.499s86 18.5 130 18.5h699c12 0 18 -4.33301 18 -13
c0 -4 -1 -8.33301 -3 -13l-29 -64c-8 -18 -21 -27 -39 -27h-465c-22 0 -41.5 -2.33301 -58.5 -7s-32.833 -13 -47.5 -25s-28.5 -28 -41.5 -48s-26.167 -45.333 -39.5 -76l-48 -109c-12.667 -28 -22.167 -52.167 -28.5 -72.5s-9.5 -37.833 -9.5 -52.5
c0 -20.667 6.33301 -35.334 19 -44.001s31 -13 55 -13h469c12 0 18 -4.33301 18 -13c0 -4.66699 -1.33301 -9.33398 -4 -14.001l-28 -64c-8 -18 -21 -27 -39 -27h-702zM1165 738.003c-5.33301 -14 -13.6689 -21.001 -25.002 -21.001c-8 0 -15.667 2.66699 -23 8l-129 103
l-233 -107c-12 -5.33301 -22.333 -8 -31 -8c-6 0 -9 2.33301 -9 7c0 4 1.33301 8.33301 4 13l28 63c4 8 11 15 21 21l241 109c4.66699 2.66699 10.334 4 17.001 4s11.334 -1.33301 14.001 -4l144 -109c2.66699 -3.33301 4 -6.66602 4 -9.99902s-1 -7 -3 -11z" />
    <glyph glyph-name="edieresis" unicode="&#xeb;" horiz-adv-x="1131" 
d="M717 313c-12 0 -18 3.99902 -18 11.999c0 4.66699 1.33301 9.33398 4 14.001l28 65c7.33301 17.333 20.333 26 39 26h477c14 0 21 -3.33301 21 -10l-2 -8l-37 -81c-6 -12 -17.333 -18 -34 -18h-478zM364 -0.000976562c-34 0 -64.168 5.33691 -90.501 16.0039
s-48.666 25.5 -66.999 44.5s-32.166 41.833 -41.499 68.5s-14 55.667 -14 87c0 38.667 6.66699 77.167 20 115.5s31.833 74.666 55.5 108.999s51.667 66.333 84 96s67.666 55.167 105.999 76.5s78.833 38.166 121.5 50.499s86 18.5 130 18.5h699c12 0 18 -4.33301 18 -13
c0 -4 -1 -8.33301 -3 -13l-29 -64c-8 -18 -21 -27 -39 -27h-465c-22 0 -41.5 -2.33301 -58.5 -7s-32.833 -13 -47.5 -25s-28.5 -28 -41.5 -48s-26.167 -45.333 -39.5 -76l-48 -109c-12.667 -28 -22.167 -52.167 -28.5 -72.5s-9.5 -37.833 -9.5 -52.5
c0 -20.667 6.33301 -35.334 19 -44.001s31 -13 55 -13h469c12 0 18 -4.33301 18 -13c0 -4.66699 -1.33301 -9.33398 -4 -14.001l-28 -64c-8 -18 -21 -27 -39 -27h-702zM786.999 742.003c-10 0 -15 3.33301 -15 10c0 2 1 5 3 9l59 131c4.66699 12 13.667 18 27 18h98
c10.667 0 16 -3.66699 16 -11c0 -0.666992 -0.666992 -3 -2 -7l-59 -131c-6 -12.667 -15.667 -19 -29 -19h-98zM1029 742.003c-9.33301 0 -14 3.33398 -14 10.001c0 1.33301 0.166992 2.66602 0.5 3.99902s0.833008 3 1.5 5l59 131c4.66699 12 14 18 28 18h98
c9.33301 0 14 -3.33301 14 -10c0 -1.33301 -0.666992 -4 -2 -8l-59 -131c-6 -12.667 -15.333 -19 -28 -19h-98z" />
    <glyph glyph-name="igrave" unicode="&#xec;" horiz-adv-x="513" 
d="M84 0c-12 0 -18 4 -18 12c0 4 1 9 3 15l281 629c8 17.333 20.667 26 38 26h344c12.667 0 19 -4.33301 19 -13c0 -4 -1.33301 -8.33301 -4 -13l-280 -629c-8 -18 -20.667 -27 -38 -27h-345zM726 729c-6 -13.333 -14.668 -20.001 -26.001 -20.001c-6 0 -13 1.66699 -21 5
l-225 135c-2.66699 1.33301 -5 3.33301 -7 6s-3 5.66699 -3 9c0 2.66699 1 6 3 10l18 41c6 13.333 14.333 20 25 20c4.66699 -0.666992 9.33398 -1.5 14.001 -2.5s10 -3.16699 16 -6.5l215 -138c2 -1.33301 4 -3.66602 6 -6.99902s3 -6.66602 3 -9.99902
c0 -2.66699 -0.333008 -4.33398 -1 -5.00098z" />
    <glyph glyph-name="iacute" unicode="&#xed;" horiz-adv-x="513" 
d="M84 0c-12 0 -18 4 -18 12c0 4 1 9 3 15l281 629c8 17.333 20.667 26 38 26h344c12.667 0 19 -4.33301 19 -13c0 -4 -1.33301 -8.33301 -4 -13l-280 -629c-8 -18 -20.667 -27 -38 -27h-345zM469 714c-12 -3.33301 -20.332 -4.99902 -24.999 -4.99902
c-7.33301 0 -11 2.66699 -11 8c0 2.66699 1 6.66699 3 12l25 55c2.66699 8 11.667 15 27 21l333 123c7.33301 3.33301 13.666 5.33301 18.999 6s10 1 14 1c8 0 12 -3 12 -9c0 -2.66699 -1.33301 -6.33398 -4 -11.001l-28 -65c-4.66699 -9.33301 -12.667 -16 -24 -20z" />
    <glyph glyph-name="icircumflex" unicode="&#xee;" horiz-adv-x="513" 
d="M84 0c-12 0 -18 4 -18 12c0 4 1 9 3 15l281 629c8 17.333 20.667 26 38 26h344c12.667 0 19 -4.33301 19 -13c0 -4 -1.33301 -8.33301 -4 -13l-280 -629c-8 -18 -20.667 -27 -38 -27h-345zM811 738c-5.33301 -14 -13.6689 -21.001 -25.002 -21.001
c-8 0 -15.667 2.66699 -23 8l-129 103l-233 -107c-12 -5.33301 -22.333 -8 -31 -8c-6 0 -9 2.33301 -9 7c0 4 1.33301 8.33301 4 13l28 63c4 8 11 15 21 21l241 109c4.66699 2.66699 10.334 4 17.001 4s11.334 -1.33301 14.001 -4l144 -109
c2.66699 -3.33301 4 -6.66602 4 -9.99902s-1 -7 -3 -11z" />
    <glyph glyph-name="idieresis" unicode="&#xef;" horiz-adv-x="513" 
d="M84 0c-12 0 -18 4 -18 12c0 4 1 9 3 15l281 629c8 17.333 20.667 26 38 26h344c12.667 0 19 -4.33301 19 -13c0 -4 -1.33301 -8.33301 -4 -13l-280 -629c-8 -18 -20.667 -27 -38 -27h-345zM416 742c-10 0 -15 3.33301 -15 10c0 2 1 5 3 9l59 131
c4.66699 12 13.667 18 27 18h98c10.667 0 16 -3.66699 16 -11c0 -0.666992 -0.666992 -3 -2 -7l-59 -131c-6 -12.667 -15.667 -19 -29 -19h-98zM658 742c-9.33301 0 -14 3.33398 -14 10.001c0 1.33301 0.166992 2.66602 0.5 3.99902s0.833008 3 1.5 5l59 131
c4.66699 12 14 18 28 18h98c9.33301 0 14 -3.33301 14 -10c0 -1.33301 -0.666992 -4 -2 -8l-59 -131c-6 -12.667 -15.333 -19 -28 -19h-98z" />
    <glyph glyph-name="eth" unicode="&#xf0;" horiz-adv-x="1299" 
d="M113 0c-12.667 0 -19 4 -19 12c0 5.33301 1.33301 10.333 4 15l127 286h-59c-12 0 -18 4 -18 12c0 4 1 8.66699 3 14l29 65c8 17.333 20.667 26 38 26h60l101 226c8 17.333 20.667 26 38 26h803c34.667 0 65.5 -5.33301 92.5 -16s49.5 -25.5 67.5 -44.5
s31.667 -41.5 41 -67.5s14 -54.333 14 -85c0 -40.667 -7 -80.5 -21 -119.5s-33.167 -75.833 -57.5 -110.5s-53 -66.667 -86 -96s-68.667 -54.5 -107 -75.5s-78.5 -37.5 -120.5 -49.5s-84 -18 -126 -18h-804zM983 409c20.667 48 31.334 83.002 32.001 105.002
c0 19.333 -6.66699 32.666 -20 39.999s-33 11 -59 11h-202l-60 -135h191c14 0 21 -3.33301 21 -10l-2 -8l-37 -81c-6 -12 -17.667 -18 -35 -18h-190l-87 -195h203c19.333 0 37.666 3.16699 54.999 9.5s34 16.666 50 30.999s31.5 33 46.5 56s30.167 51.5 45.5 85.5z" />
    <glyph glyph-name="ntilde" unicode="&#xf1;" horiz-adv-x="1282" 
d="M1146 0c-20 0 -37 1.16699 -51 3.5s-30 7.83301 -48 16.5l-670 310l-134 -303c-8 -18 -20.667 -27 -38 -27h-129c-12.667 0 -19 4 -19 12c0 5.33301 1.33301 10.333 4 15l280 629c8 17.333 21 26 39 26h114c22 0 39.5 -1 52.5 -3s28.167 -7.33301 45.5 -16l621 -297
l130 290c8 17.333 20.667 26 38 26h129c12.667 0 19 -4.33301 19 -13c0 -4 -1.33301 -8.33301 -4 -13l-280 -629c-8 -18 -21 -27 -39 -27h-60zM1132 750c-3.33301 -1.33301 -7.16504 -2.16602 -11.498 -2.49902s-8.5 -0.5 -12.5 -0.5
c-3.33301 0 -6.83301 0.166992 -10.5 0.5s-7.16699 1.16602 -10.5 2.49902l-120 43c-5.33301 2 -10.333 3 -15 3s-10 -1 -16 -3l-126 -44c-8 -3.33301 -14.667 -5 -20 -5c-6.66699 0 -10 2.66699 -10 8c0 2 0.666992 4.33301 2 7l28 64c5.33301 14 14 22.333 26 25l117 38
c8 2.66699 17.333 4 28 4c9.33301 0 17 -1.33301 23 -4l117 -41c5.33301 -1.33301 8.66602 -2 9.99902 -2s3.33301 0.166992 6 0.5s5.66699 0.833008 9 1.5l126 44c8.66699 3.33301 15.667 5 21 5c6 0 9 -2.33301 9 -7c0 -0.666992 -0.166992 -1.5 -0.5 -2.5
s-0.5 -2.16699 -0.5 -3.5l-30 -66c-3.33301 -7.33301 -6.83301 -12.5 -10.5 -15.5s-8.83398 -5.83301 -15.501 -8.5z" />
    <glyph glyph-name="ograve" unicode="&#xf2;" horiz-adv-x="1220" 
d="M365 0c-34.667 0 -65.3311 5.50391 -91.998 16.5039s-49 26.167 -67 45.5s-31.667 42.166 -41 68.499s-14 54.833 -14 85.5c0 39.333 6.66699 78 20 116s31.833 74.333 55.5 109s51.667 66.667 84 96s67.666 54.666 105.999 75.999s78.833 38.166 121.5 50.499
s86.334 18.5 131.001 18.5h490c35.333 0 66.5 -5.33301 93.5 -16s49.5 -25.5 67.5 -44.5s31.667 -41.5 41 -67.5s14 -54.333 14 -85c0 -39.333 -6.83301 -78.166 -20.5 -116.499s-32.5 -74.833 -56.5 -109.5s-52.333 -66.834 -85 -96.501s-68.334 -55.334 -107.001 -77.001
s-79.334 -38.667 -122.001 -51s-85.667 -18.5 -129 -18.5h-490zM967.003 409.004c10.667 23.333 19.001 43.667 25.001 61s8.66699 32 8 44c0 19.333 -6.83301 32.666 -20.5 39.999s-33.834 11 -60.501 11h-136c-19.333 0 -37.166 -2.5 -53.499 -7.5
s-31.5 -13.5 -45.5 -25.5s-27.5 -28 -40.5 -48s-26.167 -45 -39.5 -75l-48 -109c-25.333 -58 -38 -100.667 -38 -128c0 -19.333 5.66699 -33.166 17 -41.499s27.666 -12.5 48.999 -12.5h137c20.667 0 39.667 3.16699 57 9.5s34 16.5 50 30.5s31.333 32.667 46 56
s29.667 52 45 86zM1079 729.005c-6 -13.333 -14.668 -20.001 -26.001 -20.001c-6 0 -13 1.66699 -21 5l-225 135c-2.66699 1.33301 -5 3.33301 -7 6s-3 5.66699 -3 9c0 2.66699 1 6 3 10l18 41c6 13.333 14.333 20 25 20c4.66699 -0.666992 9.33398 -1.5 14.001 -2.5
s10 -3.16699 16 -6.5l215 -138c2 -1.33301 4 -3.66602 6 -6.99902s3 -6.66602 3 -9.99902c0 -2.66699 -0.333008 -4.33398 -1 -5.00098z" />
    <glyph glyph-name="oacute" unicode="&#xf3;" horiz-adv-x="1220" 
d="M365 0c-34.667 0 -65.3311 5.50391 -91.998 16.5039s-49 26.167 -67 45.5s-31.667 42.166 -41 68.499s-14 54.833 -14 85.5c0 39.333 6.66699 78 20 116s31.833 74.333 55.5 109s51.667 66.667 84 96s67.666 54.666 105.999 75.999s78.833 38.166 121.5 50.499
s86.334 18.5 131.001 18.5h490c35.333 0 66.5 -5.33301 93.5 -16s49.5 -25.5 67.5 -44.5s31.667 -41.5 41 -67.5s14 -54.333 14 -85c0 -39.333 -6.83301 -78.166 -20.5 -116.499s-32.5 -74.833 -56.5 -109.5s-52.333 -66.834 -85 -96.501s-68.334 -55.334 -107.001 -77.001
s-79.334 -38.667 -122.001 -51s-85.667 -18.5 -129 -18.5h-490zM967.003 409.004c10.667 23.333 19.001 43.667 25.001 61s8.66699 32 8 44c0 19.333 -6.83301 32.666 -20.5 39.999s-33.834 11 -60.501 11h-136c-19.333 0 -37.166 -2.5 -53.499 -7.5
s-31.5 -13.5 -45.5 -25.5s-27.5 -28 -40.5 -48s-26.167 -45 -39.5 -75l-48 -109c-25.333 -58 -38 -100.667 -38 -128c0 -19.333 5.66699 -33.166 17 -41.499s27.666 -12.5 48.999 -12.5h137c20.667 0 39.667 3.16699 57 9.5s34 16.5 50 30.5s31.333 32.667 46 56
s29.667 52 45 86zM823.004 714.005c-12 -3.33301 -20.332 -4.99902 -24.999 -4.99902c-7.33301 0 -11 2.66699 -11 8c0 2.66699 1 6.66699 3 12l25 55c2.66699 8 11.667 15 27 21l333 123c7.33301 3.33301 13.666 5.33301 18.999 6s10 1 14 1c8 0 12 -3 12 -9
c0 -2.66699 -1.33301 -6.33398 -4 -11.001l-28 -65c-4.66699 -9.33301 -12.667 -16 -24 -20z" />
    <glyph glyph-name="ocircumflex" unicode="&#xf4;" horiz-adv-x="1220" 
d="M365 0c-34.667 0 -65.3311 5.50391 -91.998 16.5039s-49 26.167 -67 45.5s-31.667 42.166 -41 68.499s-14 54.833 -14 85.5c0 39.333 6.66699 78 20 116s31.833 74.333 55.5 109s51.667 66.667 84 96s67.666 54.666 105.999 75.999s78.833 38.166 121.5 50.499
s86.334 18.5 131.001 18.5h490c35.333 0 66.5 -5.33301 93.5 -16s49.5 -25.5 67.5 -44.5s31.667 -41.5 41 -67.5s14 -54.333 14 -85c0 -39.333 -6.83301 -78.166 -20.5 -116.499s-32.5 -74.833 -56.5 -109.5s-52.333 -66.834 -85 -96.501s-68.334 -55.334 -107.001 -77.001
s-79.334 -38.667 -122.001 -51s-85.667 -18.5 -129 -18.5h-490zM967.003 409.004c10.667 23.333 19.001 43.667 25.001 61s8.66699 32 8 44c0 19.333 -6.83301 32.666 -20.5 39.999s-33.834 11 -60.501 11h-136c-19.333 0 -37.166 -2.5 -53.499 -7.5
s-31.5 -13.5 -45.5 -25.5s-27.5 -28 -40.5 -48s-26.167 -45 -39.5 -75l-48 -109c-25.333 -58 -38 -100.667 -38 -128c0 -19.333 5.66699 -33.166 17 -41.499s27.666 -12.5 48.999 -12.5h137c20.667 0 39.667 3.16699 57 9.5s34 16.5 50 30.5s31.333 32.667 46 56
s29.667 52 45 86zM1164 738.005c-5.33301 -14 -13.6689 -21.001 -25.002 -21.001c-8 0 -15.667 2.66699 -23 8l-129 103l-233 -107c-12 -5.33301 -22.333 -8 -31 -8c-6 0 -9 2.33301 -9 7c0 4 1.33301 8.33301 4 13l28 63c4 8 11 15 21 21l241 109
c4.66699 2.66699 10.334 4 17.001 4s11.334 -1.33301 14.001 -4l144 -109c2.66699 -3.33301 4 -6.66602 4 -9.99902s-1 -7 -3 -11z" />
    <glyph glyph-name="otilde" unicode="&#xf5;" horiz-adv-x="1220" 
d="M365 0c-34.667 0 -65.3311 5.50391 -91.998 16.5039s-49 26.167 -67 45.5s-31.667 42.166 -41 68.499s-14 54.833 -14 85.5c0 39.333 6.66699 78 20 116s31.833 74.333 55.5 109s51.667 66.667 84 96s67.666 54.666 105.999 75.999s78.833 38.166 121.5 50.499
s86.334 18.5 131.001 18.5h490c35.333 0 66.5 -5.33301 93.5 -16s49.5 -25.5 67.5 -44.5s31.667 -41.5 41 -67.5s14 -54.333 14 -85c0 -39.333 -6.83301 -78.166 -20.5 -116.499s-32.5 -74.833 -56.5 -109.5s-52.333 -66.834 -85 -96.501s-68.334 -55.334 -107.001 -77.001
s-79.334 -38.667 -122.001 -51s-85.667 -18.5 -129 -18.5h-490zM967.003 409.004c10.667 23.333 19.001 43.667 25.001 61s8.66699 32 8 44c0 19.333 -6.83301 32.666 -20.5 39.999s-33.834 11 -60.501 11h-136c-19.333 0 -37.166 -2.5 -53.499 -7.5
s-31.5 -13.5 -45.5 -25.5s-27.5 -28 -40.5 -48s-26.167 -45 -39.5 -75l-48 -109c-25.333 -58 -38 -100.667 -38 -128c0 -19.333 5.66699 -33.166 17 -41.499s27.666 -12.5 48.999 -12.5h137c20.667 0 39.667 3.16699 57 9.5s34 16.5 50 30.5s31.333 32.667 46 56
s29.667 52 45 86zM1065 750.005c-3.33301 -1.33301 -7.16504 -2.16602 -11.498 -2.49902s-8.5 -0.5 -12.5 -0.5c-3.33301 0 -6.83301 0.166992 -10.5 0.5s-7.16699 1.16602 -10.5 2.49902l-120 43c-5.33301 2 -10.333 3 -15 3s-10 -1 -16 -3l-126 -44
c-8 -3.33301 -14.667 -5 -20 -5c-6.66699 0 -10 2.66699 -10 8c0 2 0.666992 4.33301 2 7l28 64c5.33301 14 14 22.333 26 25l117 38c8 2.66699 17.333 4 28 4c9.33301 0 17 -1.33301 23 -4l117 -41c5.33301 -1.33301 8.66602 -2 9.99902 -2s3.33301 0.166992 6 0.5
s5.66699 0.833008 9 1.5l126 44c8.66699 3.33301 15.667 5 21 5c6 0 9 -2.33301 9 -7c0 -0.666992 -0.166992 -1.5 -0.5 -2.5s-0.5 -2.16699 -0.5 -3.5l-30 -66c-3.33301 -7.33301 -6.83301 -12.5 -10.5 -15.5s-8.83398 -5.83301 -15.501 -8.5z" />
    <glyph glyph-name="odieresis" unicode="&#xf6;" horiz-adv-x="1220" 
d="M365 0c-34.667 0 -65.3311 5.50391 -91.998 16.5039s-49 26.167 -67 45.5s-31.667 42.166 -41 68.499s-14 54.833 -14 85.5c0 39.333 6.66699 78 20 116s31.833 74.333 55.5 109s51.667 66.667 84 96s67.666 54.666 105.999 75.999s78.833 38.166 121.5 50.499
s86.334 18.5 131.001 18.5h490c35.333 0 66.5 -5.33301 93.5 -16s49.5 -25.5 67.5 -44.5s31.667 -41.5 41 -67.5s14 -54.333 14 -85c0 -39.333 -6.83301 -78.166 -20.5 -116.499s-32.5 -74.833 -56.5 -109.5s-52.333 -66.834 -85 -96.501s-68.334 -55.334 -107.001 -77.001
s-79.334 -38.667 -122.001 -51s-85.667 -18.5 -129 -18.5h-490zM967.003 409.004c10.667 23.333 19.001 43.667 25.001 61s8.66699 32 8 44c0 19.333 -6.83301 32.666 -20.5 39.999s-33.834 11 -60.501 11h-136c-19.333 0 -37.166 -2.5 -53.499 -7.5
s-31.5 -13.5 -45.5 -25.5s-27.5 -28 -40.5 -48s-26.167 -45 -39.5 -75l-48 -109c-25.333 -58 -38 -100.667 -38 -128c0 -19.333 5.66699 -33.166 17 -41.499s27.666 -12.5 48.999 -12.5h137c20.667 0 39.667 3.16699 57 9.5s34 16.5 50 30.5s31.333 32.667 46 56
s29.667 52 45 86zM770.004 742.005c-10 0 -15 3.33301 -15 10c0 2 1 5 3 9l59 131c4.66699 12 13.667 18 27 18h98c10.667 0 16 -3.66699 16 -11c0 -0.666992 -0.666992 -3 -2 -7l-59 -131c-6 -12.667 -15.667 -19 -29 -19h-98zM1012 742.005
c-9.33301 0 -14 3.33398 -14 10.001c0 1.33301 0.166992 2.66602 0.5 3.99902s0.833008 3 1.5 5l59 131c4.66699 12 14 18 28 18h98c9.33301 0 14 -3.33301 14 -10c0 -1.33301 -0.666992 -4 -2 -8l-59 -131c-6 -12.667 -15.333 -19 -28 -19h-98z" />
    <glyph glyph-name="divide" unicode="&#xf7;" horiz-adv-x="747" 
d="M214 301c-12.667 0 -18.998 4.33105 -18.998 12.998c0 4.66699 1.33301 9.33398 4 14.001l13 28c8 18 20.667 27 38 27h587c12.667 0 19 -4.33301 19 -13c0 -2 -0.333008 -4 -1 -6s-1.33398 -4.66699 -2.00098 -8l-14 -28
c-4.66699 -9.33301 -9.83398 -16.166 -15.501 -20.499s-13.167 -6.5 -22.5 -6.5h-587zM496.002 453.998c-20 0 -30 7.00098 -30 21.001c0 8 1.66699 16 5 24l64 144c6.66699 14.667 15.667 25.667 27 33s24 11 38 11h160c20 0 30 -7 30 -21
c0 -6.66699 -2 -14.334 -6 -23.001l-64 -144c-14 -30 -35.667 -45 -65 -45h-159zM294.002 -0.000976562c-20 0 -30 7.00098 -30 21.001c0 8 1.66699 16 5 24l64 144c6.66699 14.667 15.667 25.667 27 33s24 11 38 11h160c20 0 30 -7 30 -21
c0 -6.66699 -2 -14.334 -6 -23.001l-64 -144c-14 -30 -35.667 -45 -65 -45h-159z" />
    <glyph glyph-name="oslash" unicode="&#xf8;" horiz-adv-x="1220" 
d="M380 0l-66.999 -54.9961c-8 -7.33301 -14.5 -11.833 -19.5 -13.5s-11.833 -2.5 -20.5 -2.5h-48c-10.667 0 -16 3.33301 -16 10c0 3.33301 1.66699 7.16602 5 11.499s7 8.5 11 12.5l59 47c-22 6 -41.167 15.5 -57.5 28.5s-30.166 28.5 -41.499 46.5
s-19.833 38.167 -25.5 60.5s-8.5 45.833 -8.5 70.5c0 39.333 6.66699 78 20 116s31.833 74.333 55.5 109s51.667 66.667 84 96s67.666 54.666 105.999 75.999s78.833 38.166 121.5 50.499s86.334 18.5 131.001 18.5h443l68 56c7.33301 6.66699 13.666 10.834 18.999 12.501
s12.333 2.83398 21 3.50098h48c10.667 0 16 -3.66699 16 -11c0 -2.66699 -1.66699 -6.33398 -5 -11.001s-7 -8.66699 -11 -12l-52 -42c26 -4.66699 48.833 -13.167 68.5 -25.5s36.167 -27.833 49.5 -46.5s23.333 -39.667 30 -63s10 -48.333 10 -75
c0 -39.333 -6.83301 -78 -20.5 -116s-32.334 -74.333 -56.001 -109s-52 -66.834 -85 -96.501s-68.667 -55.334 -107 -77.001s-78.833 -38.667 -121.5 -51s-85.667 -18.5 -129 -18.5h-475zM967.001 409.004c17.333 38 28 68.999 32 92.999l-461 -375
c5.33301 -3.33301 12 -5.66602 20 -6.99902s16.667 -2 26 -2h137c20.667 0 39.667 3.16699 57 9.5s34 16.5 50 30.5s31.333 32.667 46 56s29.667 52 45 86zM783.001 565.003c-19.333 0 -37.168 -2.49902 -53.501 -7.49902s-31.5 -13.5 -45.5 -25.5s-27.5 -28 -40.5 -48
s-26.167 -45 -39.5 -75l-48 -109c-9.33301 -20.667 -17 -38.834 -23 -54.501s-10 -30.167 -12 -43.5l441 358c-5.33301 2 -11.666 3.33301 -18.999 4s-15.333 1 -24 1h-136z" />
    <glyph glyph-name="ugrave" unicode="&#xf9;" horiz-adv-x="1188" 
d="M386 0c-85.333 0 -147.166 13.833 -185.499 41.5s-57.5 66.5 -57.5 116.5c0 43.333 13.667 95.333 41 156l153 342c8 17.333 20.667 26 38 26h373c12.667 0 19 -4.33301 19 -13c0 -4 -1.33301 -8.33301 -4 -13l-152 -342c-20 -44 -30 -81.333 -30 -112
c0 -28 8.5 -49 25.5 -63s43.833 -21 80.5 -21h172c57.333 0 107 17.167 149 51.5s77 82.5 105 144.5l152 342c8 17.333 20.667 26 38 26h121c12 0 18 -4.33301 18 -13c0 -4 -1 -8.33301 -3 -13l-153 -342c-19.333 -44 -44.333 -85 -75 -123s-66.334 -71.333 -107.001 -100
s-86 -51 -136 -67s-104 -24 -162 -24h-420zM1215 729c-6 -13.333 -14.668 -20.001 -26.001 -20.001c-6 0 -13 1.66699 -21 5l-225 135c-2.66699 1.33301 -5 3.33301 -7 6s-3 5.66699 -3 9c0 2.66699 1 6 3 10l18 41c6 13.333 14.333 20 25 20
c4.66699 -0.666992 9.33398 -1.5 14.001 -2.5s10 -3.16699 16 -6.5l215 -138c2 -1.33301 4 -3.66602 6 -6.99902s3 -6.66602 3 -9.99902c0 -2.66699 -0.333008 -4.33398 -1 -5.00098z" />
    <glyph glyph-name="uacute" unicode="&#xfa;" horiz-adv-x="1188" 
d="M386 0c-85.333 0 -147.166 13.833 -185.499 41.5s-57.5 66.5 -57.5 116.5c0 43.333 13.667 95.333 41 156l153 342c8 17.333 20.667 26 38 26h373c12.667 0 19 -4.33301 19 -13c0 -4 -1.33301 -8.33301 -4 -13l-152 -342c-20 -44 -30 -81.333 -30 -112
c0 -28 8.5 -49 25.5 -63s43.833 -21 80.5 -21h172c57.333 0 107 17.167 149 51.5s77 82.5 105 144.5l152 342c8 17.333 20.667 26 38 26h121c12 0 18 -4.33301 18 -13c0 -4 -1 -8.33301 -3 -13l-153 -342c-19.333 -44 -44.333 -85 -75 -123s-66.334 -71.333 -107.001 -100
s-86 -51 -136 -67s-104 -24 -162 -24h-420zM913 714c-12 -3.33301 -20.332 -4.99902 -24.999 -4.99902c-7.33301 0 -11 2.66699 -11 8c0 2.66699 1 6.66699 3 12l25 55c2.66699 8 11.667 15 27 21l333 123c7.33301 3.33301 13.666 5.33301 18.999 6s10 1 14 1
c8 0 12 -3 12 -9c0 -2.66699 -1.33301 -6.33398 -4 -11.001l-28 -65c-4.66699 -9.33301 -12.667 -16 -24 -20z" />
    <glyph glyph-name="ucircumflex" unicode="&#xfb;" horiz-adv-x="1188" 
d="M386 0c-85.333 0 -147.166 13.833 -185.499 41.5s-57.5 66.5 -57.5 116.5c0 43.333 13.667 95.333 41 156l153 342c8 17.333 20.667 26 38 26h373c12.667 0 19 -4.33301 19 -13c0 -4 -1.33301 -8.33301 -4 -13l-152 -342c-20 -44 -30 -81.333 -30 -112
c0 -28 8.5 -49 25.5 -63s43.833 -21 80.5 -21h172c57.333 0 107 17.167 149 51.5s77 82.5 105 144.5l152 342c8 17.333 20.667 26 38 26h121c12 0 18 -4.33301 18 -13c0 -4 -1 -8.33301 -3 -13l-153 -342c-19.333 -44 -44.333 -85 -75 -123s-66.334 -71.333 -107.001 -100
s-86 -51 -136 -67s-104 -24 -162 -24h-420zM1271 738c-5.33301 -14 -13.6689 -21.001 -25.002 -21.001c-8 0 -15.667 2.66699 -23 8l-129 103l-233 -107c-12 -5.33301 -22.333 -8 -31 -8c-6 0 -9 2.33301 -9 7c0 4 1.33301 8.33301 4 13l28 63c4 8 11 15 21 21l241 109
c4.66699 2.66699 10.334 4 17.001 4s11.334 -1.33301 14.001 -4l144 -109c2.66699 -3.33301 4 -6.66602 4 -9.99902s-1 -7 -3 -11z" />
    <glyph glyph-name="udieresis" unicode="&#xfc;" horiz-adv-x="1188" 
d="M386 0c-85.333 0 -147.166 13.833 -185.499 41.5s-57.5 66.5 -57.5 116.5c0 43.333 13.667 95.333 41 156l153 342c8 17.333 20.667 26 38 26h373c12.667 0 19 -4.33301 19 -13c0 -4 -1.33301 -8.33301 -4 -13l-152 -342c-20 -44 -30 -81.333 -30 -112
c0 -28 8.5 -49 25.5 -63s43.833 -21 80.5 -21h172c57.333 0 107 17.167 149 51.5s77 82.5 105 144.5l152 342c8 17.333 20.667 26 38 26h121c12 0 18 -4.33301 18 -13c0 -4 -1 -8.33301 -3 -13l-153 -342c-19.333 -44 -44.333 -85 -75 -123s-66.334 -71.333 -107.001 -100
s-86 -51 -136 -67s-104 -24 -162 -24h-420zM888 742c-10 0 -15 3.33301 -15 10c0 2 1 5 3 9l59 131c4.66699 12 13.667 18 27 18h98c10.667 0 16 -3.66699 16 -11c0 -0.666992 -0.666992 -3 -2 -7l-59 -131c-6 -12.667 -15.667 -19 -29 -19h-98zM1130 742
c-9.33301 0 -14 3.33398 -14 10.001c0 1.33301 0.166992 2.66602 0.5 3.99902s0.833008 3 1.5 5l59 131c4.66699 12 14 18 28 18h98c9.33301 0 14 -3.33301 14 -10c0 -1.33301 -0.666992 -4 -2 -8l-59 -131c-6 -12.667 -15.333 -19 -28 -19h-98z" />
    <glyph glyph-name="yacute" unicode="&#xfd;" horiz-adv-x="1139" 
d="M888 271l-108.001 -244.001c-4 -9.33301 -9.5 -16.166 -16.5 -20.499s-14.5 -6.5 -22.5 -6.5h-344c-12 0 -18 4 -18 12c0 4 1 9 3 15l107 238l-188 383c-1.33301 1.33301 -2.16602 3.33301 -2.49902 6s-0.5 4.66699 -0.5 6c0 7.33301 3.33301 12.833 10 16.5
s13 5.5 19 5.5h394c18 0 30 -6.66699 36 -20l136 -292l407 293c10.667 7.33301 19.667 12.333 27 15s16 4 26 4h67c8.66699 0 13 -3.33301 13 -10c0 -6 -4 -12 -12 -18zM870.999 713.999c-12 -3.33301 -20.332 -4.99902 -24.999 -4.99902c-7.33301 0 -11 2.66699 -11 8
c0 2.66699 1 6.66699 3 12l25 55c2.66699 8 11.667 15 27 21l333 123c7.33301 3.33301 13.666 5.33301 18.999 6s10 1 14 1c8 0 12 -3 12 -9c0 -2.66699 -1.33301 -6.33398 -4 -11.001l-28 -65c-4.66699 -9.33301 -12.667 -16 -24 -20z" />
    <glyph glyph-name="thorn" unicode="&#xfe;" horiz-adv-x="1177" 
d="M567 108c-12.667 0 -19 3.99902 -19 11.999c0 4 1 9 3 15l29 64c8 17.333 21 26 39 26h128c24 0 46.333 3.16699 67 9.5s38.667 15.5 54 27.5s27.333 26.833 36 44.5s13 37.5 13 59.5s-7.16699 38.333 -21.5 49s-33.833 16 -58.5 16h-213l-180 -404
c-8 -18 -21 -27 -39 -27h-343c-12 0 -18 4 -18 12c0 4 1 9 3 15l281 629c8 17.333 20.667 26 38 26h343c12.667 0 19 -4.33301 19 -13c0 -4 -1.33301 -8.33301 -4 -13l-48 -107h485c48.667 0 87.167 -12.5 115.5 -37.5s42.5 -60.5 42.5 -106.5
c0 -45.333 -10.667 -86.166 -32 -122.499s-49.666 -67.5 -84.999 -93.5s-75.833 -46 -121.5 -60s-92.834 -21 -141.501 -21h-372z" />
    <glyph glyph-name="ydieresis" unicode="&#xff;" horiz-adv-x="1139" 
d="M888 271l-108.001 -244.001c-4 -9.33301 -9.5 -16.166 -16.5 -20.499s-14.5 -6.5 -22.5 -6.5h-344c-12 0 -18 4 -18 12c0 4 1 9 3 15l107 238l-188 383c-1.33301 1.33301 -2.16602 3.33301 -2.49902 6s-0.5 4.66699 -0.5 6c0 7.33301 3.33301 12.833 10 16.5
s13 5.5 19 5.5h394c18 0 30 -6.66699 36 -20l136 -292l407 293c10.667 7.33301 19.667 12.333 27 15s16 4 26 4h67c8.66699 0 13 -3.33301 13 -10c0 -6 -4 -12 -12 -18zM842.999 741.999c-10 0 -15 3.33301 -15 10c0 2 1 5 3 9l59 131c4.66699 12 13.667 18 27 18h98
c10.667 0 16 -3.66699 16 -11c0 -0.666992 -0.666992 -3 -2 -7l-59 -131c-6 -12.667 -15.667 -19 -29 -19h-98zM1085 741.999c-9.33301 0 -14 3.33398 -14 10.001c0 1.33301 0.166992 2.66602 0.5 3.99902s0.833008 3 1.5 5l59 131c4.66699 12 14 18 28 18h98
c9.33301 0 14 -3.33301 14 -10c0 -1.33301 -0.666992 -4 -2 -8l-59 -131c-6 -12.667 -15.333 -19 -28 -19h-98z" />
    <glyph glyph-name="Amacron" unicode="&#x100;" 
d="M979 0c-20.667 0 -35 6.66797 -43 20.001l-208 401l-441 -303h454c12 0 18 -4.33301 18 -13c0 -4.66699 -1.33301 -9.33398 -4 -14.001l-28 -64c-8 -18 -20.667 -27 -38 -27h-667c-8.66699 0 -13 4 -13 12c0 6 5.33301 13 16 21l908 630c18.667 12.667 35.667 19 51 19
h65c9.33301 0 16.833 -1.66699 22.5 -5s10.167 -8 13.5 -14l338 -628c1.33301 -6.66699 2 -10.667 2 -12c0 -6 -2.5 -11.333 -7.5 -16s-13.167 -7 -24.5 -7h-414zM885 763.001c-9.33301 0 -14 3 -14 9c0 2.66699 1 5.66699 3 9l26 56c3.33301 6 6.83301 10.667 10.5 14
s9.16699 5 16.5 5h328c9.33301 0 14 -3.66699 14 -11l-2 -8l-26 -56c-6 -12 -15.333 -18 -28 -18h-328z" />
    <glyph glyph-name="amacron" unicode="&#x101;" 
d="M979 0c-20.667 0 -35 6.66797 -43 20.001l-208 401l-441 -303h454c12 0 18 -4.33301 18 -13c0 -4.66699 -1.33301 -9.33398 -4 -14.001l-28 -64c-8 -18 -20.667 -27 -38 -27h-667c-8.66699 0 -13 4 -13 12c0 6 5.33301 13 16 21l908 630c18.667 12.667 35.667 19 51 19
h65c9.33301 0 16.833 -1.66699 22.5 -5s10.167 -8 13.5 -14l338 -628c1.33301 -6.66699 2 -10.667 2 -12c0 -6 -2.5 -11.333 -7.5 -16s-13.167 -7 -24.5 -7h-414zM885 763.001c-9.33301 0 -14 3 -14 9c0 2.66699 1 5.66699 3 9l26 56c3.33301 6 6.83301 10.667 10.5 14
s9.16699 5 16.5 5h328c9.33301 0 14 -3.66699 14 -11l-2 -8l-26 -56c-6 -12 -15.333 -18 -28 -18h-328z" />
    <glyph glyph-name="Abreve" unicode="&#x102;" 
d="M979 0c-20.667 0 -35 6.66797 -43 20.001l-208 401l-441 -303h454c12 0 18 -4.33301 18 -13c0 -4.66699 -1.33301 -9.33398 -4 -14.001l-28 -64c-8 -18 -20.667 -27 -38 -27h-667c-8.66699 0 -13 4 -13 12c0 6 5.33301 13 16 21l908 630c18.667 12.667 35.667 19 51 19
h65c9.33301 0 16.833 -1.66699 22.5 -5s10.167 -8 13.5 -14l338 -628c1.33301 -6.66699 2 -10.667 2 -12c0 -6 -2.5 -11.333 -7.5 -16s-13.167 -7 -24.5 -7h-414zM1128 749.001c-9.33301 -5.33301 -21.335 -8 -36.002 -8h-105c-15.333 0 -24.666 2.66699 -27.999 8l-60 87
c-2 2 -3 5.33301 -3 10c0 3.33301 1 6.66602 3 9.99902l26 60c4.66699 12 11.667 18 21 18c6 0 11.667 -2.66699 17 -8l60 -83c2.66699 -4 9.33398 -6 20.001 -6h63c5.33301 0 10 0.333008 14 1s7.66699 2.33398 11 5.00098l137 83c5.33301 3.33301 9.83301 5.5 13.5 6.5
s8.16699 1.5 13.5 1.5c7.33301 0 11 -3 11 -9c0 -4 -1.33301 -9 -4 -15l-21 -54c-2.66699 -8 -8.66699 -14.667 -18 -20z" />
    <glyph glyph-name="abreve" unicode="&#x103;" 
d="M979 0c-20.667 0 -35 6.66797 -43 20.001l-208 401l-441 -303h454c12 0 18 -4.33301 18 -13c0 -4.66699 -1.33301 -9.33398 -4 -14.001l-28 -64c-8 -18 -20.667 -27 -38 -27h-667c-8.66699 0 -13 4 -13 12c0 6 5.33301 13 16 21l908 630c18.667 12.667 35.667 19 51 19
h65c9.33301 0 16.833 -1.66699 22.5 -5s10.167 -8 13.5 -14l338 -628c1.33301 -6.66699 2 -10.667 2 -12c0 -6 -2.5 -11.333 -7.5 -16s-13.167 -7 -24.5 -7h-414zM1128 749.001c-9.33301 -5.33301 -21.335 -8 -36.002 -8h-105c-15.333 0 -24.666 2.66699 -27.999 8l-60 87
c-2 2 -3 5.33301 -3 10c0 3.33301 1 6.66602 3 9.99902l26 60c4.66699 12 11.667 18 21 18c6 0 11.667 -2.66699 17 -8l60 -83c2.66699 -4 9.33398 -6 20.001 -6h63c5.33301 0 10 0.333008 14 1s7.66699 2.33398 11 5.00098l137 83c5.33301 3.33301 9.83301 5.5 13.5 6.5
s8.16699 1.5 13.5 1.5c7.33301 0 11 -3 11 -9c0 -4 -1.33301 -9 -4 -15l-21 -54c-2.66699 -8 -8.66699 -14.667 -18 -20z" />
    <glyph glyph-name="Aogonek" unicode="&#x104;" 
d="M1053 -216c-19.333 0 -29 7.99805 -29 23.998c0 6 2.66699 13.833 8 23.5s15.666 20.5 30.999 32.5l178 136h-267c-21.333 0 -35.666 6.66699 -42.999 20l-209 401l-441 -303h454c12.667 0 19 -4.66699 19 -14c0 -4 -1.33301 -8.33301 -4 -13l-28 -64
c-8 -18 -21 -27 -39 -27h-661c-9.33301 0 -14 3.66699 -14 11c0 2.66699 1.16699 5.83398 3.5 9.50098s6.83301 7.83398 13.5 12.501l908 630c18.667 12.667 35.667 19 51 19h65c9.33301 0 16.833 -1.66699 22.5 -5s10.167 -8 13.5 -14l338 -628l2 -10
c0 -6.66699 -2.66699 -12.5 -8 -17.5s-13.333 -7.5 -24 -7.5h-75l-120 -90c-4.66699 -4 -7 -8 -7 -12c0 -2 2.33301 -3 7 -3h54c8.66699 0 13 -3 13 -9c0 -4 -1.33301 -8.33301 -4 -13l-31 -70c-6 -12.667 -14.333 -19 -25 -19h-152z" />
    <glyph glyph-name="aogonek" unicode="&#x105;" 
d="M1053 -216c-19.333 0 -29 7.99805 -29 23.998c0 6 2.66699 13.833 8 23.5s15.666 20.5 30.999 32.5l178 136h-267c-21.333 0 -35.666 6.66699 -42.999 20l-209 401l-441 -303h454c12.667 0 19 -4.66699 19 -14c0 -4 -1.33301 -8.33301 -4 -13l-28 -64
c-8 -18 -21 -27 -39 -27h-661c-9.33301 0 -14 3.66699 -14 11c0 2.66699 1.16699 5.83398 3.5 9.50098s6.83301 7.83398 13.5 12.501l908 630c18.667 12.667 35.667 19 51 19h65c9.33301 0 16.833 -1.66699 22.5 -5s10.167 -8 13.5 -14l338 -628l2 -10
c0 -6.66699 -2.66699 -12.5 -8 -17.5s-13.333 -7.5 -24 -7.5h-75l-120 -90c-4.66699 -4 -7 -8 -7 -12c0 -2 2.33301 -3 7 -3h54c8.66699 0 13 -3 13 -9c0 -4 -1.33301 -8.33301 -4 -13l-31 -70c-6 -12.667 -14.333 -19 -25 -19h-152z" />
    <glyph glyph-name="Cacute" unicode="&#x106;" horiz-adv-x="1104" 
d="M364 0c-34 0 -64.1689 5.33691 -90.502 16.0039s-48.666 25.5 -66.999 44.5s-32.166 41.833 -41.499 68.5s-14 55.667 -14 87c0 38.667 6.66699 77.167 20 115.5s31.833 74.666 55.5 108.999s51.667 66.333 84 96s67.666 55.167 105.999 76.5s78.833 38.166 121.5 50.499
s86 18.5 130 18.5h681c12 0 18 -4.33301 18 -13c0 -2 -0.166992 -4 -0.5 -6s-1.16602 -4.33301 -2.49902 -7l-29 -64c-8 -18 -21 -27 -39 -27h-447c-22 0 -41.5 -2.33301 -58.5 -7s-32.833 -13 -47.5 -25s-28.5 -28 -41.5 -48s-26.167 -45.333 -39.5 -76l-48 -109
c-12.667 -28 -22.167 -52.167 -28.5 -72.5s-9.5 -37.833 -9.5 -52.5c0 -20.667 6.33301 -35.334 19 -44.001s31 -13 55 -13h451c12 0 18 -4.33301 18 -13c0 -4.66699 -1.33301 -9.33398 -4 -14.001l-28 -64c-8 -18 -20.667 -27 -38 -27h-685zM838.998 714.004
c-12 -3.33301 -20.332 -4.99902 -24.999 -4.99902c-7.33301 0 -11 2.66699 -11 8c0 2.66699 1 6.66699 3 12l25 55c2.66699 8 11.667 15 27 21l333 123c7.33301 3.33301 13.666 5.33301 18.999 6s10 1 14 1c8 0 12 -3 12 -9c0 -2.66699 -1.33301 -6.33398 -4 -11.001
l-28 -65c-4.66699 -9.33301 -12.667 -16 -24 -20z" />
    <glyph glyph-name="cacute" unicode="&#x107;" horiz-adv-x="1104" 
d="M364 0c-34 0 -64.1689 5.33691 -90.502 16.0039s-48.666 25.5 -66.999 44.5s-32.166 41.833 -41.499 68.5s-14 55.667 -14 87c0 38.667 6.66699 77.167 20 115.5s31.833 74.666 55.5 108.999s51.667 66.333 84 96s67.666 55.167 105.999 76.5s78.833 38.166 121.5 50.499
s86 18.5 130 18.5h681c12 0 18 -4.33301 18 -13c0 -2 -0.166992 -4 -0.5 -6s-1.16602 -4.33301 -2.49902 -7l-29 -64c-8 -18 -21 -27 -39 -27h-447c-22 0 -41.5 -2.33301 -58.5 -7s-32.833 -13 -47.5 -25s-28.5 -28 -41.5 -48s-26.167 -45.333 -39.5 -76l-48 -109
c-12.667 -28 -22.167 -52.167 -28.5 -72.5s-9.5 -37.833 -9.5 -52.5c0 -20.667 6.33301 -35.334 19 -44.001s31 -13 55 -13h451c12 0 18 -4.33301 18 -13c0 -4.66699 -1.33301 -9.33398 -4 -14.001l-28 -64c-8 -18 -20.667 -27 -38 -27h-685zM838.998 714.004
c-12 -3.33301 -20.332 -4.99902 -24.999 -4.99902c-7.33301 0 -11 2.66699 -11 8c0 2.66699 1 6.66699 3 12l25 55c2.66699 8 11.667 15 27 21l333 123c7.33301 3.33301 13.666 5.33301 18.999 6s10 1 14 1c8 0 12 -3 12 -9c0 -2.66699 -1.33301 -6.33398 -4 -11.001
l-28 -65c-4.66699 -9.33301 -12.667 -16 -24 -20z" />
    <glyph glyph-name="Ccircumflex" unicode="&#x108;" horiz-adv-x="1104" 
d="M364 0c-34 0 -64.1689 5.33691 -90.502 16.0039s-48.666 25.5 -66.999 44.5s-32.166 41.833 -41.499 68.5s-14 55.667 -14 87c0 38.667 6.66699 77.167 20 115.5s31.833 74.666 55.5 108.999s51.667 66.333 84 96s67.666 55.167 105.999 76.5s78.833 38.166 121.5 50.499
s86 18.5 130 18.5h681c12 0 18 -4.33301 18 -13c0 -2 -0.166992 -4 -0.5 -6s-1.16602 -4.33301 -2.49902 -7l-29 -64c-8 -18 -21 -27 -39 -27h-447c-22 0 -41.5 -2.33301 -58.5 -7s-32.833 -13 -47.5 -25s-28.5 -28 -41.5 -48s-26.167 -45.333 -39.5 -76l-48 -109
c-12.667 -28 -22.167 -52.167 -28.5 -72.5s-9.5 -37.833 -9.5 -52.5c0 -20.667 6.33301 -35.334 19 -44.001s31 -13 55 -13h451c12 0 18 -4.33301 18 -13c0 -4.66699 -1.33301 -9.33398 -4 -14.001l-28 -64c-8 -18 -20.667 -27 -38 -27h-685zM1165 738.004
c-5.33301 -14 -13.6689 -21.001 -25.002 -21.001c-8 0 -15.667 2.66699 -23 8l-129 103l-233 -107c-12 -5.33301 -22.333 -8 -31 -8c-6 0 -9 2.33301 -9 7c0 4 1.33301 8.33301 4 13l28 63c4 8 11 15 21 21l241 109c4.66699 2.66699 10.334 4 17.001 4
s11.334 -1.33301 14.001 -4l144 -109c2.66699 -3.33301 4 -6.66602 4 -9.99902s-1 -7 -3 -11z" />
    <glyph glyph-name="ccircumflex" unicode="&#x109;" horiz-adv-x="1104" 
d="M364 0c-34 0 -64.1689 5.33691 -90.502 16.0039s-48.666 25.5 -66.999 44.5s-32.166 41.833 -41.499 68.5s-14 55.667 -14 87c0 38.667 6.66699 77.167 20 115.5s31.833 74.666 55.5 108.999s51.667 66.333 84 96s67.666 55.167 105.999 76.5s78.833 38.166 121.5 50.499
s86 18.5 130 18.5h681c12 0 18 -4.33301 18 -13c0 -2 -0.166992 -4 -0.5 -6s-1.16602 -4.33301 -2.49902 -7l-29 -64c-8 -18 -21 -27 -39 -27h-447c-22 0 -41.5 -2.33301 -58.5 -7s-32.833 -13 -47.5 -25s-28.5 -28 -41.5 -48s-26.167 -45.333 -39.5 -76l-48 -109
c-12.667 -28 -22.167 -52.167 -28.5 -72.5s-9.5 -37.833 -9.5 -52.5c0 -20.667 6.33301 -35.334 19 -44.001s31 -13 55 -13h451c12 0 18 -4.33301 18 -13c0 -4.66699 -1.33301 -9.33398 -4 -14.001l-28 -64c-8 -18 -20.667 -27 -38 -27h-685zM1165 738.004
c-5.33301 -14 -13.6689 -21.001 -25.002 -21.001c-8 0 -15.667 2.66699 -23 8l-129 103l-233 -107c-12 -5.33301 -22.333 -8 -31 -8c-6 0 -9 2.33301 -9 7c0 4 1.33301 8.33301 4 13l28 63c4 8 11 15 21 21l241 109c4.66699 2.66699 10.334 4 17.001 4
s11.334 -1.33301 14.001 -4l144 -109c2.66699 -3.33301 4 -6.66602 4 -9.99902s-1 -7 -3 -11z" />
    <glyph glyph-name="Cdotaccent" unicode="&#x10a;" horiz-adv-x="1104" 
d="M364 0c-34 0 -64.1689 5.33691 -90.502 16.0039s-48.666 25.5 -66.999 44.5s-32.166 41.833 -41.499 68.5s-14 55.667 -14 87c0 38.667 6.66699 77.167 20 115.5s31.833 74.666 55.5 108.999s51.667 66.333 84 96s67.666 55.167 105.999 76.5s78.833 38.166 121.5 50.499
s86 18.5 130 18.5h681c12 0 18 -4.33301 18 -13c0 -2 -0.166992 -4 -0.5 -6s-1.16602 -4.33301 -2.49902 -7l-29 -64c-8 -18 -21 -27 -39 -27h-447c-22 0 -41.5 -2.33301 -58.5 -7s-32.833 -13 -47.5 -25s-28.5 -28 -41.5 -48s-26.167 -45.333 -39.5 -76l-48 -109
c-12.667 -28 -22.167 -52.167 -28.5 -72.5s-9.5 -37.833 -9.5 -52.5c0 -20.667 6.33301 -35.334 19 -44.001s31 -13 55 -13h451c12 0 18 -4.33301 18 -13c0 -4.66699 -1.33301 -9.33398 -4 -14.001l-28 -64c-8 -18 -20.667 -27 -38 -27h-685zM893.998 742.004
c-10 0 -15 3.33301 -15 10c0 2 1 5 3 9l59 131c4.66699 12 13.667 18 27 18h98c10.667 0 16 -3.66699 16 -11c0 -0.666992 -0.666992 -3 -2 -7l-59 -131c-6 -12.667 -15.667 -19 -29 -19h-98z" />
    <glyph glyph-name="cdotaccent" unicode="&#x10b;" horiz-adv-x="1104" 
d="M364 0c-34 0 -64.1689 5.33691 -90.502 16.0039s-48.666 25.5 -66.999 44.5s-32.166 41.833 -41.499 68.5s-14 55.667 -14 87c0 38.667 6.66699 77.167 20 115.5s31.833 74.666 55.5 108.999s51.667 66.333 84 96s67.666 55.167 105.999 76.5s78.833 38.166 121.5 50.499
s86 18.5 130 18.5h681c12 0 18 -4.33301 18 -13c0 -2 -0.166992 -4 -0.5 -6s-1.16602 -4.33301 -2.49902 -7l-29 -64c-8 -18 -21 -27 -39 -27h-447c-22 0 -41.5 -2.33301 -58.5 -7s-32.833 -13 -47.5 -25s-28.5 -28 -41.5 -48s-26.167 -45.333 -39.5 -76l-48 -109
c-12.667 -28 -22.167 -52.167 -28.5 -72.5s-9.5 -37.833 -9.5 -52.5c0 -20.667 6.33301 -35.334 19 -44.001s31 -13 55 -13h451c12 0 18 -4.33301 18 -13c0 -4.66699 -1.33301 -9.33398 -4 -14.001l-28 -64c-8 -18 -20.667 -27 -38 -27h-685zM893.998 742.004
c-10 0 -15 3.33301 -15 10c0 2 1 5 3 9l59 131c4.66699 12 13.667 18 27 18h98c10.667 0 16 -3.66699 16 -11c0 -0.666992 -0.666992 -3 -2 -7l-59 -131c-6 -12.667 -15.667 -19 -29 -19h-98z" />
    <glyph glyph-name="Ccaron" unicode="&#x10c;" horiz-adv-x="1104" 
d="M364 0c-34 0 -64.1689 5.33691 -90.502 16.0039s-48.666 25.5 -66.999 44.5s-32.166 41.833 -41.499 68.5s-14 55.667 -14 87c0 38.667 6.66699 77.167 20 115.5s31.833 74.666 55.5 108.999s51.667 66.333 84 96s67.666 55.167 105.999 76.5s78.833 38.166 121.5 50.499
s86 18.5 130 18.5h681c12 0 18 -4.33301 18 -13c0 -2 -0.166992 -4 -0.5 -6s-1.16602 -4.33301 -2.49902 -7l-29 -64c-8 -18 -21 -27 -39 -27h-447c-22 0 -41.5 -2.33301 -58.5 -7s-32.833 -13 -47.5 -25s-28.5 -28 -41.5 -48s-26.167 -45.333 -39.5 -76l-48 -109
c-12.667 -28 -22.167 -52.167 -28.5 -72.5s-9.5 -37.833 -9.5 -52.5c0 -20.667 6.33301 -35.334 19 -44.001s31 -13 55 -13h451c12 0 18 -4.33301 18 -13c0 -4.66699 -1.33301 -9.33398 -4 -14.001l-28 -64c-8 -18 -20.667 -27 -38 -27h-685zM773.998 909.004
c6 13.333 14.335 19.999 25.002 19.999c6.66699 0 14.667 -2.66699 24 -8l128 -103l233 108c6 3.33301 11.667 5.33301 17 6s10 1.33398 14 2.00098c6 0 9 -2.66699 9 -8c0 -4 -1 -8.33301 -3 -13l-29 -62c-4 -9.33301 -10.667 -16.666 -20 -21.999l-242 -109
c-4.66699 -2.66699 -10.334 -4 -17.001 -4c-4.66699 0 -9.33398 1.33301 -14.001 4l-143 109c-3.33301 3.33301 -5 6.66602 -5 9.99902c0 2.66699 1 6.66699 3 12z" />
    <glyph glyph-name="ccaron" unicode="&#x10d;" horiz-adv-x="1104" 
d="M364 0c-34 0 -64.1689 5.33691 -90.502 16.0039s-48.666 25.5 -66.999 44.5s-32.166 41.833 -41.499 68.5s-14 55.667 -14 87c0 38.667 6.66699 77.167 20 115.5s31.833 74.666 55.5 108.999s51.667 66.333 84 96s67.666 55.167 105.999 76.5s78.833 38.166 121.5 50.499
s86 18.5 130 18.5h681c12 0 18 -4.33301 18 -13c0 -2 -0.166992 -4 -0.5 -6s-1.16602 -4.33301 -2.49902 -7l-29 -64c-8 -18 -21 -27 -39 -27h-447c-22 0 -41.5 -2.33301 -58.5 -7s-32.833 -13 -47.5 -25s-28.5 -28 -41.5 -48s-26.167 -45.333 -39.5 -76l-48 -109
c-12.667 -28 -22.167 -52.167 -28.5 -72.5s-9.5 -37.833 -9.5 -52.5c0 -20.667 6.33301 -35.334 19 -44.001s31 -13 55 -13h451c12 0 18 -4.33301 18 -13c0 -4.66699 -1.33301 -9.33398 -4 -14.001l-28 -64c-8 -18 -20.667 -27 -38 -27h-685zM773.998 909.004
c6 13.333 14.335 19.999 25.002 19.999c6.66699 0 14.667 -2.66699 24 -8l128 -103l233 108c6 3.33301 11.667 5.33301 17 6s10 1.33398 14 2.00098c6 0 9 -2.66699 9 -8c0 -4 -1 -8.33301 -3 -13l-29 -62c-4 -9.33301 -10.667 -16.666 -20 -21.999l-242 -109
c-4.66699 -2.66699 -10.334 -4 -17.001 -4c-4.66699 0 -9.33398 1.33301 -14.001 4l-143 109c-3.33301 3.33301 -5 6.66602 -5 9.99902c0 2.66699 1 6.66699 3 12z" />
    <glyph glyph-name="Dcaron" unicode="&#x10e;" horiz-adv-x="1248" 
d="M62 0c-12 0 -18.001 4 -18.001 12c0 4 1 9 3 15l281 629c8 17.333 20.667 26 38 26h804c34.667 0 65.334 -5.33301 92.001 -16s49 -25.5 67 -44.5s31.667 -41.5 41 -67.5s14 -54.333 14 -85c0 -40.667 -7 -80.5 -21 -119.5s-33.167 -75.833 -57.5 -110.5
s-53 -66.667 -86 -96s-68.667 -54.5 -107 -75.5s-78.5 -37.5 -120.5 -49.5s-84 -18 -126 -18h-804zM931.999 409c21.333 48.667 31.999 83.6689 31.999 105.002c0 19.333 -6.66699 32.666 -20 39.999s-32.666 11 -57.999 11h-203l-198 -447h202c20 0 38.667 3.16699 56 9.5
s34 16.666 50 30.999s31.333 33 46 56s29.667 51.5 45 85.5zM758.998 909.002c6 13.333 14.335 19.999 25.002 19.999c6.66699 0 14.667 -2.66699 24 -8l128 -103l233 108c6 3.33301 11.667 5.33301 17 6s10 1.33398 14 2.00098c6 0 9 -2.66699 9 -8
c0 -4 -1 -8.33301 -3 -13l-29 -62c-4 -9.33301 -10.667 -16.666 -20 -21.999l-242 -109c-4.66699 -2.66699 -10.334 -4 -17.001 -4c-4.66699 0 -9.33398 1.33301 -14.001 4l-143 109c-3.33301 3.33301 -5 6.66602 -5 9.99902c0 2.66699 1 6.66699 3 12z" />
    <glyph glyph-name="dcaron" unicode="&#x10f;" horiz-adv-x="1248" 
d="M62 0c-12 0 -18.001 4 -18.001 12c0 4 1 9 3 15l281 629c8 17.333 20.667 26 38 26h804c34.667 0 65.334 -5.33301 92.001 -16s49 -25.5 67 -44.5s31.667 -41.5 41 -67.5s14 -54.333 14 -85c0 -40.667 -7 -80.5 -21 -119.5s-33.167 -75.833 -57.5 -110.5
s-53 -66.667 -86 -96s-68.667 -54.5 -107 -75.5s-78.5 -37.5 -120.5 -49.5s-84 -18 -126 -18h-804zM931.999 409c21.333 48.667 31.999 83.6689 31.999 105.002c0 19.333 -6.66699 32.666 -20 39.999s-32.666 11 -57.999 11h-203l-198 -447h202c20 0 38.667 3.16699 56 9.5
s34 16.666 50 30.999s31.333 33 46 56s29.667 51.5 45 85.5zM758.998 909.002c6 13.333 14.335 19.999 25.002 19.999c6.66699 0 14.667 -2.66699 24 -8l128 -103l233 108c6 3.33301 11.667 5.33301 17 6s10 1.33398 14 2.00098c6 0 9 -2.66699 9 -8
c0 -4 -1 -8.33301 -3 -13l-29 -62c-4 -9.33301 -10.667 -16.666 -20 -21.999l-242 -109c-4.66699 -2.66699 -10.334 -4 -17.001 -4c-4.66699 0 -9.33398 1.33301 -14.001 4l-143 109c-3.33301 3.33301 -5 6.66602 -5 9.99902c0 2.66699 1 6.66699 3 12z" />
    <glyph glyph-name="Dcroat" unicode="&#x110;" horiz-adv-x="1299" 
d="M113 0c-12.667 0 -19 4 -19 12c0 5.33301 1.33301 10.333 4 15l127 286h-59c-12 0 -18 4 -18 12c0 4 1 8.66699 3 14l29 65c8 17.333 20.667 26 38 26h60l101 226c8 17.333 20.667 26 38 26h803c34.667 0 65.5 -5.33301 92.5 -16s49.5 -25.5 67.5 -44.5
s31.667 -41.5 41 -67.5s14 -54.333 14 -85c0 -40.667 -7 -80.5 -21 -119.5s-33.167 -75.833 -57.5 -110.5s-53 -66.667 -86 -96s-68.667 -54.5 -107 -75.5s-78.5 -37.5 -120.5 -49.5s-84 -18 -126 -18h-804zM983 409c20.667 48 31.334 83.002 32.001 105.002
c0 19.333 -6.66699 32.666 -20 39.999s-33 11 -59 11h-202l-60 -135h191c14 0 21 -3.33301 21 -10l-2 -8l-37 -81c-6 -12 -17.667 -18 -35 -18h-190l-87 -195h203c19.333 0 37.666 3.16699 54.999 9.5s34 16.666 50 30.999s31.5 33 46.5 56s30.167 51.5 45.5 85.5z" />
    <glyph glyph-name="dcroat" unicode="&#x111;" horiz-adv-x="1299" 
d="M113 0c-12.667 0 -19 4 -19 12c0 5.33301 1.33301 10.333 4 15l127 286h-59c-12 0 -18 4 -18 12c0 4 1 8.66699 3 14l29 65c8 17.333 20.667 26 38 26h60l101 226c8 17.333 20.667 26 38 26h803c34.667 0 65.5 -5.33301 92.5 -16s49.5 -25.5 67.5 -44.5
s31.667 -41.5 41 -67.5s14 -54.333 14 -85c0 -40.667 -7 -80.5 -21 -119.5s-33.167 -75.833 -57.5 -110.5s-53 -66.667 -86 -96s-68.667 -54.5 -107 -75.5s-78.5 -37.5 -120.5 -49.5s-84 -18 -126 -18h-804zM983 409c20.667 48 31.334 83.002 32.001 105.002
c0 19.333 -6.66699 32.666 -20 39.999s-33 11 -59 11h-202l-60 -135h191c14 0 21 -3.33301 21 -10l-2 -8l-37 -81c-6 -12 -17.667 -18 -35 -18h-190l-87 -195h203c19.333 0 37.666 3.16699 54.999 9.5s34 16.666 50 30.999s31.5 33 46.5 56s30.167 51.5 45.5 85.5z" />
    <glyph glyph-name="Emacron" unicode="&#x112;" horiz-adv-x="1131" 
d="M717 313c-12 0 -18 3.99902 -18 11.999c0 4.66699 1.33301 9.33398 4 14.001l28 65c7.33301 17.333 20.333 26 39 26h477c14 0 21 -3.33301 21 -10l-2 -8l-37 -81c-6 -12 -17.333 -18 -34 -18h-478zM364 -0.000976562c-34 0 -64.168 5.33691 -90.501 16.0039
s-48.666 25.5 -66.999 44.5s-32.166 41.833 -41.499 68.5s-14 55.667 -14 87c0 38.667 6.66699 77.167 20 115.5s31.833 74.666 55.5 108.999s51.667 66.333 84 96s67.666 55.167 105.999 76.5s78.833 38.166 121.5 50.499s86 18.5 130 18.5h699c12 0 18 -4.33301 18 -13
c0 -4 -1 -8.33301 -3 -13l-29 -64c-8 -18 -21 -27 -39 -27h-465c-22 0 -41.5 -2.33301 -58.5 -7s-32.833 -13 -47.5 -25s-28.5 -28 -41.5 -48s-26.167 -45.333 -39.5 -76l-48 -109c-12.667 -28 -22.167 -52.167 -28.5 -72.5s-9.5 -37.833 -9.5 -52.5
c0 -20.667 6.33301 -35.334 19 -44.001s31 -13 55 -13h469c12 0 18 -4.33301 18 -13c0 -4.66699 -1.33301 -9.33398 -4 -14.001l-28 -64c-8 -18 -21 -27 -39 -27h-702zM776.999 763.003c-9.33301 0 -14 3 -14 9c0 2.66699 1 5.66699 3 9l26 56
c3.33301 6 6.83301 10.667 10.5 14s9.16699 5 16.5 5h328c9.33301 0 14 -3.66699 14 -11l-2 -8l-26 -56c-6 -12 -15.333 -18 -28 -18h-328z" />
    <glyph glyph-name="emacron" unicode="&#x113;" horiz-adv-x="1131" 
d="M717 313c-12 0 -18 3.99902 -18 11.999c0 4.66699 1.33301 9.33398 4 14.001l28 65c7.33301 17.333 20.333 26 39 26h477c14 0 21 -3.33301 21 -10l-2 -8l-37 -81c-6 -12 -17.333 -18 -34 -18h-478zM364 -0.000976562c-34 0 -64.168 5.33691 -90.501 16.0039
s-48.666 25.5 -66.999 44.5s-32.166 41.833 -41.499 68.5s-14 55.667 -14 87c0 38.667 6.66699 77.167 20 115.5s31.833 74.666 55.5 108.999s51.667 66.333 84 96s67.666 55.167 105.999 76.5s78.833 38.166 121.5 50.499s86 18.5 130 18.5h699c12 0 18 -4.33301 18 -13
c0 -4 -1 -8.33301 -3 -13l-29 -64c-8 -18 -21 -27 -39 -27h-465c-22 0 -41.5 -2.33301 -58.5 -7s-32.833 -13 -47.5 -25s-28.5 -28 -41.5 -48s-26.167 -45.333 -39.5 -76l-48 -109c-12.667 -28 -22.167 -52.167 -28.5 -72.5s-9.5 -37.833 -9.5 -52.5
c0 -20.667 6.33301 -35.334 19 -44.001s31 -13 55 -13h469c12 0 18 -4.33301 18 -13c0 -4.66699 -1.33301 -9.33398 -4 -14.001l-28 -64c-8 -18 -21 -27 -39 -27h-702zM776.999 763.003c-9.33301 0 -14 3 -14 9c0 2.66699 1 5.66699 3 9l26 56
c3.33301 6 6.83301 10.667 10.5 14s9.16699 5 16.5 5h328c9.33301 0 14 -3.66699 14 -11l-2 -8l-26 -56c-6 -12 -15.333 -18 -28 -18h-328z" />
    <glyph glyph-name="Ebreve" unicode="&#x114;" horiz-adv-x="1131" 
d="M717 313c-12 0 -18 3.99902 -18 11.999c0 4.66699 1.33301 9.33398 4 14.001l28 65c7.33301 17.333 20.333 26 39 26h477c14 0 21 -3.33301 21 -10l-2 -8l-37 -81c-6 -12 -17.333 -18 -34 -18h-478zM364 -0.000976562c-34 0 -64.168 5.33691 -90.501 16.0039
s-48.666 25.5 -66.999 44.5s-32.166 41.833 -41.499 68.5s-14 55.667 -14 87c0 38.667 6.66699 77.167 20 115.5s31.833 74.666 55.5 108.999s51.667 66.333 84 96s67.666 55.167 105.999 76.5s78.833 38.166 121.5 50.499s86 18.5 130 18.5h699c12 0 18 -4.33301 18 -13
c0 -4 -1 -8.33301 -3 -13l-29 -64c-8 -18 -21 -27 -39 -27h-465c-22 0 -41.5 -2.33301 -58.5 -7s-32.833 -13 -47.5 -25s-28.5 -28 -41.5 -48s-26.167 -45.333 -39.5 -76l-48 -109c-12.667 -28 -22.167 -52.167 -28.5 -72.5s-9.5 -37.833 -9.5 -52.5
c0 -20.667 6.33301 -35.334 19 -44.001s31 -13 55 -13h469c12 0 18 -4.33301 18 -13c0 -4.66699 -1.33301 -9.33398 -4 -14.001l-28 -64c-8 -18 -21 -27 -39 -27h-702zM1008 749.003c-9.33301 -5.33301 -21.335 -8 -36.002 -8h-105c-15.333 0 -24.666 2.66699 -27.999 8
l-60 87c-2 2 -3 5.33301 -3 10c0 3.33301 1 6.66602 3 9.99902l26 60c4.66699 12 11.667 18 21 18c6 0 11.667 -2.66699 17 -8l60 -83c2.66699 -4 9.33398 -6 20.001 -6h63c5.33301 0 10 0.333008 14 1s7.66699 2.33398 11 5.00098l137 83
c5.33301 3.33301 9.83301 5.5 13.5 6.5s8.16699 1.5 13.5 1.5c7.33301 0 11 -3 11 -9c0 -4 -1.33301 -9 -4 -15l-21 -54c-2.66699 -8 -8.66699 -14.667 -18 -20z" />
    <glyph glyph-name="ebreve" unicode="&#x115;" horiz-adv-x="1131" 
d="M717 313c-12 0 -18 3.99902 -18 11.999c0 4.66699 1.33301 9.33398 4 14.001l28 65c7.33301 17.333 20.333 26 39 26h477c14 0 21 -3.33301 21 -10l-2 -8l-37 -81c-6 -12 -17.333 -18 -34 -18h-478zM364 -0.000976562c-34 0 -64.168 5.33691 -90.501 16.0039
s-48.666 25.5 -66.999 44.5s-32.166 41.833 -41.499 68.5s-14 55.667 -14 87c0 38.667 6.66699 77.167 20 115.5s31.833 74.666 55.5 108.999s51.667 66.333 84 96s67.666 55.167 105.999 76.5s78.833 38.166 121.5 50.499s86 18.5 130 18.5h699c12 0 18 -4.33301 18 -13
c0 -4 -1 -8.33301 -3 -13l-29 -64c-8 -18 -21 -27 -39 -27h-465c-22 0 -41.5 -2.33301 -58.5 -7s-32.833 -13 -47.5 -25s-28.5 -28 -41.5 -48s-26.167 -45.333 -39.5 -76l-48 -109c-12.667 -28 -22.167 -52.167 -28.5 -72.5s-9.5 -37.833 -9.5 -52.5
c0 -20.667 6.33301 -35.334 19 -44.001s31 -13 55 -13h469c12 0 18 -4.33301 18 -13c0 -4.66699 -1.33301 -9.33398 -4 -14.001l-28 -64c-8 -18 -21 -27 -39 -27h-702zM1008 749.003c-9.33301 -5.33301 -21.335 -8 -36.002 -8h-105c-15.333 0 -24.666 2.66699 -27.999 8
l-60 87c-2 2 -3 5.33301 -3 10c0 3.33301 1 6.66602 3 9.99902l26 60c4.66699 12 11.667 18 21 18c6 0 11.667 -2.66699 17 -8l60 -83c2.66699 -4 9.33398 -6 20.001 -6h63c5.33301 0 10 0.333008 14 1s7.66699 2.33398 11 5.00098l137 83
c5.33301 3.33301 9.83301 5.5 13.5 6.5s8.16699 1.5 13.5 1.5c7.33301 0 11 -3 11 -9c0 -4 -1.33301 -9 -4 -15l-21 -54c-2.66699 -8 -8.66699 -14.667 -18 -20z" />
    <glyph glyph-name="Edotaccent" unicode="&#x116;" horiz-adv-x="1131" 
d="M717 313c-12 0 -18 3.99902 -18 11.999c0 4.66699 1.33301 9.33398 4 14.001l28 65c7.33301 17.333 20.333 26 39 26h477c14 0 21 -3.33301 21 -10l-2 -8l-37 -81c-6 -12 -17.333 -18 -34 -18h-478zM364 -0.000976562c-34 0 -64.168 5.33691 -90.501 16.0039
s-48.666 25.5 -66.999 44.5s-32.166 41.833 -41.499 68.5s-14 55.667 -14 87c0 38.667 6.66699 77.167 20 115.5s31.833 74.666 55.5 108.999s51.667 66.333 84 96s67.666 55.167 105.999 76.5s78.833 38.166 121.5 50.499s86 18.5 130 18.5h699c12 0 18 -4.33301 18 -13
c0 -4 -1 -8.33301 -3 -13l-29 -64c-8 -18 -21 -27 -39 -27h-465c-22 0 -41.5 -2.33301 -58.5 -7s-32.833 -13 -47.5 -25s-28.5 -28 -41.5 -48s-26.167 -45.333 -39.5 -76l-48 -109c-12.667 -28 -22.167 -52.167 -28.5 -72.5s-9.5 -37.833 -9.5 -52.5
c0 -20.667 6.33301 -35.334 19 -44.001s31 -13 55 -13h469c12 0 18 -4.33301 18 -13c0 -4.66699 -1.33301 -9.33398 -4 -14.001l-28 -64c-8 -18 -21 -27 -39 -27h-702zM893.999 742.003c-10 0 -15 3.33301 -15 10c0 2 1 5 3 9l59 131c4.66699 12 13.667 18 27 18h98
c10.667 0 16 -3.66699 16 -11c0 -0.666992 -0.666992 -3 -2 -7l-59 -131c-6 -12.667 -15.667 -19 -29 -19h-98z" />
    <glyph glyph-name="edotaccent" unicode="&#x117;" horiz-adv-x="1131" 
d="M717 313c-12 0 -18 3.99902 -18 11.999c0 4.66699 1.33301 9.33398 4 14.001l28 65c7.33301 17.333 20.333 26 39 26h477c14 0 21 -3.33301 21 -10l-2 -8l-37 -81c-6 -12 -17.333 -18 -34 -18h-478zM364 -0.000976562c-34 0 -64.168 5.33691 -90.501 16.0039
s-48.666 25.5 -66.999 44.5s-32.166 41.833 -41.499 68.5s-14 55.667 -14 87c0 38.667 6.66699 77.167 20 115.5s31.833 74.666 55.5 108.999s51.667 66.333 84 96s67.666 55.167 105.999 76.5s78.833 38.166 121.5 50.499s86 18.5 130 18.5h699c12 0 18 -4.33301 18 -13
c0 -4 -1 -8.33301 -3 -13l-29 -64c-8 -18 -21 -27 -39 -27h-465c-22 0 -41.5 -2.33301 -58.5 -7s-32.833 -13 -47.5 -25s-28.5 -28 -41.5 -48s-26.167 -45.333 -39.5 -76l-48 -109c-12.667 -28 -22.167 -52.167 -28.5 -72.5s-9.5 -37.833 -9.5 -52.5
c0 -20.667 6.33301 -35.334 19 -44.001s31 -13 55 -13h469c12 0 18 -4.33301 18 -13c0 -4.66699 -1.33301 -9.33398 -4 -14.001l-28 -64c-8 -18 -21 -27 -39 -27h-702zM893.999 742.003c-10 0 -15 3.33301 -15 10c0 2 1 5 3 9l59 131c4.66699 12 13.667 18 27 18h98
c10.667 0 16 -3.66699 16 -11c0 -0.666992 -0.666992 -3 -2 -7l-59 -131c-6 -12.667 -15.667 -19 -29 -19h-98z" />
    <glyph glyph-name="Eogonek" unicode="&#x118;" horiz-adv-x="1131" 
d="M815 -216c-18.667 0 -28 8 -28 24c0 5.33301 2.5 13.166 7.5 23.499s15.167 21.166 30.5 32.499l178 136h-639c-68.667 0 -121.334 16.833 -158.001 50.5s-55 79.834 -55 138.501c0 22 2.83301 45.833 8.5 71.5s14.834 52.5 27.501 80.5
c22 48.667 50.167 93.834 84.5 135.501s72.666 77.667 114.999 108s87.5 54.166 135.5 71.499s96.667 26 146 26h699c11.333 0 17 -4 17 -12c0 -2 -0.166992 -4.16699 -0.5 -6.5s-1.16602 -4.83301 -2.49902 -7.5l-29 -64c-8 -18 -20.667 -27 -38 -27h-465
c-22 0 -41.5 -2.33301 -58.5 -7s-32.833 -13 -47.5 -25s-28.5 -28 -41.5 -48s-26.167 -45.333 -39.5 -76l-48 -109c-12 -27.333 -21.333 -51 -28 -71s-10 -37 -10 -51c0 -21.333 5.83301 -36.666 17.5 -45.999s30.167 -14 55.5 -14h469c12.667 0 19 -4.66699 19 -14
c0 -4 -1.33301 -8.33301 -4 -13l-28 -64c-2.66699 -4.66699 -5.16699 -8.5 -7.5 -11.5s-4.83301 -5.83301 -7.5 -8.5l-130 -97c-4.66699 -4 -7 -8 -7 -12c0 -2 2.33301 -3 7 -3h54c8.66699 0 13 -3 13 -9c0 -2.66699 -1 -7 -3 -13l-32 -70c-6 -12.667 -14.333 -19 -25 -19
h-152zM717 313c-12.667 0 -19 3.99902 -19 11.999c0 4.66699 1.33301 9.33398 4 14.001l29 65c8 17.333 21 26 39 26h477c14 0 21 -3.33301 21 -10l-2 -8l-37 -81c-6 -12 -17.333 -18 -34 -18h-478z" />
    <glyph glyph-name="eogonek" unicode="&#x119;" horiz-adv-x="1131" 
d="M815 -216c-18.667 0 -28 8 -28 24c0 5.33301 2.5 13.166 7.5 23.499s15.167 21.166 30.5 32.499l178 136h-639c-68.667 0 -121.334 16.833 -158.001 50.5s-55 79.834 -55 138.501c0 22 2.83301 45.833 8.5 71.5s14.834 52.5 27.501 80.5
c22 48.667 50.167 93.834 84.5 135.501s72.666 77.667 114.999 108s87.5 54.166 135.5 71.499s96.667 26 146 26h699c11.333 0 17 -4 17 -12c0 -2 -0.166992 -4.16699 -0.5 -6.5s-1.16602 -4.83301 -2.49902 -7.5l-29 -64c-8 -18 -20.667 -27 -38 -27h-465
c-22 0 -41.5 -2.33301 -58.5 -7s-32.833 -13 -47.5 -25s-28.5 -28 -41.5 -48s-26.167 -45.333 -39.5 -76l-48 -109c-12 -27.333 -21.333 -51 -28 -71s-10 -37 -10 -51c0 -21.333 5.83301 -36.666 17.5 -45.999s30.167 -14 55.5 -14h469c12.667 0 19 -4.66699 19 -14
c0 -4 -1.33301 -8.33301 -4 -13l-28 -64c-2.66699 -4.66699 -5.16699 -8.5 -7.5 -11.5s-4.83301 -5.83301 -7.5 -8.5l-130 -97c-4.66699 -4 -7 -8 -7 -12c0 -2 2.33301 -3 7 -3h54c8.66699 0 13 -3 13 -9c0 -2.66699 -1 -7 -3 -13l-32 -70c-6 -12.667 -14.333 -19 -25 -19
h-152zM717 313c-12.667 0 -19 3.99902 -19 11.999c0 4.66699 1.33301 9.33398 4 14.001l29 65c8 17.333 21 26 39 26h477c14 0 21 -3.33301 21 -10l-2 -8l-37 -81c-6 -12 -17.333 -18 -34 -18h-478z" />
    <glyph glyph-name="Ecaron" unicode="&#x11a;" horiz-adv-x="1131" 
d="M717 313c-12 0 -18 3.99902 -18 11.999c0 4.66699 1.33301 9.33398 4 14.001l28 65c7.33301 17.333 20.333 26 39 26h477c14 0 21 -3.33301 21 -10l-2 -8l-37 -81c-6 -12 -17.333 -18 -34 -18h-478zM364 -0.000976562c-34 0 -64.168 5.33691 -90.501 16.0039
s-48.666 25.5 -66.999 44.5s-32.166 41.833 -41.499 68.5s-14 55.667 -14 87c0 38.667 6.66699 77.167 20 115.5s31.833 74.666 55.5 108.999s51.667 66.333 84 96s67.666 55.167 105.999 76.5s78.833 38.166 121.5 50.499s86 18.5 130 18.5h699c12 0 18 -4.33301 18 -13
c0 -4 -1 -8.33301 -3 -13l-29 -64c-8 -18 -21 -27 -39 -27h-465c-22 0 -41.5 -2.33301 -58.5 -7s-32.833 -13 -47.5 -25s-28.5 -28 -41.5 -48s-26.167 -45.333 -39.5 -76l-48 -109c-12.667 -28 -22.167 -52.167 -28.5 -72.5s-9.5 -37.833 -9.5 -52.5
c0 -20.667 6.33301 -35.334 19 -44.001s31 -13 55 -13h469c12 0 18 -4.33301 18 -13c0 -4.66699 -1.33301 -9.33398 -4 -14.001l-28 -64c-8 -18 -21 -27 -39 -27h-702zM773.999 909.003c6 13.333 14.335 19.999 25.002 19.999c6.66699 0 14.667 -2.66699 24 -8l128 -103
l233 108c6 3.33301 11.667 5.33301 17 6s10 1.33398 14 2.00098c6 0 9 -2.66699 9 -8c0 -4 -1 -8.33301 -3 -13l-29 -62c-4 -9.33301 -10.667 -16.666 -20 -21.999l-242 -109c-4.66699 -2.66699 -10.334 -4 -17.001 -4c-4.66699 0 -9.33398 1.33301 -14.001 4l-143 109
c-3.33301 3.33301 -5 6.66602 -5 9.99902c0 2.66699 1 6.66699 3 12z" />
    <glyph glyph-name="ecaron" unicode="&#x11b;" horiz-adv-x="1131" 
d="M717 313c-12 0 -18 3.99902 -18 11.999c0 4.66699 1.33301 9.33398 4 14.001l28 65c7.33301 17.333 20.333 26 39 26h477c14 0 21 -3.33301 21 -10l-2 -8l-37 -81c-6 -12 -17.333 -18 -34 -18h-478zM364 -0.000976562c-34 0 -64.168 5.33691 -90.501 16.0039
s-48.666 25.5 -66.999 44.5s-32.166 41.833 -41.499 68.5s-14 55.667 -14 87c0 38.667 6.66699 77.167 20 115.5s31.833 74.666 55.5 108.999s51.667 66.333 84 96s67.666 55.167 105.999 76.5s78.833 38.166 121.5 50.499s86 18.5 130 18.5h699c12 0 18 -4.33301 18 -13
c0 -4 -1 -8.33301 -3 -13l-29 -64c-8 -18 -21 -27 -39 -27h-465c-22 0 -41.5 -2.33301 -58.5 -7s-32.833 -13 -47.5 -25s-28.5 -28 -41.5 -48s-26.167 -45.333 -39.5 -76l-48 -109c-12.667 -28 -22.167 -52.167 -28.5 -72.5s-9.5 -37.833 -9.5 -52.5
c0 -20.667 6.33301 -35.334 19 -44.001s31 -13 55 -13h469c12 0 18 -4.33301 18 -13c0 -4.66699 -1.33301 -9.33398 -4 -14.001l-28 -64c-8 -18 -21 -27 -39 -27h-702zM773.999 909.003c6 13.333 14.335 19.999 25.002 19.999c6.66699 0 14.667 -2.66699 24 -8l128 -103
l233 108c6 3.33301 11.667 5.33301 17 6s10 1.33398 14 2.00098c6 0 9 -2.66699 9 -8c0 -4 -1 -8.33301 -3 -13l-29 -62c-4 -9.33301 -10.667 -16.666 -20 -21.999l-242 -109c-4.66699 -2.66699 -10.334 -4 -17.001 -4c-4.66699 0 -9.33398 1.33301 -14.001 4l-143 109
c-3.33301 3.33301 -5 6.66602 -5 9.99902c0 2.66699 1 6.66699 3 12z" />
    <glyph glyph-name="Gcircumflex" unicode="&#x11c;" horiz-adv-x="1172" 
d="M364 0c-34 0 -64.168 5.33594 -90.501 16.0029s-48.666 25.5 -66.999 44.5s-32.166 41.833 -41.499 68.5s-14 55.667 -14 87c0 38.667 6.66699 77.167 20 115.5s31.833 74.666 55.5 108.999s51.667 66.333 84 96s67.666 55.167 105.999 76.5s78.833 38.166 121.5 50.499
s86 18.5 130 18.5h697c12.667 0 19 -4.33301 19 -13c0 -4 -1.33301 -8.33301 -4 -13l-29 -64c-8 -18 -21 -27 -39 -27h-463c-22 0 -41.5 -2.33301 -58.5 -7s-32.833 -13 -47.5 -25s-28.5 -28 -41.5 -48s-26.167 -45.333 -39.5 -76l-48 -109
c-12.667 -28 -22.167 -52.167 -28.5 -72.5s-9.5 -37.833 -9.5 -52.5c0 -20.667 6.33301 -35.334 19 -44.001s31 -13 55 -13h178l136 306c8 18 20.333 27 37 27h286c12.667 0 19 -4.66699 19 -14c0 -4 -1.33301 -8.33301 -4 -13l-177 -397c-8 -18 -20.667 -27 -38 -27h-723z
M1173 738.003c-5.33301 -14 -13.6689 -21.001 -25.002 -21.001c-8 0 -15.667 2.66699 -23 8l-129 103l-233 -107c-12 -5.33301 -22.333 -8 -31 -8c-6 0 -9 2.33301 -9 7c0 4 1.33301 8.33301 4 13l28 63c4 8 11 15 21 21l241 109c4.66699 2.66699 10.334 4 17.001 4
s11.334 -1.33301 14.001 -4l144 -109c2.66699 -3.33301 4 -6.66602 4 -9.99902s-1 -7 -3 -11z" />
    <glyph glyph-name="gcircumflex" unicode="&#x11d;" horiz-adv-x="1172" 
d="M364 0c-34 0 -64.168 5.33594 -90.501 16.0029s-48.666 25.5 -66.999 44.5s-32.166 41.833 -41.499 68.5s-14 55.667 -14 87c0 38.667 6.66699 77.167 20 115.5s31.833 74.666 55.5 108.999s51.667 66.333 84 96s67.666 55.167 105.999 76.5s78.833 38.166 121.5 50.499
s86 18.5 130 18.5h697c12.667 0 19 -4.33301 19 -13c0 -4 -1.33301 -8.33301 -4 -13l-29 -64c-8 -18 -21 -27 -39 -27h-463c-22 0 -41.5 -2.33301 -58.5 -7s-32.833 -13 -47.5 -25s-28.5 -28 -41.5 -48s-26.167 -45.333 -39.5 -76l-48 -109
c-12.667 -28 -22.167 -52.167 -28.5 -72.5s-9.5 -37.833 -9.5 -52.5c0 -20.667 6.33301 -35.334 19 -44.001s31 -13 55 -13h178l136 306c8 18 20.333 27 37 27h286c12.667 0 19 -4.66699 19 -14c0 -4 -1.33301 -8.33301 -4 -13l-177 -397c-8 -18 -20.667 -27 -38 -27h-723z
M1173 738.003c-5.33301 -14 -13.6689 -21.001 -25.002 -21.001c-8 0 -15.667 2.66699 -23 8l-129 103l-233 -107c-12 -5.33301 -22.333 -8 -31 -8c-6 0 -9 2.33301 -9 7c0 4 1.33301 8.33301 4 13l28 63c4 8 11 15 21 21l241 109c4.66699 2.66699 10.334 4 17.001 4
s11.334 -1.33301 14.001 -4l144 -109c2.66699 -3.33301 4 -6.66602 4 -9.99902s-1 -7 -3 -11z" />
    <glyph glyph-name="Gbreve" unicode="&#x11e;" horiz-adv-x="1172" 
d="M364 0c-34 0 -64.168 5.33594 -90.501 16.0029s-48.666 25.5 -66.999 44.5s-32.166 41.833 -41.499 68.5s-14 55.667 -14 87c0 38.667 6.66699 77.167 20 115.5s31.833 74.666 55.5 108.999s51.667 66.333 84 96s67.666 55.167 105.999 76.5s78.833 38.166 121.5 50.499
s86 18.5 130 18.5h697c12.667 0 19 -4.33301 19 -13c0 -4 -1.33301 -8.33301 -4 -13l-29 -64c-8 -18 -21 -27 -39 -27h-463c-22 0 -41.5 -2.33301 -58.5 -7s-32.833 -13 -47.5 -25s-28.5 -28 -41.5 -48s-26.167 -45.333 -39.5 -76l-48 -109
c-12.667 -28 -22.167 -52.167 -28.5 -72.5s-9.5 -37.833 -9.5 -52.5c0 -20.667 6.33301 -35.334 19 -44.001s31 -13 55 -13h178l136 306c8 18 20.333 27 37 27h286c12.667 0 19 -4.66699 19 -14c0 -4 -1.33301 -8.33301 -4 -13l-177 -397c-8 -18 -20.667 -27 -38 -27h-723z
M1017 749.003c-9.33301 -5.33301 -21.335 -8 -36.002 -8h-105c-15.333 0 -24.666 2.66699 -27.999 8l-60 87c-2 2 -3 5.33301 -3 10c0 3.33301 1 6.66602 3 9.99902l26 60c4.66699 12 11.667 18 21 18c6 0 11.667 -2.66699 17 -8l60 -83c2.66699 -4 9.33398 -6 20.001 -6h63
c5.33301 0 10 0.333008 14 1s7.66699 2.33398 11 5.00098l137 83c5.33301 3.33301 9.83301 5.5 13.5 6.5s8.16699 1.5 13.5 1.5c7.33301 0 11 -3 11 -9c0 -4 -1.33301 -9 -4 -15l-21 -54c-2.66699 -8 -8.66699 -14.667 -18 -20z" />
    <glyph glyph-name="gbreve" unicode="&#x11f;" horiz-adv-x="1172" 
d="M364 0c-34 0 -64.168 5.33594 -90.501 16.0029s-48.666 25.5 -66.999 44.5s-32.166 41.833 -41.499 68.5s-14 55.667 -14 87c0 38.667 6.66699 77.167 20 115.5s31.833 74.666 55.5 108.999s51.667 66.333 84 96s67.666 55.167 105.999 76.5s78.833 38.166 121.5 50.499
s86 18.5 130 18.5h697c12.667 0 19 -4.33301 19 -13c0 -4 -1.33301 -8.33301 -4 -13l-29 -64c-8 -18 -21 -27 -39 -27h-463c-22 0 -41.5 -2.33301 -58.5 -7s-32.833 -13 -47.5 -25s-28.5 -28 -41.5 -48s-26.167 -45.333 -39.5 -76l-48 -109
c-12.667 -28 -22.167 -52.167 -28.5 -72.5s-9.5 -37.833 -9.5 -52.5c0 -20.667 6.33301 -35.334 19 -44.001s31 -13 55 -13h178l136 306c8 18 20.333 27 37 27h286c12.667 0 19 -4.66699 19 -14c0 -4 -1.33301 -8.33301 -4 -13l-177 -397c-8 -18 -20.667 -27 -38 -27h-723z
M1017 749.003c-9.33301 -5.33301 -21.335 -8 -36.002 -8h-105c-15.333 0 -24.666 2.66699 -27.999 8l-60 87c-2 2 -3 5.33301 -3 10c0 3.33301 1 6.66602 3 9.99902l26 60c4.66699 12 11.667 18 21 18c6 0 11.667 -2.66699 17 -8l60 -83c2.66699 -4 9.33398 -6 20.001 -6h63
c5.33301 0 10 0.333008 14 1s7.66699 2.33398 11 5.00098l137 83c5.33301 3.33301 9.83301 5.5 13.5 6.5s8.16699 1.5 13.5 1.5c7.33301 0 11 -3 11 -9c0 -4 -1.33301 -9 -4 -15l-21 -54c-2.66699 -8 -8.66699 -14.667 -18 -20z" />
    <glyph glyph-name="Gdotaccent" unicode="&#x120;" horiz-adv-x="1172" 
d="M364 0c-34 0 -64.168 5.33594 -90.501 16.0029s-48.666 25.5 -66.999 44.5s-32.166 41.833 -41.499 68.5s-14 55.667 -14 87c0 38.667 6.66699 77.167 20 115.5s31.833 74.666 55.5 108.999s51.667 66.333 84 96s67.666 55.167 105.999 76.5s78.833 38.166 121.5 50.499
s86 18.5 130 18.5h697c12.667 0 19 -4.33301 19 -13c0 -4 -1.33301 -8.33301 -4 -13l-29 -64c-8 -18 -21 -27 -39 -27h-463c-22 0 -41.5 -2.33301 -58.5 -7s-32.833 -13 -47.5 -25s-28.5 -28 -41.5 -48s-26.167 -45.333 -39.5 -76l-48 -109
c-12.667 -28 -22.167 -52.167 -28.5 -72.5s-9.5 -37.833 -9.5 -52.5c0 -20.667 6.33301 -35.334 19 -44.001s31 -13 55 -13h178l136 306c8 18 20.333 27 37 27h286c12.667 0 19 -4.66699 19 -14c0 -4 -1.33301 -8.33301 -4 -13l-177 -397c-8 -18 -20.667 -27 -38 -27h-723z
M884.999 742.003c-10 0 -15 3.33301 -15 10c0 2 1 5 3 9l59 131c4.66699 12 13.667 18 27 18h98c10.667 0 16 -3.66699 16 -11c0 -0.666992 -0.666992 -3 -2 -7l-59 -131c-6 -12.667 -15.667 -19 -29 -19h-98z" />
    <glyph glyph-name="gdotaccent" unicode="&#x121;" horiz-adv-x="1172" 
d="M364 0c-34 0 -64.168 5.33594 -90.501 16.0029s-48.666 25.5 -66.999 44.5s-32.166 41.833 -41.499 68.5s-14 55.667 -14 87c0 38.667 6.66699 77.167 20 115.5s31.833 74.666 55.5 108.999s51.667 66.333 84 96s67.666 55.167 105.999 76.5s78.833 38.166 121.5 50.499
s86 18.5 130 18.5h697c12.667 0 19 -4.33301 19 -13c0 -4 -1.33301 -8.33301 -4 -13l-29 -64c-8 -18 -21 -27 -39 -27h-463c-22 0 -41.5 -2.33301 -58.5 -7s-32.833 -13 -47.5 -25s-28.5 -28 -41.5 -48s-26.167 -45.333 -39.5 -76l-48 -109
c-12.667 -28 -22.167 -52.167 -28.5 -72.5s-9.5 -37.833 -9.5 -52.5c0 -20.667 6.33301 -35.334 19 -44.001s31 -13 55 -13h178l136 306c8 18 20.333 27 37 27h286c12.667 0 19 -4.66699 19 -14c0 -4 -1.33301 -8.33301 -4 -13l-177 -397c-8 -18 -20.667 -27 -38 -27h-723z
M884.999 742.003c-10 0 -15 3.33301 -15 10c0 2 1 5 3 9l59 131c4.66699 12 13.667 18 27 18h98c10.667 0 16 -3.66699 16 -11c0 -0.666992 -0.666992 -3 -2 -7l-59 -131c-6 -12.667 -15.667 -19 -29 -19h-98z" />
    <glyph glyph-name="Gcommaaccent" unicode="&#x122;" horiz-adv-x="1172" 
d="M364 0c-34 0 -64.168 5.33594 -90.501 16.0029s-48.666 25.5 -66.999 44.5s-32.166 41.833 -41.499 68.5s-14 55.667 -14 87c0 38.667 6.66699 77.167 20 115.5s31.833 74.666 55.5 108.999s51.667 66.333 84 96s67.666 55.167 105.999 76.5s78.833 38.166 121.5 50.499
s86 18.5 130 18.5h697c12.667 0 19 -4.33301 19 -13c0 -4 -1.33301 -8.33301 -4 -13l-29 -64c-8 -18 -21 -27 -39 -27h-463c-22 0 -41.5 -2.33301 -58.5 -7s-32.833 -13 -47.5 -25s-28.5 -28 -41.5 -48s-26.167 -45.333 -39.5 -76l-48 -109
c-12.667 -28 -22.167 -52.167 -28.5 -72.5s-9.5 -37.833 -9.5 -52.5c0 -20.667 6.33301 -35.334 19 -44.001s31 -13 55 -13h178l136 306c8 18 20.333 27 37 27h286c12.667 0 19 -4.66699 19 -14c0 -4 -1.33301 -8.33301 -4 -13l-177 -397c-8 -18 -20.667 -27 -38 -27h-723z
M468.999 -215.997c-8 0 -12 3.33398 -12 10.001c0 0.666992 0.666992 3.66699 2 9l24 69.5l14 40.5c3.33301 10 6 17.333 8 22l6 14c4.66699 10 12.667 15 24 15h104c8.66699 0 13 -3 13 -9c0 -3.33301 -0.333008 -5.33301 -1 -6
c-2 -4.66699 -4.16699 -9.33398 -6.5 -14.001l-11 -21.5l-21.5 -40l-39 -70.5c-6.66699 -12.667 -16 -19 -28 -19h-76z" />
    <glyph glyph-name="gcommaaccent" unicode="&#x123;" horiz-adv-x="1172" 
d="M364 0c-34 0 -64.168 5.33594 -90.501 16.0029s-48.666 25.5 -66.999 44.5s-32.166 41.833 -41.499 68.5s-14 55.667 -14 87c0 38.667 6.66699 77.167 20 115.5s31.833 74.666 55.5 108.999s51.667 66.333 84 96s67.666 55.167 105.999 76.5s78.833 38.166 121.5 50.499
s86 18.5 130 18.5h697c12.667 0 19 -4.33301 19 -13c0 -4 -1.33301 -8.33301 -4 -13l-29 -64c-8 -18 -21 -27 -39 -27h-463c-22 0 -41.5 -2.33301 -58.5 -7s-32.833 -13 -47.5 -25s-28.5 -28 -41.5 -48s-26.167 -45.333 -39.5 -76l-48 -109
c-12.667 -28 -22.167 -52.167 -28.5 -72.5s-9.5 -37.833 -9.5 -52.5c0 -20.667 6.33301 -35.334 19 -44.001s31 -13 55 -13h178l136 306c8 18 20.333 27 37 27h286c12.667 0 19 -4.66699 19 -14c0 -4 -1.33301 -8.33301 -4 -13l-177 -397c-8 -18 -20.667 -27 -38 -27h-723z
M468.999 -215.997c-8 0 -12 3.33398 -12 10.001c0 0.666992 0.666992 3.66699 2 9l24 69.5l14 40.5c3.33301 10 6 17.333 8 22l6 14c4.66699 10 12.667 15 24 15h104c8.66699 0 13 -3 13 -9c0 -3.33301 -0.333008 -5.33301 -1 -6
c-2 -4.66699 -4.16699 -9.33398 -6.5 -14.001l-11 -21.5l-21.5 -40l-39 -70.5c-6.66699 -12.667 -16 -19 -28 -19h-76z" />
    <glyph glyph-name="Hcircumflex" unicode="&#x124;" horiz-adv-x="1200" 
d="M777 0c-12.667 0 -19 4 -19 12c0 5.33301 1.33301 10.333 4 15l127 286h-300l-128 -286c-8 -18 -20.333 -27 -37 -27h-344c-12.667 0 -19 4 -19 12c0 5.33301 1.33301 10.333 4 15l281 629c8 17.333 20.667 26 38 26h344c12 0 18 -4.33301 18 -13
c0 -4 -1.33301 -8.33301 -4 -13l-101 -226h301l100 226c7.33301 17.333 20.333 26 39 26h343c12 0 18 -4.33301 18 -13c0 -4 -1 -8.33301 -3 -13l-281 -629c-8 -18 -20.333 -27 -37 -27h-344zM1153 738c-5.33301 -14 -13.6689 -21.001 -25.002 -21.001
c-8 0 -15.667 2.66699 -23 8l-129 103l-233 -107c-12 -5.33301 -22.333 -8 -31 -8c-6 0 -9 2.33301 -9 7c0 4 1.33301 8.33301 4 13l28 63c4 8 11 15 21 21l241 109c4.66699 2.66699 10.334 4 17.001 4s11.334 -1.33301 14.001 -4l144 -109
c2.66699 -3.33301 4 -6.66602 4 -9.99902s-1 -7 -3 -11z" />
    <glyph glyph-name="hcircumflex" unicode="&#x125;" horiz-adv-x="1200" 
d="M777 0c-12.667 0 -19 4 -19 12c0 5.33301 1.33301 10.333 4 15l127 286h-300l-128 -286c-8 -18 -20.333 -27 -37 -27h-344c-12.667 0 -19 4 -19 12c0 5.33301 1.33301 10.333 4 15l281 629c8 17.333 20.667 26 38 26h344c12 0 18 -4.33301 18 -13
c0 -4 -1.33301 -8.33301 -4 -13l-101 -226h301l100 226c7.33301 17.333 20.333 26 39 26h343c12 0 18 -4.33301 18 -13c0 -4 -1 -8.33301 -3 -13l-281 -629c-8 -18 -20.333 -27 -37 -27h-344zM1153 738c-5.33301 -14 -13.6689 -21.001 -25.002 -21.001
c-8 0 -15.667 2.66699 -23 8l-129 103l-233 -107c-12 -5.33301 -22.333 -8 -31 -8c-6 0 -9 2.33301 -9 7c0 4 1.33301 8.33301 4 13l28 63c4 8 11 15 21 21l241 109c4.66699 2.66699 10.334 4 17.001 4s11.334 -1.33301 14.001 -4l144 -109
c2.66699 -3.33301 4 -6.66602 4 -9.99902s-1 -7 -3 -11z" />
    <glyph glyph-name="Hbar" unicode="&#x126;" horiz-adv-x="1200" 
d="M777 0c-12.667 0 -19 4.00098 -19 12.001c0 5.33301 1.33301 10.333 4 15l127 286h-300l-128 -286c-8 -18 -20.333 -27 -37 -27h-344c-12.667 0 -19 4 -19 12c0 5.33301 1.33301 10.333 4 15l280 629c8 17.333 21 26 39 26h344c11.333 0 17 -4 17 -12
c0 -4.66699 -1.33301 -9.33398 -4 -14.001l-21 -49h300l21 49c7.33301 17.333 20.666 26 39.999 26h343c11.333 0 17 -4 17 -12c0 -2 -0.166992 -4.16699 -0.5 -6.5s-1.16602 -4.83301 -2.49902 -7.5l-280 -629c-8 -18 -20.333 -27 -37 -27h-344zM942 430.001l36 83h-300
l-37 -83h301z" />
    <glyph glyph-name="hbar" unicode="&#x127;" horiz-adv-x="1200" 
d="M777 0c-12.667 0 -19 4.00098 -19 12.001c0 5.33301 1.33301 10.333 4 15l127 286h-300l-128 -286c-8 -18 -20.333 -27 -37 -27h-344c-12.667 0 -19 4 -19 12c0 5.33301 1.33301 10.333 4 15l280 629c8 17.333 21 26 39 26h344c11.333 0 17 -4 17 -12
c0 -4.66699 -1.33301 -9.33398 -4 -14.001l-21 -49h300l21 49c7.33301 17.333 20.666 26 39.999 26h343c11.333 0 17 -4 17 -12c0 -2 -0.166992 -4.16699 -0.5 -6.5s-1.16602 -4.83301 -2.49902 -7.5l-280 -629c-8 -18 -20.333 -27 -37 -27h-344zM942 430.001l36 83h-300
l-37 -83h301z" />
    <glyph glyph-name="Itilde" unicode="&#x128;" horiz-adv-x="513" 
d="M84 0c-12 0 -18 4 -18 12c0 4 1 9 3 15l281 629c8 17.333 20.667 26 38 26h344c12.667 0 19 -4.33301 19 -13c0 -4 -1.33301 -8.33301 -4 -13l-280 -629c-8 -18 -20.667 -27 -38 -27h-345zM713 750c-3.33301 -1.33301 -7.16504 -2.16602 -11.498 -2.49902
s-8.5 -0.5 -12.5 -0.5c-3.33301 0 -6.83301 0.166992 -10.5 0.5s-7.16699 1.16602 -10.5 2.49902l-120 43c-5.33301 2 -10.333 3 -15 3s-10 -1 -16 -3l-126 -44c-8 -3.33301 -14.667 -5 -20 -5c-6.66699 0 -10 2.66699 -10 8c0 2 0.666992 4.33301 2 7l28 64
c5.33301 14 14 22.333 26 25l117 38c8 2.66699 17.333 4 28 4c9.33301 0 17 -1.33301 23 -4l117 -41c5.33301 -1.33301 8.66602 -2 9.99902 -2s3.33301 0.166992 6 0.5s5.66699 0.833008 9 1.5l126 44c8.66699 3.33301 15.667 5 21 5c6 0 9 -2.33301 9 -7
c0 -0.666992 -0.166992 -1.5 -0.5 -2.5s-0.5 -2.16699 -0.5 -3.5l-30 -66c-3.33301 -7.33301 -6.83301 -12.5 -10.5 -15.5s-8.83398 -5.83301 -15.501 -8.5z" />
    <glyph glyph-name="itilde" unicode="&#x129;" horiz-adv-x="513" 
d="M84 0c-12 0 -18 4 -18 12c0 4 1 9 3 15l281 629c8 17.333 20.667 26 38 26h344c12.667 0 19 -4.33301 19 -13c0 -4 -1.33301 -8.33301 -4 -13l-280 -629c-8 -18 -20.667 -27 -38 -27h-345zM713 750c-3.33301 -1.33301 -7.16504 -2.16602 -11.498 -2.49902
s-8.5 -0.5 -12.5 -0.5c-3.33301 0 -6.83301 0.166992 -10.5 0.5s-7.16699 1.16602 -10.5 2.49902l-120 43c-5.33301 2 -10.333 3 -15 3s-10 -1 -16 -3l-126 -44c-8 -3.33301 -14.667 -5 -20 -5c-6.66699 0 -10 2.66699 -10 8c0 2 0.666992 4.33301 2 7l28 64
c5.33301 14 14 22.333 26 25l117 38c8 2.66699 17.333 4 28 4c9.33301 0 17 -1.33301 23 -4l117 -41c5.33301 -1.33301 8.66602 -2 9.99902 -2s3.33301 0.166992 6 0.5s5.66699 0.833008 9 1.5l126 44c8.66699 3.33301 15.667 5 21 5c6 0 9 -2.33301 9 -7
c0 -0.666992 -0.166992 -1.5 -0.5 -2.5s-0.5 -2.16699 -0.5 -3.5l-30 -66c-3.33301 -7.33301 -6.83301 -12.5 -10.5 -15.5s-8.83398 -5.83301 -15.501 -8.5z" />
    <glyph glyph-name="uni012A" unicode="&#x12a;" horiz-adv-x="513" 
d="M84 0c-12 0 -18 4 -18 12c0 4 1 9 3 15l281 629c8 17.333 20.667 26 38 26h344c12.667 0 19 -4.33301 19 -13c0 -4 -1.33301 -8.33301 -4 -13l-280 -629c-8 -18 -20.667 -27 -38 -27h-345zM432 763c-9.33301 0 -14 3 -14 9c0 2.66699 1 5.66699 3 9l26 56
c3.33301 6 6.83301 10.667 10.5 14s9.16699 5 16.5 5h328c9.33301 0 14 -3.66699 14 -11l-2 -8l-26 -56c-6 -12 -15.333 -18 -28 -18h-328z" />
    <glyph glyph-name="imacron" unicode="&#x12b;" horiz-adv-x="513" 
d="M84 0c-12 0 -18 4 -18 12c0 4 1 9 3 15l281 629c8 17.333 20.667 26 38 26h344c12.667 0 19 -4.33301 19 -13c0 -4 -1.33301 -8.33301 -4 -13l-280 -629c-8 -18 -20.667 -27 -38 -27h-345zM432 763c-9.33301 0 -14 3 -14 9c0 2.66699 1 5.66699 3 9l26 56
c3.33301 6 6.83301 10.667 10.5 14s9.16699 5 16.5 5h328c9.33301 0 14 -3.66699 14 -11l-2 -8l-26 -56c-6 -12 -15.333 -18 -28 -18h-328z" />
    <glyph glyph-name="Ibreve" unicode="&#x12c;" horiz-adv-x="513" 
d="M84 0c-12 0 -18 4 -18 12c0 4 1 9 3 15l281 629c8 17.333 20.667 26 38 26h344c12.667 0 19 -4.33301 19 -13c0 -4 -1.33301 -8.33301 -4 -13l-280 -629c-8 -18 -20.667 -27 -38 -27h-345zM674 749c-9.33301 -5.33301 -21.335 -8 -36.002 -8h-105
c-15.333 0 -24.666 2.66699 -27.999 8l-60 87c-2 2 -3 5.33301 -3 10c0 3.33301 1 6.66602 3 9.99902l26 60c4.66699 12 11.667 18 21 18c6 0 11.667 -2.66699 17 -8l60 -83c2.66699 -4 9.33398 -6 20.001 -6h63c5.33301 0 10 0.333008 14 1s7.66699 2.33398 11 5.00098
l137 83c5.33301 3.33301 9.83301 5.5 13.5 6.5s8.16699 1.5 13.5 1.5c7.33301 0 11 -3 11 -9c0 -4 -1.33301 -9 -4 -15l-21 -54c-2.66699 -8 -8.66699 -14.667 -18 -20z" />
    <glyph glyph-name="ibreve" unicode="&#x12d;" horiz-adv-x="513" 
d="M84 0c-12 0 -18 4 -18 12c0 4 1 9 3 15l281 629c8 17.333 20.667 26 38 26h344c12.667 0 19 -4.33301 19 -13c0 -4 -1.33301 -8.33301 -4 -13l-280 -629c-8 -18 -20.667 -27 -38 -27h-345zM674 749c-9.33301 -5.33301 -21.335 -8 -36.002 -8h-105
c-15.333 0 -24.666 2.66699 -27.999 8l-60 87c-2 2 -3 5.33301 -3 10c0 3.33301 1 6.66602 3 9.99902l26 60c4.66699 12 11.667 18 21 18c6 0 11.667 -2.66699 17 -8l60 -83c2.66699 -4 9.33398 -6 20.001 -6h63c5.33301 0 10 0.333008 14 1s7.66699 2.33398 11 5.00098
l137 83c5.33301 3.33301 9.83301 5.5 13.5 6.5s8.16699 1.5 13.5 1.5c7.33301 0 11 -3 11 -9c0 -4 -1.33301 -9 -4 -15l-21 -54c-2.66699 -8 -8.66699 -14.667 -18 -20z" />
    <glyph glyph-name="Iogonek" unicode="&#x12e;" horiz-adv-x="513" 
d="M96 -216c-18.667 0 -28 8.00293 -28 24.0029c0 5.33301 2.5 13.166 7.5 23.499s15.167 21.166 30.5 32.499l178 136h-200c-12 0 -18 4 -18 12c0 4 1 9 3 15l280 629c8 17.333 21 26 39 26h344c12 0 18 -4 18 -12c0 -4.66699 -1 -9.33398 -3 -14.001l-280 -629
c-8 -18 -20.667 -27 -38 -27h-67l-121 -90c-4.66699 -4 -7 -8 -7 -12c0 -2 2.33301 -3 7 -3h54c8.66699 0 13 -3 13 -9c0 -2.66699 -1 -7 -3 -13l-32 -70c-6 -12.667 -14 -19 -24 -19h-153z" />
    <glyph glyph-name="iogonek" unicode="&#x12f;" horiz-adv-x="513" 
d="M96 -216c-18.667 0 -28 8.00293 -28 24.0029c0 5.33301 2.5 13.166 7.5 23.499s15.167 21.166 30.5 32.499l178 136h-200c-12 0 -18 4 -18 12c0 4 1 9 3 15l280 629c8 17.333 21 26 39 26h344c12 0 18 -4 18 -12c0 -4.66699 -1 -9.33398 -3 -14.001l-280 -629
c-8 -18 -20.667 -27 -38 -27h-67l-121 -90c-4.66699 -4 -7 -8 -7 -12c0 -2 2.33301 -3 7 -3h54c8.66699 0 13 -3 13 -9c0 -2.66699 -1 -7 -3 -13l-32 -70c-6 -12.667 -14 -19 -24 -19h-153z" />
    <glyph glyph-name="Idotaccent" unicode="&#x130;" horiz-adv-x="513" 
d="M84 0c-12 0 -18 4 -18 12c0 4 1 9 3 15l281 629c8 17.333 20.667 26 38 26h344c12.667 0 19 -4.33301 19 -13c0 -4 -1.33301 -8.33301 -4 -13l-280 -629c-8 -18 -20.667 -27 -38 -27h-345zM538 742c-10 0 -15 3.33301 -15 10c0 2 1 5 3 9l59 131
c4.66699 12 13.667 18 27 18h98c10.667 0 16 -3.66699 16 -11c0 -0.666992 -0.666992 -3 -2 -7l-59 -131c-6 -12.667 -15.667 -19 -29 -19h-98z" />
    <glyph glyph-name="dotlessi" unicode="&#x131;" horiz-adv-x="513" 
d="M84 0c-12 0 -18 4 -18 12c0 4 1 9 3 15l281 629c8 17.333 20.667 26 38 26h344c12.667 0 19 -4.33301 19 -13c0 -4 -1.33301 -8.33301 -4 -13l-280 -629c-8 -18 -20.667 -27 -38 -27h-345z" />
    <glyph glyph-name="IJ" unicode="&#x132;" horiz-adv-x="1460" 
d="M84 0c-12 0 -18 4 -18 12c0 4 1 9 3 15l281 629c8 17.333 20.667 26 38 26h344c12.667 0 19 -4.33301 19 -13c0 -4 -1.33301 -8.33301 -4 -13l-280 -629c-8 -18 -20.667 -27 -38 -27h-345zM550 0c-12 0 -18 3.99902 -18 11.999c0 4 1 9 3 15l29 64c8 18 21 27 39 27h311
c42.667 0 78 11.5 106 34.5s53.667 60.5 77 112.5l174 391c8 17.333 20.667 26 38 26h383c12.667 0 19 -4.33301 19 -13c0 -4 -1 -8.33301 -3 -13l-167 -374c-18 -41.333 -40.667 -79.166 -68 -113.499s-58.833 -64 -94.5 -89s-75 -44.5 -118 -58.5s-89.167 -21 -138.5 -21
h-572z" />
    <glyph glyph-name="ij" unicode="&#x133;" horiz-adv-x="1460" 
d="M84 0c-12 0 -18 4 -18 12c0 4 1 9 3 15l281 629c8 17.333 20.667 26 38 26h344c12.667 0 19 -4.33301 19 -13c0 -4 -1.33301 -8.33301 -4 -13l-280 -629c-8 -18 -20.667 -27 -38 -27h-345zM550 0c-12 0 -18 3.99902 -18 11.999c0 4 1 9 3 15l29 64c8 18 21 27 39 27h311
c42.667 0 78 11.5 106 34.5s53.667 60.5 77 112.5l174 391c8 17.333 20.667 26 38 26h383c12.667 0 19 -4.33301 19 -13c0 -4 -1 -8.33301 -3 -13l-167 -374c-18 -41.333 -40.667 -79.166 -68 -113.499s-58.833 -64 -94.5 -89s-75 -44.5 -118 -58.5s-89.167 -21 -138.5 -21
h-572z" />
    <glyph glyph-name="Jcircumflex" unicode="&#x134;" horiz-adv-x="947" 
d="M37 0c-12 0 -18 3.99902 -18 11.999c0 4 1 9 3 15l29 64c8 18 21 27 39 27h311c42.667 0 78 11.5 106 34.5s53.667 60.5 77 112.5l174 391c8 17.333 20.667 26 38 26h383c12.667 0 19 -4.33301 19 -13c0 -4 -1 -8.33301 -3 -13l-167 -374
c-18 -41.333 -40.667 -79.166 -68 -113.499s-58.833 -64 -94.5 -89s-75 -44.5 -118 -58.5s-89.167 -21 -138.5 -21h-572zM1231 737.999c-5.33301 -14 -13.6689 -21.001 -25.002 -21.001c-8 0 -15.667 2.66699 -23 8l-129 103l-233 -107c-12 -5.33301 -22.333 -8 -31 -8
c-6 0 -9 2.33301 -9 7c0 4 1.33301 8.33301 4 13l28 63c4 8 11 15 21 21l241 109c4.66699 2.66699 10.334 4 17.001 4s11.334 -1.33301 14.001 -4l144 -109c2.66699 -3.33301 4 -6.66602 4 -9.99902s-1 -7 -3 -11z" />
    <glyph glyph-name="jcircumflex" unicode="&#x135;" horiz-adv-x="947" 
d="M37 0c-12 0 -18 3.99902 -18 11.999c0 4 1 9 3 15l29 64c8 18 21 27 39 27h311c42.667 0 78 11.5 106 34.5s53.667 60.5 77 112.5l174 391c8 17.333 20.667 26 38 26h383c12.667 0 19 -4.33301 19 -13c0 -4 -1 -8.33301 -3 -13l-167 -374
c-18 -41.333 -40.667 -79.166 -68 -113.499s-58.833 -64 -94.5 -89s-75 -44.5 -118 -58.5s-89.167 -21 -138.5 -21h-572zM1231 737.999c-5.33301 -14 -13.6689 -21.001 -25.002 -21.001c-8 0 -15.667 2.66699 -23 8l-129 103l-233 -107c-12 -5.33301 -22.333 -8 -31 -8
c-6 0 -9 2.33301 -9 7c0 4 1.33301 8.33301 4 13l28 63c4 8 11 15 21 21l241 109c4.66699 2.66699 10.334 4 17.001 4s11.334 -1.33301 14.001 -4l144 -109c2.66699 -3.33301 4 -6.66602 4 -9.99902s-1 -7 -3 -11z" />
    </font>
</defs>
</svg>
